<svg style="position: absolute; width: 0; height: 0; overflow: hidden;" version="1.1" xmlns="http://www.w3.org/2000/svg" xmlns:xlink="http://www.w3.org/1999/xlink">
<defs>
<symbol id="icon-be_adventures" viewBox="0 0 217 32">
<title>be_adventures</title>
<path class="path1" fill="#fd0" d="M27.133 11.147c-0.010-0-0.022-0-0.035-0-3.494 0-6.574 1.768-8.396 4.458-1.858-2.752-4.974-4.567-8.514-4.567-2.031 0-3.923 0.598-5.509 1.627l-0.614 0.443v-10.133c0-1.105-0.895-2-2-2s-2 0.895-2 2v0 18.36c0 0.004 0 0.009 0 0.014 0 5.635 4.545 10.208 10.169 10.253 0.015 0 0.027 0 0.039 0 3.494 0 6.574-1.768 8.396-4.458 1.853 2.766 4.97 4.594 8.514 4.604 0.156 0.009 0.338 0.014 0.52 0.014 2.158 0 4.155-0.695 5.777-1.873 0.646-0.348 1.096-1.051 1.096-1.86 0-0.284-0.055-0.554-0.156-0.802-0.299-0.679-0.979-1.154-1.77-1.154-0.274 0-0.534 0.057-0.77 0.16l-0.134 0.062c-1.234 0.836-2.756 1.334-4.395 1.334-0.035 0-0.069-0-0.104-0.001-2.694-0.004-4.987-1.74-5.822-4.157l13.96-0.043c0.004 0 0.009 0 0.013 0 1.1 0 1.992-0.888 2-1.986v-0.001c0.002-0.072 0.003-0.157 0.003-0.243 0-5.454-4.355-9.891-9.777-10.024l-0.492-0zM10.173 27.6c-3.404-0.008-6.16-2.769-6.16-6.173 0-0.009 0-0.019 0-0.028v0.001c0-0.004 0-0.009 0-0.013 0-3.402 2.758-6.16 6.16-6.16s6.16 2.758 6.16 6.16c0 3.397-2.75 6.152-6.146 6.16h-0.001zM21.293 19.427c0.863-2.444 3.15-4.165 5.839-4.173 0.049-0.001 0.105-0.002 0.162-0.002 2.659 0 4.914 1.734 5.694 4.133l-11.695 0.042z"></path>
<path class="path2" fill="#fff" d="M50.427 10.667c-0 0-0.001 0-0.001 0-5.844 0-10.591 4.7-10.666 10.526s-0 0.114-0 0.154c0.015 5.69 4.608 10.301 10.289 10.347l0.338 0c0.133 0.007 0.289 0.011 0.446 0.011 2.246 0 4.305-0.805 5.902-2.143 0.042 1.12 0.901 2.011 1.99 2.118 0.029 0.001 0.053 0.002 0.077 0.002 1.099 0 1.995-0.869 2.038-1.957s0-0.111 0-0.151v-8.24c0.003-0.089 0.004-0.193 0.004-0.298 0-5.618-4.466-10.193-10.041-10.368l-0.376-0zM50.427 27.6c-0.048 0.001-0.104 0.002-0.161 0.002-3.486 0-6.319-2.793-6.385-6.262l-0-0.006c0.074-3.588 2.97-6.475 6.554-6.533 3.485 0.052 6.286 2.885 6.286 6.373 0 0.028-0 0.057-0.001 0.085l0-0.004c0.001 0.036 0.001 0.079 0.001 0.121 0 3.346-2.679 6.066-6.008 6.132l-0.286 0zM73.973 10.453c-5.847 0-10.587 4.74-10.587 10.587s4.74 10.587 10.587 10.587c5.847 0 10.587-4.74 10.587-10.587v0-18.947c0-1.156-0.937-2.093-2.093-2.093s-2.093 0.937-2.093 2.093v10.48c-1.754-1.316-3.967-2.107-6.364-2.107-0.013 0-0.025 0-0.038 0h0.002zM73.973 27.467c-3.542-0-6.413-2.871-6.413-6.413s2.871-6.413 6.413-6.413c3.523 0 6.383 2.841 6.413 6.357l0 0.003c0 3.542-2.871 6.413-6.413 6.413v0 0zM101.493 10.76c-0.217-0.084-0.468-0.133-0.731-0.133-0.875 0-1.624 0.54-1.931 1.305l-0.005 0.014-4.387 11.773-4.533-11.72c-0.2-0.965-1.042-1.68-2.052-1.68-1.156 0-2.093 0.937-2.093 2.093 0 0.393 0.109 0.762 0.297 1.076l6.261 16.884c0.332 0.787 1.096 1.33 1.986 1.333h0c0.889-0.011 1.649-0.551 1.981-1.319l6.432-16.934c0.093-0.226 0.147-0.489 0.147-0.764 0-0.856-0.523-1.589-1.267-1.897l-0.107-0.005zM114.2 10.533c-5.356 0.619-9.476 5.128-9.476 10.6s4.12 9.981 9.426 10.595c0.237 0.017 0.455 0.024 0.676 0.024 2.205 0 4.249-0.691 5.927-1.868 0.667-0.355 1.135-1.084 1.135-1.921 0-0.304-0.062-0.594-0.174-0.858-0.314-0.7-1.019-1.188-1.838-1.188-0.298 0-0.582 0.065-0.836 0.181l-0.107-0.005c-1.274 0.838-2.836 1.336-4.514 1.336-0.077 0-0.154-0.001-0.23-0.003-2.795-0.006-5.179-1.807-6.055-4.315l14.533-0.045c1.084-0.011 1.968-0.849 2.053-1.913l0-0.007c0-0.032 0.001-0.070 0.001-0.108 0-5.741-4.617-10.404-10.34-10.479l-0.18-0zM114.2 14.707c0.070-0.003 0.152-0.004 0.234-0.004 2.744 0 5.070 1.791 5.874 4.267l-12.214 0.044c0.904-2.551 3.296-4.346 6.107-4.347h0zM137.933 10.533c-5.811 0.067-10.502 4.772-10.547 10.582l-0 8.484c0 1.156 0.937 2.093 2.093 2.093s2.093-0.937 2.093-2.093v-8.453c0-3.546 2.874-6.42 6.42-6.42s6.42 2.874 6.42 6.42v8.48c-0.004 0.050-0.007 0.108-0.007 0.167 0 1.156 0.937 2.093 2.093 2.093s2.093-0.937 2.093-2.093c0-0.059-0.002-0.117-0.007-0.174l0-8.472c-0.045-5.829-4.758-10.542-10.582-10.587l-0.004-0zM160.6 10.533h-2.987v-8.4c-0.089-1.082-0.989-1.926-2.087-1.926s-1.998 0.844-2.086 1.919l-0 8.461h-2.987c-1.141 0-2.067 0.925-2.067 2.067 0 0 0 0 0 0 0 1.149 0.921 2.084 2.065 2.106l2.989 0v14.973c-0.004 0.050-0.007 0.108-0.007 0.167 0 1.156 0.937 2.093 2.093 2.093s2.093-0.937 2.093-2.093c0-0.059-0.002-0.117-0.007-0.174l0-14.966h2.987c1.16-0.008 2.099-0.946 2.107-2.106 0-0.001 0-0.002 0-0.003 0-1.116-0.879-2.027-1.982-2.078l-0.098-0zM179.12 10.533c-0.012-0-0.026-0-0.040-0-1.135 0-2.057 0.909-2.080 2.038s-0 0.002-0 0.082v10.547c-0.132 2.309-2.036 4.132-4.367 4.132s-4.235-1.823-4.366-4.12l-0.001-0.012v-10.56c-0.089-1.082-0.989-1.926-2.087-1.926s-1.998 0.844-2.086 1.919l-0 10.674c0 4.724 3.829 8.553 8.553 8.553s8.553-3.829 8.553-8.553v-10.667c0-1.141-0.925-2.067-2.067-2.067v0 0zM194.2 10.533c-5.829 0.045-10.542 4.758-10.587 10.582l-0 8.484c-0.004 0.050-0.007 0.108-0.007 0.167 0 1.156 0.937 2.093 2.093 2.093s2.093-0.937 2.093-2.093c0-0.059-0.002-0.117-0.007-0.174l0-8.406c0-3.542 2.871-6.413 6.413-6.413 1.16-0.008 2.099-0.946 2.107-2.106-0.008-1.144-0.936-2.067-2.080-2.067-0.005 0-0.009 0-0.014 0h0.001zM206.787 10.533c-0.357-0.042-0.771-0.067-1.191-0.067-5.891 0-10.667 4.776-10.667 10.667s4.776 10.667 10.667 10.667c0.42 0 0.833-0.024 1.24-0.071 0.127 0.015 0.332 0.021 0.54 0.021 2.204 0 4.246-0.69 5.924-1.866 0.673-0.354 1.146-1.085 1.146-1.927 0-0.302-0.061-0.59-0.171-0.852-0.314-0.7-1.019-1.188-1.838-1.188-0.298 0-0.582 0.065-0.836 0.181l-0.107-0.005c-1.274 0.838-2.836 1.336-4.514 1.336-0.077 0-0.154-0.001-0.23-0.003-2.751-0.005-5.105-1.749-6.014-4.195l14.559-0.045c0.012 0 0.026 0 0.040 0 1.135 0 2.057-0.909 2.080-2.038l0-0.002c0-0.036 0.001-0.078 0.001-0.121 0-5.741-4.617-10.404-10.34-10.479l-0.26-0zM206.787 14.707c0.069-0.003 0.149-0.004 0.23-0.004 2.749 0 5.079 1.797 5.878 4.281l-12.175 0.044c0.895-2.555 3.283-4.355 6.093-4.36h0.001z"></path>
</symbol>
<symbol id="icon-be_enriche" viewBox="0 0 198 32">
<title>be_enriche</title>
<path class="path1" fill="#1cbcff" d="M27.73 10.62c-3.52 0.001-6.632 1.748-8.518 4.422-1.924-2.78-5.103-4.605-8.707-4.605-2.376 0-4.567 0.793-6.323 2.129l0.026-10.5c0-1.141-0.925-2.066-2.066-2.066s-2.066 0.925-2.066 2.066v18.913c0 0.005 0 0.010 0 0.016 0 5.804 4.684 10.515 10.478 10.558 3.527-0.005 6.639-1.758 8.522-4.437 1.922 2.772 5.093 4.591 8.69 4.591 0.015 0 0.029-0 0.044-0 0.184 0.012 0.401 0.019 0.62 0.019 2.173 0 4.186-0.682 5.838-1.844 0.666-0.358 1.132-1.085 1.132-1.922 0-0.3-0.060-0.585-0.168-0.846-0.307-0.699-1.007-1.189-1.821-1.189-0.341 0-0.662 0.086-0.943 0.237-1.265 0.864-2.839 1.382-4.535 1.382-0.028 0-0.055-0-0.083-0-2.775-0.009-5.134-1.798-5.994-4.287l14.26-0.045c0.005 0 0.010 0 0.015 0 1.141 0 2.066-0.925 2.066-2.066 0-0.005-0-0.011-0-0.016 0.001-0.059 0.002-0.13 0.002-0.201 0-5.695-4.617-10.312-10.312-10.312-0.055 0-0.11 0-0.164 0.001zM10.482 27.299c-3.465-0.052-6.257-2.865-6.274-6.334v-0.002c0-0.004-0-0.010-0-0.015 0-3.507 2.843-6.351 6.351-6.351s6.351 2.843 6.351 6.351c0 3.507-2.843 6.351-6.351 6.351-0.027 0-0.054-0-0.081-0zM21.719 19.006c0.887-2.517 3.241-4.291 6.010-4.301 0.055-0.002 0.118-0.003 0.181-0.003 2.74 0 5.063 1.787 5.865 4.26l-12.057 0.044z"></path>
<path class="path2" fill="#fff" d="M51.807 10.59c-5.9 0-10.682 4.783-10.682 10.682s4.783 10.682 10.682 10.682c0.185 0.012 0.402 0.018 0.62 0.018 2.218 0 4.275-0.693 5.965-1.875 0.685-0.355 1.168-1.096 1.168-1.95 0-0.306-0.062-0.598-0.174-0.863-0.325-0.688-1.027-1.165-1.841-1.165-0.339 0-0.658 0.083-0.939 0.229-1.291 0.874-2.896 1.398-4.624 1.398-0.045 0-0.090-0-0.135-0.001-0.002 0-0.012 0-0.023 0-2.828 0-5.233-1.809-6.122-4.332l14.66-0.045c0.009 0 0.020 0 0.031 0 1.152 0 2.088-0.93 2.096-2.080 0.001-0.061 0.002-0.132 0.002-0.203 0-5.789-4.693-10.482-10.482-10.482-0.071 0-0.142 0.001-0.213 0.002l0.011-0zM51.807 14.798c0.081-0.004 0.177-0.006 0.273-0.006 2.758 0 5.093 1.811 5.881 4.309l-12.32 0.044c0.917-2.553 3.317-4.347 6.136-4.347 0.010 0 0.021 0 0.031 0h-0.002zM74.405 10.59c-5.9 0-10.682 4.783-10.682 10.682v8.555c-0.005 0.054-0.008 0.117-0.008 0.18 0 1.166 0.945 2.112 2.112 2.112s2.112-0.945 2.112-2.112c0-0.063-0.003-0.126-0.008-0.188l0.001-8.547c0.173-3.437 3.002-6.158 6.466-6.158s6.293 2.721 6.466 6.143l0.001 8.57c-0.005 0.054-0.008 0.117-0.008 0.18 0 1.166 0.945 2.112 2.112 2.112s2.112-0.945 2.112-2.112c0-0.063-0.003-0.126-0.008-0.188l0.001-8.547c-0.009-5.896-4.786-10.673-10.681-10.682h-0.001zM98.281 10.59c-5.9 0-10.682 4.783-10.682 10.682v8.555c-0.005 0.054-0.008 0.117-0.008 0.18 0 1.166 0.945 2.112 2.112 2.112s2.112-0.945 2.112-2.112c0-0.063-0.003-0.126-0.008-0.188l0.001-8.501c0-0.005-0-0.010-0-0.015 0-3.567 2.892-6.459 6.459-6.459 0.005 0 0.011 0 0.016 0 1.17-0.009 2.118-0.956 2.126-2.126-0.008-1.153-0.943-2.083-2.096-2.083-0.027 0-0.054 0.001-0.081 0.002l0.004-0zM118.906 32c0.016 0 0.036 0 0.055 0 3.733 0 7.016-1.929 8.906-4.845 0.232-0.364 0.355-0.758 0.355-1.18 0-0.728-0.366-1.371-0.924-1.755-0.33-0.204-0.721-0.323-1.139-0.323-0.744 0-1.4 0.373-1.792 0.943-1.161 1.807-3.152 2.982-5.418 2.982-0.010 0-0.020-0-0.030-0-3.435-0.173-6.157-3.002-6.157-6.466s2.721-6.293 6.143-6.466c0.033-0.001 0.053-0.001 0.073-0.001 2.35 0 4.407 1.255 5.537 3.131 0.405 0.656 1.089 1.067 1.87 1.067 0.383 0 0.743-0.099 1.056-0.273 0.621-0.375 1.038-1.057 1.038-1.837 0-0.388-0.103-0.752-0.284-1.066-1.879-3.192-5.308-5.308-9.232-5.308-5.9 0-10.682 4.783-10.682 10.682 0 5.896 4.776 10.676 10.67 10.682h0.001zM140.486 10.59c-0.011-0-0.023-0-0.036-0-1.905 0-3.675 0.576-5.146 1.563l0.033-10.025c-0.096-1.086-1.001-1.931-2.104-1.931s-2.008 0.845-2.103 1.923l-0.001 27.754c-0.005 0.054-0.008 0.117-0.008 0.18 0 1.166 0.945 2.112 2.112 2.112s2.112-0.945 2.112-2.112c0-0.063-0.003-0.126-0.008-0.188l0.001-9.903c0-2.856 2.315-5.171 5.171-5.171s5.171 2.315 5.171 5.171v9.881c0.008 1.13 0.909 2.047 2.032 2.081 1.174-0.009 2.122-0.956 2.13-2.126v-9.835c-0.026-5.173-4.226-9.356-9.403-9.356-0 0-0 0-0 0v0zM163.083 10.59c-5.673 0.283-10.165 4.952-10.165 10.67 0 5.68 4.433 10.324 10.027 10.662 0.215 0.013 0.432 0.020 0.65 0.020 2.219 0 4.275-0.693 5.965-1.875 0.737-0.337 1.261-1.105 1.261-1.995 0-0.277-0.051-0.543-0.144-0.787-0.32-0.701-1.030-1.19-1.853-1.19-0.347 0-0.673 0.087-0.958 0.239-1.292 0.874-2.897 1.398-4.624 1.398-0.045 0-0.090-0-0.135-0.001-0.002 0-0.012 0-0.023 0-2.828 0-5.233-1.809-6.122-4.332l14.66-0.045c0.014 0 0.030 0 0.046 0 1.153 0 2.088-0.93 2.096-2.081 0.001-0.062 0.002-0.134 0.002-0.206 0-5.789-4.693-10.482-10.482-10.482-0.109 0-0.218 0.002-0.326 0.005l0.016-0zM163.083 14.798c0.081-0.004 0.177-0.006 0.273-0.006 2.758 0 5.094 1.811 5.881 4.309l-12.32 0.044c0.917-2.553 3.317-4.347 6.136-4.347 0.010 0 0.021 0 0.031 0h-0.002zM187.037 10.497c-0.009-0-0.020-0-0.031-0-5.9 0-10.682 4.783-10.682 10.682s4.783 10.682 10.682 10.682c5.9 0 10.682-4.783 10.682-10.682 0-0.016-0-0.032-0-0.049v-19.050c-0.096-1.086-1.001-1.931-2.104-1.931s-2.008 0.845-2.103 1.923l-0.001 10.598c-1.769-1.356-4.013-2.173-6.448-2.173-0.009 0-0.018 0-0.027 0h0.001zM187.037 27.653c-3.575-0-6.474-2.899-6.474-6.474s2.899-6.474 6.474-6.474c3.565 0 6.456 2.881 6.474 6.441v0.002c0 3.576-2.899 6.474-6.474 6.474v0z"></path>
<path class="path3" fill="#fff" d="M102.104 10.882c-0.429-0.378-0.698-0.928-0.698-1.541s0.269-1.164 0.696-1.539c0.392-0.406 0.939-0.656 1.544-0.656s1.151 0.251 1.541 0.654c0.4 0.393 0.648 0.938 0.648 1.542s-0.248 1.149-0.647 1.541c-0.402 0.379-0.945 0.611-1.542 0.611s-1.14-0.232-1.543-0.612z"></path>
<path class="path4" fill="#fff" d="M103.599 15.322c-0 0-0 0-0 0-1.183 0-2.143 0.959-2.143 2.143 0 0.005 0 0.011 0 0.016v11.622c0.097 1.119 1.030 1.991 2.166 1.991s2.068-0.872 2.165-1.982l0.001-11.646c0-0.005 0-0.010 0-0.016 0-1.183-0.959-2.143-2.143-2.143-0.016 0-0.033 0-0.049 0.001z"></path>
</symbol>
<symbol id="icon-be_fiesta" viewBox="0 0 141 32">
<title>be_fiest</title>
<path class="path1" fill="#fff" d="M56.853 11.16c-0.405-0.376-0.658-0.912-0.658-1.506 0-0.542 0.21-1.034 0.553-1.401l0.106-0.105c0.389-0.39 0.926-0.631 1.52-0.631s1.131 0.241 1.52 0.631l0 0c0.382 0.387 0.618 0.919 0.618 1.507s-0.236 1.119-0.618 1.507c-0.404 0.377-0.948 0.609-1.546 0.609s-1.143-0.232-1.548-0.611z"></path>
<path class="path2" fill="#fff" d="M58.333 15.6c-0.004-0-0.009-0-0.013-0-1.174 0-2.126 0.948-2.133 2.119s0 0.001 0 0.001v11.613c0.091 1.125 1.026 2.003 2.167 2.003s2.076-0.878 2.166-1.996l0.001-11.581c0-1.186-0.961-2.147-2.147-2.147v0z"></path>
<path class="path3" fill="#21e1b0" d="M28 10.533c-0.008-0-0.017-0-0.026-0-3.604 0-6.781 1.826-8.657 4.603-1.914-2.841-5.127-4.714-8.777-4.714-2.114 0-4.082 0.628-5.726 1.709q-0.307 0.202-0.641 0.456v-10.52c0-1.141-0.925-2.067-2.067-2.067s-2.067 0.925-2.067 2.067v18.96c0 0.004 0 0.009 0 0.014 0 5.804 4.682 10.514 10.476 10.56 0.012 0 0.021 0 0.030 0 3.604 0 6.781-1.826 8.657-4.603 1.912 2.853 5.132 4.736 8.792 4.736 0.002 0 0.004 0 0.005 0 0.187 0.012 0.405 0.019 0.625 0.019 2.171 0 4.183-0.681 5.834-1.841 0.675-0.354 1.148-1.086 1.148-1.928 0-0.327-0.072-0.638-0.2-0.917-0.305-0.703-1.006-1.196-1.823-1.196-0.279 0-0.544 0.057-0.785 0.161l-0.147 0.075c-1.259 0.837-2.806 1.335-4.469 1.335-0.060 0-0.12-0.001-0.18-0.002-2.772-0.007-5.133-1.798-5.991-4.288l14.387-0.045c0.008 0 0.018 0 0.027 0 1.135 0 2.057-0.909 2.080-2.038l0-0.002c0.002-0.068 0.003-0.149 0.003-0.229 0-5.623-4.492-10.198-10.084-10.33l-0.426-0zM10.493 27.413c-3.507-0.008-6.347-2.852-6.347-6.36 0-0.005 0-0.009 0-0.014v0.001c0.015-3.494 2.851-6.32 6.347-6.32 3.505 0 6.347 2.841 6.347 6.347s-2.841 6.347-6.347 6.347zM21.947 18.987c0.881-2.534 3.249-4.32 6.034-4.32 0.007 0 0.014 0 0.021 0 0.045-0.001 0.098-0.002 0.152-0.002 2.743 0 5.071 1.782 5.888 4.251l-11.987 0.044z"></path>
<path class="path4" fill="#fffafa" d="M103.84 25.333c0-4.213-4.413-5.4-7-6.107v0c-2.307-0.64-4.48-1.24-4.493-2.48v-0.16c-0-0.011-0-0.024-0-0.037 0-0.565 0.277-1.065 0.702-1.373 0.616-0.447 1.377-0.719 2.201-0.737l0.124-0c1.717 0.073 3.305 0.559 4.689 1.36l-0.049-0.026c0.285 0.135 0.619 0.213 0.972 0.213 0.005 0 0.010-0 0.016-0h-0.001c0.573-0.005 1.090-0.239 1.467-0.613 0.346-0.34 0.563-0.81 0.573-1.331-0.041-0.757-0.466-1.405-1.083-1.756-1.9-0.983-4.128-1.574-6.489-1.619l-0.214-0c-4.413 0-7.453 2.667-7.387 6.4v0c0 4.2 4.373 5.333 7.2 6.040s4.387 1.333 4.413 2.573v0.053c0.001 0.019 0.001 0.041 0.001 0.064 0 0.644-0.319 1.214-0.808 1.559-0.664 0.447-1.475 0.712-2.347 0.712-0.035 0-0.069-0-0.104-0.001l-0.128 0c-2.124-0.047-4.084-0.713-5.717-1.824-0.281-0.194-0.674-0.324-1.098-0.324-0.018 0-0.037 0-0.055 0.001l0.003-0c-0.038-0.003-0.082-0.004-0.127-0.004-1.105 0-2 0.895-2 2 0 0.695 0.355 1.308 0.893 1.666 2.235 1.489 4.967 2.386 7.906 2.418l0.208 0c4.64-0.080 7.747-2.813 7.747-6.667v0z"></path>
<path class="path5" fill="#fff" d="M52 10.667h-3.773c-0.003-0.070-0.004-0.152-0.004-0.234 0-1.773 0.709-3.38 1.859-4.553 0.652-0.677 1.455-1.206 2.356-1.532 1.092-0.13 1.901-1.011 1.901-2.082 0-1.149-0.931-2.080-2.080-2.080-0.412 0-0.796 0.12-1.119 0.326-1.562 0.523-2.902 1.374-3.991 2.474-1.945 1.913-3.15 4.572-3.15 7.513 0 0.083 0.001 0.165 0.003 0.247l-2.28-0.012c-1.075 0.089-1.914 0.983-1.914 2.073s0.839 1.984 1.906 2.073l2.288 0.001v14.827c0 1.156 0.937 2.093 2.093 2.093s2.093-0.937 2.093-2.093v-14.88h3.813c1.149 0 2.080-0.931 2.080-2.080s-0.931-2.080-2.080-2.080v0zM75.227 10.667c-0.112-0.004-0.243-0.007-0.375-0.007-5.817 0-10.533 4.716-10.533 10.533s4.716 10.533 10.533 10.533c0.132 0 0.263-0.002 0.394-0.007l-0.019 0.001c0.18 0.011 0.39 0.017 0.601 0.017 2.192 0 4.225-0.68 5.9-1.84 0.648-0.356 1.102-1.073 1.102-1.895 0-0.299-0.060-0.584-0.168-0.843-0.322-0.692-1.024-1.173-1.839-1.173-0.298 0-0.58 0.064-0.835 0.179l-0.094-0.005c-1.278 0.837-2.843 1.336-4.525 1.336-0.069 0-0.137-0.001-0.205-0.002 0.008 0 0.005 0 0.002 0-2.795 0-5.173-1.784-6.058-4.275l14.533-0.045c0.008 0 0.018 0 0.027 0 1.135 0 2.057-0.909 2.080-2.038l0-0.002c0-0.032 0.001-0.070 0.001-0.108 0-5.661-4.54-10.261-10.178-10.358l-0.396-0zM75.227 14.813c0.061-0.002 0.134-0.003 0.206-0.003 2.744 0 5.072 1.783 5.888 4.253l-12.267 0.044c0.915-2.516 3.285-4.28 6.067-4.28 0.005 0 0.009 0 0.014 0h-0.001zM117.44 10.667h-2.973v-8.333c0-1.156-0.937-2.093-2.093-2.093s-2.093 0.937-2.093 2.093v8.333h-3.080c-0.008-0-0.017-0-0.027-0-1.129 0-2.046 0.912-2.053 2.039v0.001c0.007 1.148 0.933 2.078 2.079 2.093h3.095v14.8c0 1.156 0.937 2.093 2.093 2.093s2.093-0.937 2.093-2.093v-14.72h2.973c0 0 0 0 0 0 1.159 0 2.099-0.936 2.107-2.093 0-0.013 0-0.027 0-0.041 0-1.149-0.931-2.080-2.080-2.080-0.005 0-0.010 0-0.014 0h0.001zM130.987 10.667c-0.028-0-0.061-0-0.094-0-5.802 0-10.513 4.673-10.573 10.461s-0 0.099-0 0.139c-0 0.016-0 0.035-0 0.053 0 5.707 4.626 10.333 10.333 10.333 0.005 0 0.009 0 0.014 0h0.346c0.091 0.003 0.197 0.005 0.304 0.005 2.244 0 4.303-0.792 5.913-2.111 0.042 1.122 0.908 2.012 2.002 2.106 0.028 0.001 0.052 0.002 0.076 0.002 1.096 0 1.989-0.87 2.026-1.958s0-0.097 0-0.15v-8.213c0.004-0.101 0.006-0.219 0.006-0.337 0-5.606-4.464-10.169-10.031-10.329l-0.375-0zM130.987 27.493c-0.052 0.002-0.114 0.002-0.176 0.002-3.452 0-6.262-2.751-6.358-6.18l-0-0.009c0.088-3.567 2.964-6.434 6.526-6.507 3.451 0.088 6.209 2.901 6.209 6.358 0 0.062-0.001 0.123-0.003 0.184 0 3.415-2.776 6.191-6.2 6.191v0z"></path>
</symbol>
<symbol id="icon-be_foodie" viewBox="0 0 156 32">
<title>be_fudie</title>
<path class="path1" fill="#d40066" d="M21.009 21.101c0 0.014 0 0.030 0 0.047 0 5.821-4.697 10.545-10.508 10.589-5.821-0.052-10.516-4.78-10.516-10.604 0-0.011 0-0.022 0-0.033v-19.059c0-1.148 0.931-2.079 2.079-2.079s2.079 0.931 2.079 2.079v10.558c1.738-1.35 3.95-2.164 6.352-2.164 0.006 0 0.012 0 0.018 0 5.81 0.026 10.511 4.743 10.511 10.558 0 0.027-0 0.054-0 0.082l0-0.004zM16.866 21.101c0.005-0.094 0.008-0.203 0.008-0.314 0-3.518-2.852-6.369-6.369-6.369s-6.369 2.852-6.369 6.369c0 0.11 0.003 0.22 0.008 0.329l-0.001-0.015c-0.005 0.094-0.008 0.203-0.008 0.314 0 3.518 2.852 6.369 6.369 6.369s6.369-2.852 6.369-6.369c0-0.11-0.003-0.22-0.008-0.329l0.001 0.015z"></path>
<path class="path2" fill="#d40066" d="M38.539 21.194c0 0 0 0.001 0 0.001 0 1.144-0.927 2.072-2.072 2.072-0.027 0-0.054-0.001-0.081-0.002l-14.388 0c0.87 2.547 3.238 4.348 6.028 4.359 0.025 0 0.053 0 0.080 0 1.701 0 3.28-0.52 4.587-1.41 0.242-0.128 0.565-0.215 0.907-0.215 0.817 0 1.519 0.491 1.827 1.194 0.109 0.261 0.169 0.549 0.169 0.852 0 0.842-0.468 1.575-1.157 1.953-1.637 1.159-3.66 1.848-5.845 1.848-0.215 0-0.429-0.007-0.642-0.020-5.849 0.001-10.614-4.764-10.614-10.642s4.765-10.643 10.643-10.643c0.042-0.001 0.092-0.001 0.142-0.001 5.729 0 10.373 4.644 10.373 10.373 0 0.093-0.001 0.185-0.004 0.277l0-0.014zM21.998 19.045h12.104c-0.813-2.531-3.146-4.331-5.9-4.331-0.062 0-0.123 0.001-0.185 0.003-2.773 0.012-5.135 1.797-6.006 4.283l-0.014 0.045z"></path>
<path class="path3" fill="#fff" d="M51.757 10.651h-3.741c-0.003-0.073-0.005-0.159-0.005-0.246 0-1.794 0.715-3.42 1.876-4.61 0.659-0.68 1.472-1.209 2.382-1.531 0.866-0.311 1.444-1.086 1.444-1.995 0-0.248-0.043-0.486-0.122-0.707-0.284-0.804-1.052-1.381-1.953-1.381-0.257 0-0.503 0.047-0.731 0.133-1.552 0.534-2.888 1.392-3.972 2.498-1.915 1.934-3.098 4.593-3.098 7.528 0 0.104 0.001 0.207 0.004 0.311l-2.366-0.015c-1.161 0-2.102 0.941-2.102 2.102s0.941 2.102 2.102 2.102h2.334v15.026c0 1.161 0.941 2.102 2.102 2.102s2.102-0.941 2.102-2.102v-15.011h3.741c1.165 0 2.11-0.945 2.11-2.11s-0.945-2.11-2.11-2.11v0zM64.433 32c5.891 0 10.667-4.776 10.667-10.667s-4.776-10.667-10.667-10.667c-5.891 0-10.667 4.776-10.667 10.667 0.009 5.887 4.779 10.658 10.666 10.667h0.001zM64.433 14.856c0.018-0 0.040-0 0.062-0 3.569 0 6.462 2.893 6.462 6.462s-2.893 6.462-6.462 6.462c-3.569 0-6.462-2.893-6.462-6.462s2.893-6.462 6.462-6.462v0zM88.286 32c5.891 0 10.667-4.776 10.667-10.667s-4.776-10.667-10.667-10.667c-5.891 0-10.667 4.776-10.667 10.667 0.009 5.887 4.779 10.658 10.666 10.667h0.001zM88.286 14.856c3.569 0 6.462 2.893 6.462 6.462s-2.893 6.462-6.462 6.462c-3.569 0-6.462-2.893-6.462-6.462s2.893-6.462 6.462-6.462v0zM112.139 10.558c-5.891 0-10.667 4.776-10.667 10.667s4.776 10.667 10.667 10.667c5.891 0 10.667-4.776 10.667-10.667v-19.076c0-1.161-0.941-2.102-2.102-2.102s-2.102 0.941-2.102 2.102v10.589c-1.768-1.36-4.014-2.18-6.451-2.18-0.004 0-0.008 0-0.011 0h0.001zM112.139 27.702c-3.569-0-6.462-2.893-6.462-6.462s2.893-6.462 6.462-6.462c3.552 0 6.435 2.867 6.462 6.413v0.003c0 0.014 0 0.030 0 0.046 0 3.569-2.893 6.462-6.462 6.462-0 0-0 0-0 0v0zM145.546 10.698c-5.895 0-10.674 4.779-10.674 10.674s4.779 10.674 10.674 10.674c0.187 0.012 0.406 0.019 0.627 0.019 2.211 0 4.261-0.69 5.946-1.865 0.679-0.354 1.157-1.091 1.157-1.939 0-0.308-0.063-0.6-0.176-0.866-0.321-0.704-1.032-1.194-1.858-1.194-0.348 0-0.675 0.087-0.961 0.24-1.291 0.876-2.896 1.402-4.623 1.402-0.045 0-0.089-0-0.134-0.001-0.010 0-0.030 0-0.050 0-2.825 0-5.227-1.808-6.113-4.33l14.657-0.045c0.009 0 0.020 0 0.031 0 1.156 0 2.094-0.933 2.102-2.086 0.001-0.061 0.002-0.132 0.002-0.204 0-5.78-4.686-10.466-10.466-10.466-0.071 0-0.143 0.001-0.214 0.002l0.011-0zM145.546 14.902c0.083-0.004 0.18-0.006 0.278-0.006 2.761 0 5.099 1.809 5.893 4.306l-12.247 0.044c0.919-2.552 3.319-4.344 6.138-4.344 0.016 0 0.032 0 0.048 0h-0.002z"></path>
<path class="path4" fill="#fff" d="M127.598 10.327c-0.43-0.379-0.701-0.931-0.701-1.546s0.27-1.167 0.698-1.544c0.394-0.407 0.942-0.658 1.548-0.658s1.155 0.251 1.545 0.656c0.402 0.394 0.65 0.941 0.65 1.547s-0.249 1.153-0.649 1.546c-0.403 0.38-0.947 0.613-1.546 0.613s-1.143-0.233-1.547-0.614z"></path>
<path class="path5" fill="#fff" d="M129.144 14.779c-0 0-0 0-0 0-1.187 0-2.149 0.962-2.149 2.149 0 0.005 0 0.011 0 0.016v11.655c0 1.204 0.976 2.18 2.18 2.18s2.18-0.976 2.18-2.18v-11.656c0-0 0-0 0-0 0-1.195-0.969-2.164-2.164-2.164-0.016 0-0.033 0-0.049 0.001z"></path>
</symbol>
<symbol id="icon-be_history" viewBox="0 0 118 32">
<title>be_history</title>
<path class="path1" fill="#2980b9" d="M21.593 8.24c-2.735 0.001-5.153 1.358-6.618 3.436-1.493-2.174-3.97-3.602-6.781-3.602-1.86 0-3.575 0.626-4.944 1.678l0.019-8.146c0-0.893-0.724-1.617-1.617-1.617s-1.617 0.724-1.617 1.617v14.647c0 0.004 0 0.008 0 0.012 0 4.51 3.639 8.169 8.14 8.203 2.719-0.005 5.12-1.346 6.585-3.4 1.493 2.155 3.957 3.569 6.751 3.569 0.028 0 0.056-0 0.084-0 0.136 0.009 0.299 0.014 0.463 0.014 1.695 0 3.265-0.534 4.551-1.444 0.518-0.278 0.88-0.843 0.88-1.494 0-0.233-0.046-0.455-0.131-0.657-0.241-0.536-0.782-0.91-1.41-0.91-0.282 0-0.546 0.075-0.773 0.207-0.983 0.671-2.207 1.074-3.524 1.074-0.021 0-0.043-0-0.064-0-2.156-0.007-3.989-1.397-4.657-3.331l11.127-0.035c0.004 0 0.008 0 0.012 0 0.886 0 1.605-0.718 1.605-1.605 0-0 0-0 0-0 0.001-0.057 0.002-0.124 0.002-0.192 0-4.431-3.592-8.024-8.024-8.024-0.022 0-0.044 0-0.066 0zM8.132 21.258c-2.721-0.013-4.923-2.223-4.923-4.946 0-0.021 0-0.042 0-0.063l-0 0.003c0.041-2.694 2.234-4.862 4.934-4.862 2.725 0 4.934 2.209 4.934 4.934s-2.209 4.934-4.934 4.934c-0.004 0-0.008 0-0.012 0zM16.862 14.814c0.692-1.968 2.534-3.353 4.7-3.353 0.011 0 0.022 0 0.032 0 0.040-0.001 0.089-0.002 0.138-0.002 2.129 0 3.933 1.389 4.557 3.309l-9.428 0.034z"></path>
<path class="path2" fill="#fff" d="M38.766 9.066c-0.008-0-0.018-0-0.027-0-1.364 0-2.631 0.411-3.686 1.117l0.024-7.201c0-0.833-0.676-1.509-1.509-1.509s-1.509 0.676-1.509 1.509v19.868c0 0.833 0.676 1.509 1.509 1.509s1.509-0.676 1.509-1.509v-7.066c0-2.044 1.657-3.701 3.701-3.701s3.701 1.657 3.701 3.701v7.066c-0 0.007-0 0.016-0 0.024 0 0.827 0.67 1.497 1.497 1.497 0 0 0 0 0 0 0.014 0 0.031 0.001 0.048 0.001 0.84 0 1.521-0.681 1.521-1.521 0-0 0-0.001 0-0.001v-7.066c-0.007-3.712-3.017-6.719-6.731-6.719-0.017 0-0.034 0-0.050 0h0.003zM74.048 9.066v-6.048c0-0.833-0.676-1.509-1.509-1.509s-1.509 0.676-1.509 1.509v6.048h-2.192c-0.827 0-1.497 0.67-1.497 1.497 0 0 0 0 0 0 0 0.832 0.667 1.507 1.496 1.521l2.193 0v10.778c0 0.833 0.676 1.509 1.509 1.509s1.509-0.676 1.509-1.509v-10.778h2.168c0.84 0 1.521-0.681 1.521-1.521 0-0 0-0 0-0 0-0.827-0.67-1.497-1.497-1.497-0.008 0-0.017 0-0.025 0l-2.166-0zM85.317 24.323c4.215-0.007 7.629-3.425 7.629-7.641 0-4.22-3.421-7.641-7.641-7.641-4.216 0-7.634 3.414-7.641 7.628 0 4.227 3.426 7.653 7.653 7.653v0zM85.317 12.048c0.004 0 0.008 0 0.012 0 2.56 0 4.635 2.075 4.635 4.635s-2.075 4.635-4.635 4.635c-2.56 0-4.635-2.075-4.635-4.635 0-0.004 0-0.008 0-0.012 0-2.553 2.070-4.623 4.623-4.623 0 0 0 0 0 0v0zM102.419 9.066c-4.226 0-7.653 3.426-7.653 7.653v6.12c0 0.833 0.676 1.509 1.509 1.509s1.509-0.676 1.509-1.509v-6.084c0-2.56 2.075-4.635 4.635-4.635 0.837-0.007 1.514-0.684 1.521-1.52 0-0.011 0-0.024 0-0.037 0-0.827-0.67-1.497-1.497-1.497-0.009 0-0.017 0-0.026 0l0.001-0zM115.006 10.695v7.557c0 1.733-1.405 3.138-3.138 3.138s-3.138-1.405-3.138-3.138v-7.557c-0.071-0.767-0.711-1.363-1.491-1.363s-1.42 0.596-1.491 1.357l-0 7.587c0.020 3.367 2.751 6.089 6.119 6.096 0.012 0 0.026 0 0.039 0 1.144 0 2.213-0.316 3.126-0.866l-0.027 2.207c-0.007 1.801-1.468 3.258-3.269 3.258-0.008 0-0.017-0-0.025-0-1.286-0.003-2.401-0.74-2.948-1.814-0.25-0.521-0.756-0.862-1.34-0.862-0.235 0-0.456 0.055-0.653 0.152-0.503 0.241-0.85 0.755-0.85 1.35 0 0.239 0.056 0.466 0.156 0.666 1.026 2.142 3.185 3.602 5.685 3.602 3.472 0 6.287-2.815 6.287-6.287 0-0.023-0-0.046-0-0.069l0-15.014c0-0.84-0.681-1.521-1.521-1.521s-1.521 0.681-1.521 1.521z"></path>
<path class="path3" fill="#fff" d="M48.898 8.156c-0.323-0.299-0.525-0.725-0.525-1.198s0.202-0.899 0.524-1.197c0.308-0.306 0.732-0.494 1.199-0.494s0.89 0.188 1.198 0.493c0.302 0.308 0.488 0.731 0.488 1.197s-0.186 0.889-0.489 1.198c-0.315 0.286-0.736 0.461-1.197 0.461s-0.882-0.175-1.199-0.463z"></path>
<path class="path4" fill="#fff" d="M50.084 11.689c-0.004-0-0.008-0-0.012-0-0.939 0-1.701 0.761-1.701 1.701 0 0.004 0 0.008 0 0.013v9.233c0 0.952 0.772 1.725 1.725 1.725s1.725-0.772 1.725-1.725v-9.234c0-0 0-0 0-0 0-0.946-0.767-1.713-1.713-1.713-0.008 0-0.017 0-0.025 0z"></path>
<path class="path5" fill="#fff" d="M65.904 19.461c0-3.102-3.258-3.976-5.162-4.503v0c-1.701-0.467-3.305-0.922-3.317-1.832v0c-0.001-0.014-0.001-0.029-0.001-0.045 0-0.406 0.202-0.766 0.512-0.982 0.456-0.372 1.032-0.607 1.662-0.637l0.090-0c1.274 0.043 2.457 0.398 3.486 0.989l-0.036-0.019c0.21 0.098 0.457 0.156 0.716 0.156 0.005 0 0.010-0 0.015-0h-0.001c0.421-0.006 0.801-0.179 1.078-0.455 0.259-0.258 0.419-0.615 0.419-1.010 0-0.007-0-0.014-0-0.021-0.021-0.588-0.362-1.093-0.853-1.348-1.402-0.728-3.045-1.167-4.788-1.202l-0.119-0c-3.258 0-5.497 1.988-5.449 4.707v0c0 3.090 3.222 3.904 5.317 4.455s3.234 0.994 3.245 1.892v0.24c0 0.013 0.001 0.027 0.001 0.042 0 0.476-0.235 0.896-0.595 1.152-0.492 0.334-1.094 0.531-1.742 0.531-0.025 0-0.049-0-0.074-0.001l-0.116 0c-1.568-0.035-3.014-0.527-4.219-1.347-0.214-0.165-0.517-0.276-0.846-0.282l-0.001-0c-0.008-0-0.018-0-0.027-0-0.814 0-1.473 0.66-1.473 1.473 0 0.507 0.256 0.953 0.645 1.219 1.642 1.094 3.648 1.755 5.805 1.788l0.164 0c3.389 0 5.713-2.072 5.665-4.91v0z"></path>
</symbol>
<symbol id="icon-be_enspired" viewBox="0 0 138 32">
<title>be_inspirit</title>
<path class="path1" fill="#fff" d="M38.005 15.964v6.417c0 0.871 0.706 1.577 1.577 1.577s1.577-0.706 1.577-1.577v-6.417c0-2.68 2.172-4.852 4.852-4.852s4.852 2.172 4.852 4.852v6.417c0 0.874 0.709 1.583 1.583 1.583s1.583-0.709 1.583-1.583v-6.417c0.004-0.093 0.006-0.202 0.006-0.312 0-4.428-3.59-8.018-8.018-8.018s-8.018 3.59-8.018 8.018c0 0.11 0.002 0.219 0.007 0.327zM78.496 24.103c4.428 0 8.018-3.59 8.018-8.018s-3.59-8.018-8.018-8.018c-4.428 0-8.018 3.59-8.018 8.018v14.338c0 0.874 0.709 1.583 1.583 1.583s1.583-0.709 1.583-1.583v-7.945c1.326 1.014 3.008 1.625 4.832 1.625 0.007 0 0.014 0 0.022-0h-0.001zM78.496 11.233c2.68 0 4.852 2.172 4.852 4.852s-2.172 4.852-4.852 4.852c-2.68 0-4.852-2.172-4.852-4.852v0c0-2.68 2.172-4.852 4.852-4.852v0zM94.265 15.988v6.417c0 0.874 0.709 1.583 1.583 1.583s1.583-0.709 1.583-1.583v-6.405c0-2.68 2.172-4.852 4.852-4.852 0.884 0 1.601-0.717 1.601-1.601-0.007-0.866-0.71-1.565-1.577-1.565-0.009 0-0.017 0-0.026 0-4.427-0-8.017 3.59-8.017 8.018zM111.794 7.933c-4.292 0.172-7.706 3.693-7.706 8.012s3.414 7.84 7.691 8.012c0.157 0.010 0.322 0.015 0.488 0.015 1.661 0 3.2-0.518 4.466-1.402 0.481-0.274 0.816-0.812 0.816-1.429 0-0.218-0.042-0.425-0.118-0.616-0.238-0.532-0.774-0.904-1.396-0.904-0.26 0-0.505 0.065-0.719 0.179-0.969 0.658-2.174 1.052-3.471 1.052-0.035 0-0.070-0-0.104-0.001 0.004 0 0.002 0 0.001 0-2.12 0-3.922-1.359-4.583-3.253l11.004-0.034c0 0 0 0 0 0 0.871 0 1.577-0.706 1.577-1.577 0-0.009-0-0.017-0-0.026 0.001-0.046 0.002-0.102 0.002-0.158 0-4.341-3.519-7.861-7.861-7.861-0.056 0-0.112 0.001-0.168 0.002l0.008-0zM111.794 11.087c0.054-0.002 0.116-0.003 0.18-0.003 2.078 0 3.839 1.357 4.445 3.233l-9.258 0.033c0.678-1.916 2.474-3.263 4.585-3.263 0.005 0 0.009 0 0.014 0h-0.001zM129.771 7.861c-4.428 0-8.018 3.59-8.018 8.018s3.59 8.018 8.018 8.018c4.428 0 8.018-3.59 8.018-8.018v-14.314c0-0.874-0.709-1.583-1.583-1.583s-1.583 0.709-1.583 1.583v7.958c-1.325-1.014-3.005-1.625-4.828-1.625-0.009 0-0.017 0-0.026 0h0.001zM129.771 20.731c-2.68 0-4.852-2.172-4.852-4.852s2.172-4.852 4.852-4.852c2.68 0 4.852 2.172 4.852 4.852v0c0 2.68-2.172 4.852-4.852 4.852v0z"></path>
<path class="path2" fill="#fff" d="M33.055 7.4c-0.327-0.302-0.532-0.734-0.532-1.213s0.204-0.911 0.531-1.212c0.312-0.31 0.741-0.501 1.214-0.501s0.902 0.191 1.213 0.5c0.306 0.312 0.495 0.741 0.495 1.213s-0.189 0.901-0.495 1.213c-0.319 0.29-0.745 0.467-1.213 0.467s-0.894-0.178-1.215-0.469z"></path>
<path class="path3" fill="#fff" d="M34.244 10.978c-0.004-0-0.008-0-0.012-0-0.951 0-1.723 0.771-1.723 1.723 0 0.004 0 0.009 0 0.013v9.352c0 0.965 0.782 1.747 1.747 1.747s1.747-0.782 1.747-1.747v-9.353c0-0 0-0 0-0 0-0.958-0.777-1.735-1.735-1.735-0.009 0-0.017 0-0.026 0z"></path>
<path class="path4" fill="#fff" d="M88.916 7.4c-0.327-0.302-0.532-0.734-0.532-1.213s0.204-0.911 0.531-1.212c0.312-0.31 0.741-0.501 1.214-0.501s0.902 0.191 1.213 0.5c0.306 0.312 0.495 0.741 0.495 1.213s-0.189 0.901-0.495 1.213c-0.32 0.287-0.746 0.463-1.213 0.463s-0.893-0.176-1.215-0.465z"></path>
<path class="path5" fill="#fff" d="M90.117 10.978c-0.004-0-0.008-0-0.012-0-0.951 0-1.723 0.771-1.723 1.723 0 0.004 0 0.009 0 0.013v9.352c0 0.965 0.782 1.747 1.747 1.747s1.747-0.782 1.747-1.747v-9.353c0-0 0-0 0-0 0-0.958-0.777-1.735-1.735-1.735-0.009 0-0.017 0-0.026 0z"></path>
<path class="path6" fill="#fff" d="M68.537 19.020c0-3.142-3.299-4.039-5.228-4.561v0c-1.723-0.473-3.336-0.922-3.36-1.844v-0.085c-0-0.011-0.001-0.025-0.001-0.038 0-0.417 0.21-0.784 0.53-1.003 0.463-0.322 1.033-0.513 1.647-0.513 0.024 0 0.048 0 0.071 0.001l0.081-0c1.291 0.044 2.488 0.403 3.531 1.002l-0.037-0.020c0.213 0.1 0.462 0.158 0.725 0.158 0.005 0 0.010-0 0.015-0h-0.001c0.427-0.005 0.812-0.18 1.092-0.461 0.262-0.26 0.425-0.62 0.425-1.018 0-0.009-0-0.018-0-0.027-0.022-0.596-0.367-1.107-0.864-1.365-1.42-0.736-3.085-1.181-4.849-1.217l-0.169-0c-3.299 0-5.556 2.014-5.507 4.767v0c0 3.13 3.263 3.954 5.386 4.5s3.275 1.007 3.287 1.917v0.109c0 0.013 0.001 0.028 0.001 0.043 0 0.482-0.238 0.908-0.603 1.167-0.496 0.338-1.104 0.538-1.758 0.538-0.028 0-0.055-0-0.082-0.001l-0.142 0c-1.588-0.035-3.053-0.533-4.273-1.364-0.209-0.142-0.501-0.238-0.815-0.238-0.015 0-0.030 0-0.046 0.001l0.002-0c-0.008-0-0.018-0-0.028-0-0.824 0-1.492 0.668-1.492 1.492 0 0.513 0.259 0.966 0.653 1.234 1.663 1.108 3.695 1.779 5.88 1.811l0.166 0c3.433 0 5.786-2.099 5.738-4.973v0z"></path>
<path class="path7" fill="#ff8b00" d="M21.823 8.406c-2.77 0.001-5.219 1.376-6.703 3.48-1.511-2.213-4.026-3.669-6.882-3.669-1.868 0-3.59 0.623-4.971 1.672l0.020-8.263c0-0.898-0.728-1.625-1.625-1.625s-1.625 0.728-1.625 1.625v14.872c0 0.004 0 0.008 0 0.012 0 4.568 3.686 8.275 8.245 8.309 2.776-0.004 5.225-1.383 6.706-3.492 1.515 2.181 4.013 3.613 6.845 3.613 0.009 0 0.018 0 0.027-0 0.14 0.009 0.306 0.014 0.472 0.014 1.717 0 3.307-0.541 4.61-1.462 0.525-0.282 0.891-0.854 0.891-1.513 0-0.236-0.047-0.46-0.132-0.665-0.242-0.55-0.793-0.935-1.433-0.935-0.268 0-0.521 0.068-0.742 0.187-0.995 0.68-2.234 1.088-3.569 1.088-0.022 0-0.044-0-0.065-0-2.184-0.007-4.041-1.415-4.717-3.373l11.319-0.035c0.004 0 0.008 0 0.012 0 0.898 0 1.625-0.728 1.625-1.625 0-0 0-0 0-0 0-0.026 0-0.056 0-0.087 0-4.489-3.639-8.127-8.127-8.127-0.064 0-0.128 0.001-0.192 0.002zM8.249 21.531c-2.746-0.027-4.961-2.26-4.961-5.010 0-0.009 0-0.017 0-0.026v0.001c0.021-2.744 2.25-4.961 4.998-4.961 2.76 0 4.998 2.238 4.998 4.998s-2.238 4.998-4.998 4.998c-0.013 0-0.025-0-0.038-0zM17.092 15.005c0.698-1.981 2.55-3.377 4.73-3.384 0.043-0.001 0.093-0.002 0.143-0.002 2.156 0 3.984 1.406 4.616 3.352l-9.488 0.034z"></path>
</symbol>
<symbol id="icon-be_power" viewBox="0 0 118 32">
<title>be_power-1</title>
<path class="path1" fill="#fff" d="M40.070 24.076c4.463 0 8.082-3.618 8.082-8.082s-3.618-8.082-8.082-8.082c-4.463 0-8.082 3.618-8.082 8.082v14.431c0.074 0.821 0.759 1.46 1.593 1.46s1.52-0.639 1.593-1.454l0-8.027c1.33 1.020 3.015 1.638 4.844 1.648h0.002zM40.070 11.099c2.676 0 4.846 2.17 4.846 4.847s-2.17 4.847-4.847 4.847c-2.647 0-4.798-2.122-4.846-4.757l-0-0.004c0-2.677 2.17-4.847 4.847-4.847v0zM58.245 23.955c4.437-0.034 8.021-3.639 8.021-8.082 0-4.463-3.618-8.082-8.082-8.082-4.451 0-8.061 3.598-8.082 8.043 0.007 4.463 3.621 8.077 8.081 8.084h0.001zM58.245 10.978c2.677 0 4.847 2.17 4.847 4.847s-2.17 4.847-4.847 4.847c-2.677 0-4.847-2.17-4.847-4.847s2.17-4.847 4.847-4.847v0zM88.536 7.949c-0.169-0.067-0.365-0.106-0.57-0.106-0.68 0-1.26 0.427-1.486 1.028l-3.421 8.965-3.344-8.93c-0.14-0.463-0.483-0.826-0.923-0.99-0.019 0.002-0.030 0.005-0.041 0.005s-0.022-0.003-0.031-0.008l-0.072 0c-0.010-0.006-0.023-0.010-0.036-0.010s-0.026 0.004-0.037 0.010l-0.060-0h-0.376c-0.175 0.001-0.341 0.036-0.493 0.1-0.452 0.162-0.807 0.524-0.958 0.979l-3.359 8.929-3.381-9.075c-0.218-0.609-0.791-1.038-1.463-1.038-0.201 0-0.394 0.038-0.57 0.108-0.603 0.221-1.032 0.8-1.032 1.479 0 0.208 0.040 0.406 0.113 0.588l4.843 12.869c0.226 0.627 0.816 1.066 1.508 1.066 0.002 0 0.005 0 0.007 0 0.686-0.025 1.267-0.447 1.522-1.043l3.324-8.929 3.344 8.918c0.226 0.627 0.816 1.066 1.508 1.066 0.002 0 0.005 0 0.007 0 0.698-0.017 1.291-0.447 1.546-1.055l4.851-12.891c0.061-0.163 0.096-0.352 0.096-0.549 0-0.683-0.421-1.267-1.018-1.507l-0.011-0.004zM98.229 7.791c-4.467 0-8.088 3.621-8.088 8.088s3.621 8.088 8.088 8.088c0.12 0.006 0.259 0.010 0.4 0.010 1.702 0 3.279-0.539 4.568-1.456 0.526-0.268 0.896-0.833 0.896-1.485 0-0.214-0.040-0.418-0.113-0.607-0.24-0.535-0.779-0.908-1.405-0.908-0.265 0-0.514 0.067-0.732 0.185-0.978 0.665-2.195 1.063-3.504 1.063-0.043 0-0.086-0-0.129-0.001-0.006 0-0.020 0-0.034 0-2.131 0-3.94-1.375-4.59-3.286l11.101-0.034c0.007 0 0.016 0 0.024 0 0.872 0 1.58-0.704 1.587-1.575 0.001-0.044 0.001-0.096 0.001-0.147 0-4.383-3.553-7.936-7.936-7.936-0.052 0-0.103 0-0.154 0.001l0.008-0zM98.229 10.978c0.051-0.002 0.112-0.003 0.173-0.003 2.094 0 3.868 1.365 4.483 3.253l-9.272 0.033c0.695-1.929 2.509-3.284 4.639-3.284 0 0 0.001 0 0.001 0h-0zM116.404 7.827c-4.461 0.007-8.075 3.621-8.082 8.081v6.471c-0.004 0.042-0.006 0.090-0.006 0.139 0 0.883 0.716 1.599 1.599 1.599s1.599-0.716 1.599-1.599c0-0.049-0.002-0.097-0.007-0.145l0-6.513c0-2.677 2.17-4.847 4.847-4.847 0.89 0 1.612-0.722 1.612-1.611-0.007-0.871-0.715-1.575-1.587-1.575-0.009 0-0.017 0-0.026 0l0.001-0z"></path>
<path class="path2" fill="#19ad44" d="M21.798 8.324c-2.767 0.001-5.213 1.374-6.695 3.476-1.511-2.195-4.015-3.637-6.855-3.637-1.885 0-3.621 0.635-5.007 1.702l0.019-8.241c0-0.897-0.727-1.624-1.624-1.624s-1.624 0.727-1.624 1.624v14.855c0 0.004 0 0.008 0 0.012 0 4.563 3.682 8.265 8.236 8.3 2.776-0.002 5.227-1.38 6.711-3.488 1.513 2.179 4.008 3.609 6.837 3.609 0.009 0 0.018 0 0.027-0 0.149 0.010 0.325 0.016 0.503 0.016 1.686 0 3.25-0.523 4.539-1.415 0.522-0.281 0.889-0.853 0.889-1.51 0-0.235-0.047-0.46-0.132-0.665-0.241-0.549-0.792-0.934-1.432-0.934-0.268 0-0.521 0.068-0.741 0.187-0.993 0.679-2.229 1.087-3.561 1.087-0.023 0-0.046-0-0.069-0-2.181-0.007-4.036-1.414-4.711-3.37l11.306-0.035c0.004 0 0.008 0 0.012 0 0.897 0 1.624-0.727 1.624-1.624 0-0 0-0 0-0 0.002-0.062 0.003-0.134 0.003-0.207 0-4.484-3.635-8.118-8.118-8.118-0.048 0-0.095 0-0.143 0.001zM8.239 21.507c-2.759-0.007-4.992-2.245-4.992-5.004 0-0.009 0-0.017 0-0.026v0.001c0.021-2.741 2.248-4.956 4.992-4.956 2.757 0 4.992 2.235 4.992 4.992s-2.235 4.992-4.992 4.992zM17.072 14.988c0.697-1.979 2.548-3.373 4.725-3.381 0.043-0.001 0.093-0.002 0.142-0.002 2.154 0 3.98 1.405 4.611 3.348l-9.478 0.034z"></path>
</symbol>
<symbol id="icon-be_splendid" viewBox="0 0 142 32">
<title>be_splendid</title>
<path class="path1" fill="#e74c3c" d="M21.278 8.142c-2.703 0.001-5.092 1.342-6.539 3.395-1.473-2.147-3.918-3.557-6.693-3.557-1.842 0-3.539 0.622-4.893 1.667l0.019-8.061c0-0.876-0.71-1.586-1.586-1.586s-1.586 0.71-1.586 1.586v14.509c0 0.004 0 0.008 0 0.012 0 4.456 3.596 8.073 8.044 8.106 2.712-0.002 5.106-1.348 6.554-3.407 1.476 2.128 3.91 3.525 6.672 3.525 0.007 0 0.014 0 0.021-0 0.141 0.009 0.306 0.014 0.473 0.014 1.669 0 3.216-0.524 4.486-1.416 0.511-0.274 0.869-0.833 0.869-1.476 0-0.23-0.046-0.449-0.129-0.649-0.237-0.534-0.773-0.907-1.396-0.907-0.258 0-0.501 0.064-0.714 0.177-0.971 0.663-2.18 1.061-3.482 1.061-0.021 0-0.042-0-0.064-0-2.131-0.007-3.942-1.381-4.602-3.291l11.043-0.034c0.004 0 0.008 0 0.012 0 0.876 0 1.586-0.71 1.586-1.586 0 0 0-0 0-0 0.001-0.046 0.002-0.101 0.002-0.156 0-4.379-3.55-7.929-7.929-7.929-0.059 0-0.117 0.001-0.176 0.002zM8.036 21.018c-2.689-0.013-4.864-2.197-4.864-4.888 0-0.008 0-0.017 0-0.025v0.001c0.020-2.677 2.195-4.84 4.876-4.84 2.693 0 4.876 2.183 4.876 4.876s-2.183 4.876-4.876 4.876c-0.004 0-0.008 0-0.012 0zM16.663 14.651c0.681-1.933 2.488-3.294 4.614-3.302 0.035-0.001 0.075-0.001 0.116-0.001 2.103 0 3.886 1.372 4.503 3.27l-9.233 0.034z"></path>
<path class="path2" fill="#fff" d="M52.817 24.343c4.289-0.007 7.763-3.485 7.763-7.775 0-4.294-3.481-7.775-7.775-7.775s-7.775 3.481-7.775 7.775v13.917c0.072 0.79 0.73 1.404 1.533 1.404s1.461-0.614 1.532-1.398l0-7.757c1.291 0.99 2.929 1.586 4.706 1.586 0.010 0 0.020-0 0.029-0h-0.002zM52.817 11.846c2.614 0 4.734 2.119 4.734 4.734s-2.119 4.734-4.734 4.734c-2.614 0-4.734-2.119-4.734-4.734v0c0-2.614 2.119-4.734 4.734-4.734v0zM63.882 24.249c0.834-0.007 1.508-0.681 1.515-1.514v-20.119c-0.072-0.79-0.73-1.404-1.533-1.404s-1.461 0.614-1.532 1.398l-0 20.124c-0 0.004-0 0.008-0 0.012 0 0.85 0.689 1.538 1.538 1.538 0.004 0 0.008-0 0.013-0h-0.001zM67.254 16.438c0.142 4.326 3.684 7.779 8.031 7.779 0.089 0 0.177-0.001 0.265-0.004 0.133 0.009 0.304 0.015 0.475 0.015 1.701 0 3.285-0.504 4.609-1.371 0.514-0.235 0.886-0.78 0.886-1.411 0-0.223-0.046-0.434-0.13-0.626-0.267-0.528-0.816-0.89-1.448-0.89-0.288 0-0.558 0.075-0.793 0.207-1.004 0.635-2.236 1.015-3.556 1.015-0.041 0-0.081-0-0.122-0.001-0.014 0-0.037 0.001-0.060 0.001-2.113 0-3.921-1.31-4.655-3.162l11.361-0.034c0.022 0.001 0.047 0.002 0.072 0.002 0.849 0 1.541-0.672 1.573-1.514 0-5.056-4.272-7.778-8.284-7.778-0.064-0.002-0.14-0.003-0.216-0.003-4.343 0-7.878 3.455-8.008 7.766zM75.538 11.704c0.091-0.006 0.198-0.009 0.306-0.009 2.106 0 3.908 1.297 4.653 3.135l-9.929 0.034c0.823-1.875 2.663-3.161 4.804-3.161 0.046 0 0.092 0.001 0.138 0.002l-0.007-0zM93.361 8.663c-4.291 0.007-7.768 3.484-7.775 7.774v6.226c-0.004 0.040-0.006 0.087-0.006 0.135 0 0.85 0.689 1.538 1.538 1.538s1.538-0.689 1.538-1.538c0-0.047-0.002-0.094-0.006-0.141l0-6.219c0-2.614 2.119-4.734 4.734-4.734s4.734 2.119 4.734 4.734v6.225c-0.004 0.040-0.006 0.087-0.006 0.135 0 0.85 0.689 1.538 1.538 1.538s1.538-0.689 1.538-1.538c0-0.047-0.002-0.094-0.006-0.141l0-6.219c-0.007-4.296-3.49-7.775-7.787-7.775-0.013 0-0.025 0-0.037 0h0.002zM110.781 8.604c-4.294 0-7.775 3.481-7.775 7.775s3.481 7.775 7.775 7.775c4.294 0 7.775-3.481 7.775-7.775v-13.917c-0.072-0.79-0.73-1.404-1.533-1.404s-1.461 0.614-1.532 1.398l-0 7.722c-1.291-0.99-2.929-1.586-4.706-1.586-0.010 0-0.020 0-0.029 0h0.001zM110.781 21.101c-2.614 0-4.734-2.119-4.734-4.734s2.119-4.734 4.734-4.734c2.614 0 4.734 2.119 4.734 4.734v0c0 2.614-2.119 4.734-4.734 4.734v0zM126.296 16.367c0 4.297 3.484 7.781 7.781 7.781s7.781-3.484 7.781-7.781v-13.905c-0.072-0.79-0.73-1.404-1.533-1.404s-1.461 0.614-1.532 1.398l-0 7.722c-1.286-0.973-2.912-1.559-4.675-1.559-4.291 0-7.772 3.471-7.787 7.759zM134.083 21.101c-2.614 0-4.734-2.119-4.734-4.734s2.119-4.734 4.734-4.734c2.614 0 4.734 2.119 4.734 4.734v0c0 2.614-2.119 4.734-4.734 4.734v0z"></path>
<path class="path3" fill="#fff" d="M121.207 8.343c-0.31-0.288-0.503-0.699-0.503-1.154s0.193-0.866 0.502-1.153c0.301-0.311 0.72-0.503 1.184-0.503s0.884 0.192 1.183 0.502c0.29 0.298 0.468 0.706 0.468 1.154s-0.178 0.856-0.468 1.154c-0.308 0.29-0.725 0.469-1.183 0.469s-0.875-0.178-1.184-0.47z"></path>
<path class="path4" fill="#fff" d="M122.355 11.74c-0.909 0-1.645 0.736-1.645 1.645v8.888c0 0.918 0.744 1.663 1.663 1.663s1.663-0.744 1.663-1.663v-8.876c0-0 0-0 0-0 0-0.909-0.736-1.645-1.645-1.645-0.012 0-0.025 0-0.037 0z"></path>
<path class="path5" fill="#fff" d="M43.55 19.314c0-3.16-3.314-4.059-5.254-4.58v0c-1.728-0.473-3.361-0.935-3.373-1.858v0c-0.006-0.046-0.009-0.1-0.009-0.155 0-0.393 0.178-0.745 0.457-0.98 0.461-0.321 1.031-0.512 1.645-0.512 0.030 0 0.060 0 0.090 0.001l0.078-0c1.31 0.037 2.528 0.397 3.588 1.002l-0.038-0.020c0.216 0.105 0.47 0.166 0.738 0.166 0.003 0 0.005 0 0.008-0h-0c0.43-0.005 0.818-0.18 1.101-0.462 0.27-0.257 0.441-0.617 0.45-1.016-0.023-0.599-0.369-1.111-0.867-1.37-1.433-0.73-3.111-1.165-4.889-1.188l-0.15-0c-3.314 0-5.586 2.024-5.538 4.793v0c0 3.148 3.278 3.976 5.408 4.533s3.29 1.006 3.302 1.929v0.059c0 0.002 0 0.005 0 0.007 0 0.485-0.241 0.914-0.611 1.173-0.503 0.344-1.119 0.548-1.782 0.548-0.020 0-0.040-0-0.060-0.001l-0.104 0c-1.593-0.035-3.063-0.534-4.288-1.367-0.212-0.146-0.507-0.243-0.826-0.243-0.012 0-0.024 0-0.036 0l0.002-0c-0.006-0-0.012-0-0.019-0-0.83 0-1.503 0.673-1.503 1.503 0 0.514 0.258 0.968 0.653 1.239 1.674 1.112 3.717 1.783 5.914 1.814l0.103 0c3.444-0.059 5.822-2.107 5.775-4.994v0z"></path>
</symbol>
<symbol id="icon-be_2be" viewBox="0 0 103 32">
<title>be2be</title>
<path class="path1" fill="#af7ac4" d="M27.644 10.605c-3.515 0.001-6.623 1.746-8.505 4.415-1.921-2.779-5.097-4.604-8.698-4.604-2.385 0-4.583 0.8-6.34 2.146l0.025-10.5c0-1.156-0.937-2.093-2.093-2.093s-2.093 0.937-2.093 2.093v18.886c0 0.005 0 0.010 0 0.016 0 5.796 4.677 10.5 10.462 10.543 0.004 0 0.005 0 0.005 0 3.523 0 6.637-1.751 8.52-4.431 1.923 2.768 5.092 4.584 8.686 4.584 0.012 0 0.023-0 0.035-0 0.177 0.011 0.385 0.018 0.595 0.018 2.18 0 4.199-0.687 5.854-1.855 0.665-0.357 1.131-1.084 1.131-1.919 0-0.299-0.060-0.584-0.168-0.844-0.307-0.698-1.006-1.187-1.819-1.187-0.341 0-0.661 0.086-0.941 0.237-1.261 0.863-2.832 1.381-4.524 1.381-0.029 0-0.058-0-0.088-0-2.771-0.009-5.127-1.796-5.985-4.28l14.363-0.045c0.005 0 0.010 0 0.015 0 1.139 0 2.063-0.923 2.063-2.063 0-0 0-0 0-0 0.001-0.055 0.002-0.121 0.002-0.186 0-5.696-4.617-10.313-10.313-10.313-0.066 0-0.131 0.001-0.196 0.002zM10.451 27.336c-3.498-0.017-6.326-2.857-6.326-6.357 0-0.011 0-0.022 0-0.033v0.002c0.026-3.482 2.855-6.295 6.341-6.295 3.502 0 6.342 2.839 6.342 6.341s-2.839 6.341-6.341 6.341c-0.005 0-0.011 0-0.016-0zM21.672 19.055c0.882-2.504 3.218-4.271 5.969-4.294 0.088-0.004 0.188-0.007 0.289-0.007 2.738 0 5.058 1.787 5.858 4.257l-12.117 0.044z"></path>
<path class="path2" fill="#fff" d="M54.38 28.029h-8.974l9.943-12.575c0.733-1.105 1.169-2.461 1.169-3.92 0-1.103-0.249-2.147-0.695-3.080-0.813-1.989-2.366-3.582-4.315-4.446-1.054-0.471-2.223-0.734-3.453-0.734-2.339 0-4.457 0.949-5.989 2.483l-0 0c-1.46 1.441-2.369 3.437-2.386 5.646 0.017 1.12 0.927 2.020 2.047 2.020 0 0 0 0 0 0 0.009 0 0.020 0 0.031 0 1.114 0 2.016-0.903 2.016-2.016 0-0 0-0 0-0 0.037-1.467 0.82-2.744 1.983-3.468 0.662-0.412 1.445-0.651 2.283-0.651 2.389 0 4.325 1.936 4.325 4.325 0 0.687-0.16 1.336-0.445 1.913l-11.964 15.12c-0.321 0.376-0.521 0.864-0.539 1.397-0 0.013-0 0.024-0 0.035 0 1.071 0.868 1.939 1.939 1.939 0.011 0 0.022-0 0.033-0l13.035 0c0.009 0 0.020 0 0.031 0 1.071 0 1.939-0.868 1.939-1.939 0-0.011-0-0.022-0-0.033 0-0.008 0-0.018 0-0.029 0-1.088-0.882-1.97-1.97-1.97-0 0-0 0-0 0v0zM69.926 11.359c-2.327 0.012-4.467 0.797-6.181 2.111l0.024-10.161c0-1.122-0.91-2.032-2.032-2.032s-2.032 0.91-2.032 2.032v18.47c0 5.679 4.603 10.282 10.282 10.282s10.282-4.603 10.282-10.282c0-5.679-4.603-10.282-10.282-10.282v0zM69.926 27.875c-3.4 0-6.157-2.756-6.157-6.157v0c0.061-3.354 2.793-6.049 6.156-6.049 3.4 0 6.157 2.757 6.157 6.157s-2.756 6.156-6.156 6.157h-0zM92.598 11.436c-5.683 0-10.29 4.607-10.29 10.29s4.607 10.29 10.29 10.29c0.184 0.012 0.398 0.019 0.614 0.019 2.13 0 4.105-0.663 5.729-1.795 0.654-0.344 1.113-1.055 1.113-1.873 0-0.294-0.059-0.573-0.166-0.828-0.305-0.68-0.989-1.154-1.784-1.154-0.337 0-0.653 0.085-0.93 0.235-1.246 0.844-2.794 1.351-4.461 1.351-0.052 0-0.103-0-0.154-0.001-2.71-0.006-5.020-1.747-5.874-4.174l14.116-0.044c0.023 0.001 0.050 0.002 0.077 0.002 1.098 0 1.991-0.877 2.016-1.969 0.002-0.076 0.003-0.163 0.003-0.251 0-5.576-4.521-10.097-10.097-10.097-0.071 0-0.143 0.001-0.214 0.002l0.011-0zM92.598 15.5c0.069-0.003 0.149-0.004 0.23-0.004 2.665 0 4.924 1.741 5.7 4.149l-11.825 0.042c0.881-2.455 3.186-4.18 5.894-4.187h0.001z"></path>
</symbol>
<symbol id="icon-logo" viewBox="0 0 72 32">
<title>logo</title>
<path class="path1" fill="#1cbcff" d="M10.556 11.293c-0.013-0-0.028-0-0.043-0-1.358 0-2.461 1.093-2.477 2.448v0.025c-0 0.014-0 0.031-0 0.048 0 1.392 1.128 2.52 2.52 2.52s2.52-1.128 2.52-2.52c0-1.392-1.128-2.52-2.52-2.52z"></path>
<path class="path2" fill="#1cbcff" d="M13.646 0c-7.513-0.024-13.623 5.92-13.646 13.266-0.024 7.275 5.944 13.218 13.361 13.337v1.949l10.223-6.704c2.092-2.591 3.614-5.373 3.637-8.511 0.024-7.346-6.062-13.314-13.575-13.337v0zM20.826 14.574h-5.73c0.363 0.979 1.289 1.664 2.375 1.664 0.001 0 0.002 0 0.002 0 0.023 0.001 0.050 0.001 0.077 0.001 0.664 0 1.28-0.205 1.788-0.555 0.096-0.050 0.223-0.084 0.358-0.084 0.322 0 0.598 0.191 0.723 0.466 0.192 0.409-0.022 0.837-0.402 1.075-0.643 0.437-1.437 0.697-2.291 0.697-0.089 0-0.177-0.003-0.265-0.008 0.010 0.001 0.007 0.001 0.004 0.001-1.433 0-2.698-0.719-3.454-1.817-0.772 1.083-2.026 1.792-3.446 1.792-2.267 0-4.111-1.807-4.171-4.059l-0-7.28c0-0.453 0.367-0.82 0.82-0.82s0.82 0.367 0.82 0.82v4.042c0.693-0.52 1.567-0.832 2.515-0.832 1.437 0 2.706 0.719 3.467 1.817 0.769-1.083 2.021-1.793 3.439-1.793 0.006 0 0.012 0 0.019 0 1.996 0 4.16 1.426 4.16 4.065 0.001 0.011 0.001 0.024 0.001 0.037 0 0.427-0.346 0.773-0.773 0.773-0.013 0-0.026-0-0.038-0.001l0.002 0z"></path>
<path class="path3" fill="#1cbcff" d="M17.498 11.316c-0.010-0-0.022-0-0.034-0-1.078 0-1.995 0.687-2.338 1.647l4.797 0.017c-0.357-1.141-1.426-1.664-2.425-1.664z"></path>
<path class="path4" fill="#fd0" d="M13.361 32v-2.568l10.223-7.608-10.223 10.175z"></path>
<path class="path5" fill="#fd0" d="M30.978 9.914c-0.161-0.148-0.262-0.359-0.262-0.594s0.101-0.447 0.261-0.594c0.163-0.153 0.378-0.25 0.616-0.262 0.245 0 0.464 0.1 0.62 0.261 0.147 0.144 0.238 0.344 0.238 0.565 0 0.010-0 0.021-0.001 0.031-0.003 0.229-0.093 0.437-0.238 0.593-0.164 0.145-0.38 0.234-0.617 0.237-0.003 0-0.005 0-0.008 0-0.236 0-0.451-0.090-0.611-0.238z"></path>
<path class="path6" fill="#1cbcff" d="M42.268 13.694v3.423c0 0.479-0.389 0.868-0.868 0.868s-0.868-0.389-0.868-0.868v-3.423c0-1.457-1.181-2.639-2.639-2.639s-2.639 1.181-2.639 2.639v3.423c0 0.479-0.389 0.868-0.868 0.868s-0.868-0.389-0.868-0.868v-3.423c0-2.416 1.959-4.374 4.374-4.374s4.374 1.959 4.374 4.374z"></path>
<path class="path7" fill="#1cbcff" d="M61.073 10.413v-4.256c0.008-0.461 0.384-0.832 0.846-0.832 0.003 0 0.007 0 0.010 0s0.008-0 0.012-0c0.467 0 0.847 0.369 0.867 0.83l0 7.657c0.001 0.028 0.001 0.062 0.001 0.095 0 2.416-1.959 4.374-4.374 4.374s-4.374-1.959-4.374-4.374c0-2.416 1.958-4.374 4.373-4.374 0.993 0.016 1.907 0.344 2.652 0.889l-0.013-0.009zM61.073 13.837v0c0-0.014 0-0.031 0-0.048 0-1.457-1.181-2.639-2.639-2.639s-2.639 1.181-2.639 2.639c0 1.457 1.181 2.639 2.638 2.639 0.007 0 0.016 0 0.024 0 1.436 0 2.602-1.157 2.615-2.59v-0.001z"></path>
<path class="path8" fill="#1cbcff" d="M72.319 13.67c-0.012 0.462-0.389 0.832-0.853 0.832-0.009 0-0.019-0-0.028-0l-5.987 0c0.371 1.033 1.342 1.759 2.483 1.759 0.005 0 0.009 0 0.014-0 0.024 0.001 0.054 0.001 0.084 0.001 0.696 0 1.342-0.214 1.876-0.579 0.101-0.055 0.235-0.092 0.378-0.092 0.337 0 0.627 0.205 0.75 0.498 0.216 0.433-0.022 0.885-0.426 1.123-0.676 0.467-1.512 0.746-2.414 0.746-0.096 0-0.191-0.003-0.286-0.009-2.351 0.001-4.267-1.915-4.267-4.279s1.916-4.279 4.279-4.279c2.116 0 4.398 1.498 4.398 4.279v0zM65.45 12.814h5.016c-0.357-1.189-1.474-1.736-2.52-1.736-0.004-0-0.009-0-0.013-0-1.134 0-2.101 0.714-2.477 1.717l-0.006 0.018z"></path>
<path class="path9" fill="#1cbcff" d="M50.018 15.334c-0.024-1.759-1.807-2.235-2.877-2.544h-0.024c-0.951-0.261-1.854-0.523-1.854-1.022v-0.024c0-0.001 0-0.003 0-0.004 0-0.239 0.111-0.451 0.284-0.589 0.258-0.18 0.576-0.287 0.918-0.287 0.012 0 0.024 0 0.036 0l0.046-0c0.712 0.025 1.372 0.225 1.946 0.558l0.004-0.011c0.113 0.060 0.246 0.095 0.388 0.095 0.006 0 0.011-0 0.017-0h-0.001c0.455-0.012 0.82-0.377 0.832-0.831-0.013-0.33-0.2-0.612-0.471-0.759-0.786-0.411-1.708-0.655-2.687-0.668l-0.075-0c-1.807 0.024-3.067 1.117-3.043 2.639v0.024c0.024 1.736 1.807 2.187 2.972 2.496s1.807 0.547 1.807 1.070v0.024c0 0.005 0 0.010 0 0.016 0 0.267-0.13 0.503-0.331 0.649-0.282 0.194-0.628 0.31-1.001 0.311h-0.072c-0.871-0.023-1.674-0.295-2.346-0.747-0.115-0.080-0.276-0.133-0.45-0.133-0.012 0-0.024 0-0.035 0.001l0.002-0c-0.006-0-0.012-0-0.019-0-0.449 0-0.813 0.364-0.813 0.813 0 0.007 0 0.014 0 0.020 0.002 0.282 0.141 0.533 0.354 0.687 0.921 0.612 2.045 0.982 3.255 1l0.1 0c1.902-0.024 3.186-1.165 3.162-2.758l-0.024-0.024z"></path>
<path class="path10" fill="#1cbcff" d="M31.57 11.673c-0.001 0-0.002 0-0.002 0-0.471 0-0.854 0.382-0.854 0.854 0 0.001 0 0.002 0 0.002v4.612c0 0.479 0.389 0.868 0.868 0.868s0.868-0.389 0.868-0.868v-4.612c-0.009-0.475-0.396-0.856-0.872-0.856-0.003 0-0.005 0-0.008 0z"></path>
<path class="path11" fill="#1cbcff" d="M51.469 9.914c-0.161-0.148-0.262-0.359-0.262-0.594s0.101-0.447 0.261-0.594c0.163-0.153 0.378-0.25 0.616-0.262 0.244 0.005 0.461 0.104 0.62 0.261 0.147 0.143 0.238 0.344 0.238 0.565 0 0.010-0 0.021-0.001 0.031-0.003 0.229-0.093 0.437-0.238 0.593-0.162 0.147-0.379 0.237-0.618 0.237s-0.455-0.090-0.619-0.238z"></path>
<path class="path12" fill="#1cbcff" d="M52.063 11.673c-0.001 0-0.002 0-0.002 0-0.471 0-0.853 0.382-0.853 0.854 0 0.001 0 0.002 0 0.002v4.612c0 0.479 0.389 0.868 0.868 0.868s0.868-0.389 0.868-0.868v-4.612c0-0.004 0-0.008 0-0.013 0-0.466-0.378-0.844-0.844-0.844-0.013 0-0.025 0-0.038 0.001z"></path>
<path class="path13" fill="#1cbcff" d="M32.618 20.279h0.594l1.64 3.828h-0.785l-0.357-0.88h-1.664l-0.357 0.88h-0.761zM33.474 22.657l-0.594-1.545-0.594 1.545h1.189z"></path>
<path class="path14" fill="#1cbcff" d="M35.209 21.516h0.618v0.404c0.077-0.13 0.172-0.24 0.283-0.331 0.131-0.092 0.291-0.147 0.464-0.147 0.022 0 0.043 0.001 0.064 0.003 0.007-0.001 0.018-0.001 0.030-0.001 0.152 0 0.296 0.035 0.425 0.098 0.111 0.051 0.208 0.132 0.278 0.233 0.072 0.097 0.129 0.208 0.166 0.327 0.028 0.12 0.045 0.251 0.050 0.385l0 1.644h-0.642v-1.545c-0.002-0.086-0.020-0.167-0.049-0.243-0.025-0.074-0.075-0.14-0.14-0.185-0.068-0.046-0.15-0.073-0.239-0.073-0.008 0-0.017 0-0.025 0.001 0.001-0 0-0-0-0-0.093 0-0.183 0.017-0.265 0.049-0.067 0.043-0.129 0.090-0.186 0.142-0.048 0.058-0.082 0.131-0.094 0.211-0 0.074-0.024 0.169-0.024 0.24v1.403h-0.642v-2.615h-0.071z"></path>
<path class="path15" fill="#1cbcff" d="M38.181 22.823c0.003-0.207 0.046-0.402 0.123-0.581 0.060-0.163 0.166-0.308 0.303-0.416 0.129-0.12 0.279-0.216 0.444-0.283 0.172-0.064 0.36-0.099 0.557-0.099s0.384 0.035 0.558 0.099c0.163 0.067 0.313 0.163 0.441 0.283 0.125 0.119 0.229 0.261 0.304 0.419 0.079 0.176 0.123 0.372 0.123 0.579 0 0 0 0 0 0.001-0.003 0.207-0.046 0.402-0.123 0.581-0.066 0.16-0.171 0.304-0.304 0.417-0.129 0.12-0.279 0.216-0.443 0.283-0.172 0.064-0.36 0.099-0.557 0.099s-0.384-0.035-0.558-0.099c-0.163-0.067-0.313-0.163-0.441-0.283-0.125-0.119-0.229-0.261-0.304-0.419-0.074-0.177-0.117-0.372-0.123-0.577zM38.823 22.823c0.005 0.103 0.022 0.201 0.050 0.294 0.033 0.083 0.081 0.162 0.141 0.23 0.067 0.066 0.145 0.122 0.232 0.163 0.096 0.047 0.202 0.073 0.314 0.073s0.219-0.026 0.313-0.072c0.088-0.042 0.166-0.098 0.234-0.165 0.063-0.066 0.111-0.145 0.141-0.233 0.031-0.090 0.049-0.188 0.049-0.29s-0.017-0.2-0.049-0.291c-0.034-0.085-0.082-0.164-0.142-0.233-0.067-0.066-0.145-0.122-0.232-0.163-0.096-0.047-0.202-0.073-0.314-0.073s-0.219 0.026-0.313 0.072c-0.088 0.042-0.166 0.098-0.234 0.165-0.063 0.066-0.111 0.145-0.141 0.233-0.031 0.090-0.049 0.188-0.049 0.29z"></path>
<path class="path16" fill="#1cbcff" d="M41.296 22.062v-0.547h0.523v-0.761h0.642v0.761h0.713v0.547h-0.713v1.141c-0 0.008-0.001 0.017-0.001 0.026 0 0.104 0.027 0.201 0.073 0.286 0.058 0.071 0.149 0.118 0.25 0.118 0.012 0 0.023-0.001 0.035-0.002 0.005 0 0.013 0.001 0.021 0.001 0.060 0 0.117-0.009 0.172-0.025 0.060-0.009 0.116-0.034 0.163-0.071l-0.001 0.547c-0.071 0.026-0.159 0.051-0.249 0.069-0.080 0.018-0.159 0.026-0.239 0.026-0.012 0-0.025-0-0.037-0.001-0.151-0.002-0.298-0.019-0.44-0.050-0.088-0.035-0.175-0.092-0.247-0.164-0.065-0.078-0.108-0.176-0.119-0.283-0.016-0.099-0.026-0.21-0.026-0.324 0-0.029 0.001-0.058 0.002-0.086l-0-1.185-0.523-0.024z"></path>
<path class="path17" fill="#1cbcff" d="M44.363 21.872v0c0.064-0.123 0.162-0.221 0.282-0.284 0.129-0.092 0.286-0.146 0.455-0.146 0.017 0 0.033 0.001 0.050 0.002 0.008-0 0.019-0.001 0.031-0.001 0.152 0 0.296 0.035 0.425 0.098 0.111 0.051 0.208 0.132 0.278 0.233 0.072 0.097 0.129 0.208 0.166 0.327 0.028 0.12 0.045 0.251 0.050 0.385l0 1.644h-0.642v-1.545c-0.002-0.086-0.020-0.167-0.049-0.243-0.025-0.074-0.075-0.14-0.14-0.185-0.068-0.046-0.15-0.073-0.239-0.073-0.008 0-0.017 0-0.025 0.001 0.001-0 0-0-0-0-0.093 0-0.183 0.017-0.265 0.049-0.067 0.043-0.129 0.090-0.186 0.142-0.048 0.058-0.082 0.131-0.094 0.211-0 0.074-0.024 0.169-0.024 0.24v1.403h-0.642v-4.089h0.642l-0.071 1.831z"></path>
<path class="path18" fill="#1cbcff" d="M47.334 23.037c0.010 0.184 0.1 0.346 0.236 0.451 0.116 0.105 0.268 0.169 0.436 0.169 0.014 0 0.029-0 0.043-0.001 0.014 0.001 0.033 0.002 0.052 0.002 0.129 0 0.25-0.036 0.353-0.099 0.115-0.061 0.211-0.149 0.281-0.257l0.477 0.354c-0.131 0.171-0.298 0.308-0.491 0.401-0.184 0.076-0.388 0.119-0.601 0.122-0.013 0-0.027 0.001-0.040 0.001-0.183 0-0.357-0.035-0.517-0.099-0.165-0.067-0.315-0.164-0.443-0.283-0.125-0.119-0.229-0.261-0.304-0.419-0.079-0.176-0.123-0.372-0.123-0.579 0-0 0-0 0-0.001 0.003-0.207 0.046-0.402 0.123-0.581 0.060-0.163 0.166-0.308 0.303-0.416 0.129-0.12 0.279-0.216 0.444-0.283 0.16-0.064 0.335-0.099 0.518-0.099 0.014 0 0.027 0 0.041 0.001 0.009-0 0.021-0.001 0.034-0.001 0.167 0 0.327 0.035 0.471 0.099 0.142 0.059 0.268 0.148 0.372 0.258 0.108 0.126 0.19 0.278 0.236 0.444 0.063 0.169 0.098 0.354 0.098 0.547 0 0.019-0 0.039-0.001 0.058l0 0.187h-1.997v0.024zM48.642 22.562c-0-0.173-0.063-0.331-0.167-0.453-0.114-0.103-0.266-0.167-0.434-0.167-0.014 0-0.029 0-0.043 0.001-0.014-0.002-0.031-0.003-0.050-0.003-0.157 0-0.299 0.065-0.4 0.169-0.109 0.122-0.185 0.276-0.213 0.447l1.307 0.005z"></path>
<path class="path19" fill="#1cbcff" d="M49.902 21.516h0.642v0.404c0.071-0.147 0.176-0.267 0.306-0.355 0.119-0.077 0.261-0.122 0.413-0.122 0.015 0 0.029 0 0.044 0.001l0.117-0c0.048 0 0.071 0.024 0.119 0.024v0.618c-0.041-0.016-0.089-0.025-0.139-0.025-0.010 0-0.019 0-0.029 0.001-0.046-0-0.094-0.024-0.141-0.024-0.012-0.001-0.025-0.001-0.039-0.001-0.119 0-0.229 0.036-0.32 0.098-0.086 0.044-0.158 0.108-0.211 0.187-0.040 0.064-0.073 0.135-0.095 0.21-0.017 0.051-0.026 0.102-0.026 0.155 0 0.006 0 0.012 0 0.018l-0 1.378h-0.642v-2.568z"></path>
<path class="path20" fill="#1cbcff" d="M56.725 22.704c-0 0.223-0.044 0.435-0.123 0.629-0.074 0.176-0.187 0.335-0.328 0.463-0.138 0.121-0.295 0.224-0.464 0.305-0.179 0.066-0.372 0.101-0.574 0.101-0.020 0-0.040-0-0.060-0.001-0.010 0-0.025 0.001-0.041 0.001-0.206 0-0.403-0.035-0.587-0.099-0.182-0.065-0.349-0.171-0.487-0.306-0.139-0.131-0.251-0.289-0.329-0.466-0.076-0.192-0.12-0.404-0.122-0.626v-2.426h0.689v2.401c0.005 0.103 0.022 0.201 0.050 0.294 0.028 0.101 0.077 0.196 0.142 0.279 0.063 0.093 0.152 0.167 0.256 0.211 0.122 0.058 0.261 0.093 0.407 0.096 0.017 0.001 0.036 0.002 0.055 0.002 0.129 0 0.25-0.036 0.353-0.099 0.105-0.044 0.194-0.117 0.257-0.21 0.065-0.083 0.114-0.178 0.143-0.282 0.027-0.090 0.044-0.188 0.049-0.288l0-2.404h0.689c0.024 0 0.024 2.425 0.024 2.425z"></path>
<path class="path21" fill="#1cbcff" d="M57.51 20.042h0.642v2.544l0.998-1.070h0.832l-1.117 1.165 1.189 1.403h-0.856l-1.022-1.331v1.331h-0.642l-0.024-4.042z"></path>
<path class="path22" fill="#1cbcff" d="M60.41 21.516h0.642v0.404c0.071-0.147 0.176-0.267 0.306-0.355 0.119-0.077 0.261-0.122 0.413-0.122 0.015 0 0.029 0 0.044 0.001l0.117-0c0.048 0 0.071 0.024 0.119 0.024v0.618c-0.041-0.016-0.089-0.025-0.139-0.025-0.010 0-0.019 0-0.029 0.001-0.046-0-0.094-0.024-0.141-0.024-0.012-0.001-0.025-0.001-0.039-0.001-0.119 0-0.229 0.036-0.32 0.098-0.086 0.044-0.158 0.108-0.211 0.187-0.040 0.064-0.073 0.135-0.095 0.21-0.017 0.051-0.026 0.102-0.026 0.155 0 0.006 0 0.012 0 0.018l-0 1.378h-0.666l0.024-2.568z"></path>
<path class="path23" fill="#1cbcff" d="M64.119 23.75v0c-0.103 0.135-0.229 0.247-0.374 0.33-0.136 0.064-0.287 0.099-0.447 0.099-0.012 0-0.024-0-0.036-0.001-0.127-0.005-0.249-0.022-0.367-0.050-0.106-0.022-0.21-0.072-0.298-0.141-0.088-0.060-0.16-0.14-0.211-0.233-0.047-0.098-0.073-0.208-0.073-0.325 0-0.004 0-0.008 0-0.012-0-0.007-0-0.017-0-0.026 0-0.12 0.026-0.233 0.074-0.335 0.044-0.096 0.118-0.177 0.209-0.232 0.085-0.061 0.178-0.116 0.277-0.163 0.112-0.043 0.232-0.076 0.356-0.098 0.131-0.025 0.25-0.025 0.368-0.049h0.523v-0.071c0.002-0.013 0.002-0.028 0.002-0.043 0-0.13-0.067-0.245-0.167-0.313-0.123-0.076-0.269-0.12-0.427-0.12-0.001 0-0.002 0-0.003 0-0.003-0-0.008-0-0.012-0-0.133 0-0.259 0.026-0.375 0.074-0.111 0.050-0.213 0.114-0.305 0.19l-0.331-0.335c0.132-0.143 0.301-0.25 0.491-0.307 0.172-0.063 0.362-0.098 0.56-0.098 0.015 0 0.030 0 0.045 0.001 0.007-0 0.017-0 0.027-0 0.16 0 0.313 0.026 0.456 0.075 0.109 0.035 0.211 0.092 0.301 0.165 0.067 0.063 0.13 0.133 0.186 0.208 0.042 0.079 0.075 0.166 0.096 0.258 0.017 0.073 0.026 0.149 0.026 0.226 0 0.015-0 0.030-0.001 0.045l0 1.71h-0.594v-0.428h0.024zM64.071 22.942h-0.428c-0.111 0.003-0.217 0.020-0.318 0.050-0.091 0.025-0.178 0.066-0.256 0.119-0.056 0.042-0.093 0.111-0.093 0.189 0 0.008 0 0.016 0.001 0.024-0 0.003-0.001 0.007-0.001 0.012 0 0.050 0.018 0.095 0.048 0.13 0.026 0.037 0.057 0.069 0.094 0.094l0.144 0.072c0.041 0.016 0.089 0.025 0.139 0.025 0.010 0 0.019-0 0.029-0.001 0.015 0.002 0.034 0.002 0.053 0.002 0.171 0 0.327-0.064 0.445-0.169 0.102-0.112 0.166-0.262 0.166-0.427-0.024 0.048-0.024-0.119-0.024-0.119z"></path>
<path class="path24" fill="#1cbcff" d="M65.308 20.636c0.004-0.103 0.049-0.195 0.119-0.261 0.072-0.074 0.172-0.119 0.282-0.119 0.001 0 0.002 0 0.003 0 0.118 0.004 0.226 0.048 0.31 0.119 0.073 0.072 0.118 0.173 0.118 0.285s-0.045 0.212-0.119 0.285c-0.080 0.074-0.188 0.119-0.305 0.119-0.001 0-0.003 0-0.004-0s-0.002 0-0.003 0c-0.111 0-0.211-0.046-0.282-0.119-0.067-0.085-0.111-0.191-0.119-0.307zM65.403 21.516h0.642v2.591h-0.642v-2.591z"></path>
<path class="path25" fill="#1cbcff" d="M66.805 21.516h0.618v0.404c0.077-0.13 0.172-0.24 0.283-0.331 0.131-0.092 0.291-0.147 0.464-0.147 0.022 0 0.043 0.001 0.064 0.003 0.007-0.001 0.018-0.001 0.030-0.001 0.152 0 0.296 0.035 0.425 0.098 0.111 0.051 0.208 0.132 0.278 0.233 0.072 0.097 0.129 0.208 0.166 0.327 0.028 0.12 0.045 0.251 0.049 0.385l0 1.644h-0.642v-1.545c-0.002-0.086-0.020-0.167-0.049-0.243-0.025-0.074-0.075-0.14-0.14-0.185-0.068-0.046-0.15-0.073-0.239-0.073-0.008 0-0.017 0-0.025 0.001 0.001-0 0-0-0-0-0.093 0-0.183 0.017-0.265 0.049-0.067 0.043-0.129 0.090-0.186 0.142-0.048 0.058-0.082 0.131-0.094 0.211-0 0.074-0.024 0.169-0.024 0.24v1.403h-0.713v-2.615z"></path>
<path class="path26" fill="#1cbcff" d="M70.419 23.037c0.010 0.184 0.1 0.346 0.236 0.451 0.116 0.105 0.268 0.169 0.436 0.169 0.014 0 0.029-0 0.043-0.001 0.014 0.001 0.033 0.002 0.052 0.002 0.129 0 0.25-0.036 0.353-0.099 0.115-0.061 0.211-0.149 0.281-0.257l0.477 0.354c-0.131 0.171-0.298 0.308-0.491 0.401-0.184 0.076-0.388 0.119-0.601 0.122-0.013 0-0.027 0.001-0.040 0.001-0.183 0-0.357-0.035-0.517-0.099-0.165-0.067-0.315-0.164-0.443-0.283-0.125-0.119-0.229-0.261-0.304-0.419-0.079-0.176-0.123-0.372-0.123-0.579 0-0 0-0 0-0.001 0.003-0.207 0.046-0.402 0.123-0.581 0.060-0.163 0.166-0.308 0.303-0.416 0.129-0.12 0.279-0.216 0.444-0.283 0.16-0.064 0.335-0.099 0.518-0.099 0.014 0 0.027 0 0.041 0.001 0.009-0 0.021-0.001 0.034-0.001 0.167 0 0.327 0.035 0.471 0.099 0.142 0.059 0.268 0.148 0.372 0.258 0.108 0.126 0.19 0.278 0.236 0.444 0.063 0.169 0.098 0.354 0.098 0.547 0 0.019-0 0.039-0.001 0.058l0 0.187h-1.997v0.024zM71.75 22.562c-0-0.173-0.063-0.331-0.167-0.453-0.114-0.103-0.266-0.167-0.434-0.167-0.014 0-0.029 0-0.043 0.001-0.014-0.002-0.031-0.003-0.050-0.003-0.157 0-0.299 0.065-0.4 0.169-0.109 0.122-0.185 0.276-0.213 0.447l1.307 0.005z"></path>
</symbol>
<symbol id="icon-logo-main" viewBox="0 0 72 32">
<title>logo-main</title>
<path class="path1" fill="#fff" d="M10.565 11.291c-0.011-0-0.025-0-0.038-0-1.362 0-2.467 1.099-2.476 2.459v0.030c-0 0.008-0 0.017-0 0.026 0 1.389 1.126 2.515 2.515 2.515s2.515-1.126 2.515-2.515c0-1.389-1.126-2.515-2.514-2.515z"></path>
<path class="path2" fill="#fff" d="M13.667 0.002c-7.518-0.031-13.638 5.922-13.667 13.244s5.953 13.22 13.387 13.33v1.956l10.228-6.708c2.097-2.572 3.632-5.366 3.632-8.497 0.002-7.355-6.063-13.299-13.581-13.325v0zM20.85 14.591h-5.731c0.357 0.983 1.283 1.672 2.369 1.672 0.002 0 0.005 0 0.007 0 0.021 0.001 0.047 0.001 0.073 0.001 0.659 0 1.272-0.198 1.782-0.538 0.097-0.054 0.227-0.090 0.365-0.090 0.315 0 0.586 0.187 0.71 0.455 0.041 0.098 0.063 0.207 0.063 0.32 0 0.323-0.182 0.604-0.448 0.745-0.641 0.446-1.43 0.711-2.281 0.711-0.094 0-0.187-0.003-0.279-0.010 0.011 0.001 0.009 0.001 0.007 0.001-1.446 0-2.721-0.73-3.477-1.841-0.776 1.089-2.038 1.803-3.466 1.803-0.003 0-0.006 0-0.009 0-0.008 0-0.017 0-0.026 0-2.261 0-4.099-1.814-4.138-4.066l-0-7.271c0.006-0.435 0.36-0.784 0.795-0.784 0.015 0 0.030 0 0.045 0.001-0.001-0 0.001-0 0.003-0 0.437 0 0.793 0.348 0.804 0.782l0 4.027c0.684-0.523 1.551-0.838 2.492-0.838 0.008 0 0.016 0 0.024 0 0.003-0 0.009-0 0.014-0 1.44 0 2.712 0.725 3.469 1.829 0.773-1.073 2.021-1.775 3.434-1.775 0.014 0 0.029 0 0.043 0 2.011-0 4.163 1.433 4.163 4.081 0 0.004 0 0.008 0 0.013 0 0.426-0.345 0.771-0.771 0.771-0.013 0-0.027-0-0.040-0.001l0.002 0z"></path>
<path class="path3" fill="#fff" d="M17.524 11.319c-0.008-0-0.017-0-0.026-0-1.075 0-1.992 0.678-2.345 1.631l4.771 0.017c-0.348-0.969-1.258-1.649-2.327-1.649-0.026 0-0.053 0-0.079 0.001z"></path>
<path class="path4" fill="#fff" d="M13.387 32v-2.543l10.199-7.601-10.199 10.144z"></path>
<path class="path5" fill="#fff" d="M30.992 9.894c-0.154-0.14-0.251-0.341-0.251-0.565 0-0.005 0-0.009 0-0.014 0.007-0.229 0.101-0.435 0.251-0.587 0.158-0.156 0.375-0.252 0.615-0.252s0.457 0.096 0.615 0.252c0.154 0.147 0.251 0.354 0.251 0.584 0 0.001 0 0.003 0 0.004 0 0.006 0 0.014 0 0.022 0 0.224-0.097 0.425-0.25 0.565-0.157 0.156-0.373 0.251-0.61 0.251-0.001 0-0.003 0-0.004 0-0.006 0-0.014 0-0.022 0-0.232 0-0.442-0.096-0.591-0.251z"></path>
<path class="path6" fill="#fff" d="M42.283 13.696v3.436c-0.005 0.464-0.383 0.838-0.848 0.838-0.007 0-0.013-0-0.020-0-0.003 0-0.008 0-0.013 0-0.455 0-0.824-0.369-0.824-0.824 0-0.005 0-0.010 0-0.015v-3.436c0-1.467-1.189-2.656-2.656-2.656s-2.656 1.189-2.656 2.656v3.436c0 0.479-0.388 0.867-0.867 0.867s-0.867-0.388-0.867-0.867v-3.436c0.057-2.372 1.993-4.273 4.374-4.273s4.317 1.901 4.374 4.267z"></path>
<path class="path7" fill="#fff" d="M61.091 10.424v-4.248c0.012-0.458 0.38-0.827 0.837-0.838 0.007-0 0.014-0 0.020-0 0.465 0 0.842 0.374 0.848 0.838v7.659c0 0.005 0 0.012 0 0.018 0 2.374-1.925 4.299-4.298 4.299s-4.298-1.924-4.298-4.299c0-2.374 1.925-4.299 4.298-4.299 0.979 0 1.881 0.327 2.604 0.878l-0.010-0.008zM61.091 13.834v0c0-0.017 0.001-0.037 0.001-0.057 0-1.467-1.189-2.656-2.656-2.656s-2.656 1.189-2.656 2.656c0 1.466 1.189 2.655 2.655 2.656 0.009 0 0.019 0 0.029 0 1.441 0 2.611-1.16 2.627-2.597v-0.002z"></path>
<path class="path8" fill="#fff" d="M72.356 13.667c-0.015 0.466-0.396 0.838-0.864 0.838-0.001 0-0.002 0-0.003 0h-6.008c0.374 1.034 1.347 1.76 2.49 1.76 0.009 0 0.017-0 0.026-0 0.018 0 0.040 0.001 0.063 0.001 0.703 0 1.358-0.209 1.905-0.568 0.1-0.053 0.234-0.089 0.376-0.089 0.335 0 0.623 0.198 0.755 0.483 0.198 0.425-0.027 0.872-0.418 1.123-0.731 0.57-1.663 0.915-2.675 0.915-2.414 0-4.37-1.957-4.37-4.37 0-2.411 1.953-4.366 4.363-4.37 2.097 0 4.361 1.509 4.361 4.277v0zM65.481 12.829h5.032c-0.363-1.194-1.481-1.734-2.515-1.734-0.008-0-0.017-0-0.026-0-1.135 0-2.104 0.713-2.483 1.716l-0.006 0.018z"></path>
<path class="path9" fill="#fff" d="M50.054 15.343c-0.029-1.76-1.817-2.235-2.878-2.543h-0.029c-0.955-0.251-1.844-0.504-1.844-1.034v-0.029c-0-0.003-0-0.006-0-0.009 0-0.234 0.109-0.442 0.278-0.577 0.255-0.177 0.568-0.281 0.906-0.281 0.018 0 0.036 0 0.053 0.001l0.052-0c0.711 0.031 1.371 0.224 1.953 0.542l0.005-0.012c0.124 0.051 0.268 0.081 0.419 0.084h0.001c0.238-0.003 0.452-0.101 0.606-0.258 0.141-0.126 0.229-0.308 0.229-0.511 0-0.027-0.002-0.053-0.005-0.080-0.005-0.327-0.196-0.611-0.472-0.749-0.785-0.406-1.705-0.651-2.68-0.673l-0.091-0c-1.817 0.029-3.073 1.118-3.047 2.656v0.029c0.029 1.734 1.789 2.209 2.964 2.515s1.817 0.559 1.817 1.063v0.029c0 0.006 0 0.014 0 0.022 0 0.267-0.131 0.503-0.332 0.648-0.283 0.193-0.63 0.307-1.003 0.307-0.002 0-0.005 0-0.007 0h-0.055c-0.879-0.019-1.69-0.299-2.362-0.764-0.128-0.079-0.3-0.132-0.485-0.132-0.002 0-0.003 0-0.005 0h0c-0.462 0.001-0.837 0.376-0.838 0.838-0 0.004-0 0.008-0 0.012 0 0.278 0.141 0.522 0.355 0.666 0.913 0.621 2.035 0.995 3.243 1.007l0.087 0c1.91-0.029 3.186-1.175 3.157-2.768v0z"></path>
<path class="path10" fill="#fff" d="M31.58 11.654c-0.004-0-0.009-0-0.014-0-0.471 0-0.853 0.382-0.853 0.853 0 0.005 0 0.010 0 0.015v4.611c0 0.479 0.388 0.867 0.867 0.867s0.867-0.388 0.867-0.867v-4.611c-0.003-0.478-0.389-0.864-0.867-0.867z"></path>
<path class="path11" fill="#fff" d="M51.506 9.894c-0.154-0.14-0.251-0.341-0.251-0.565 0-0.005 0-0.009 0-0.014 0.007-0.229 0.101-0.435 0.251-0.587 0.158-0.156 0.375-0.252 0.615-0.252s0.457 0.096 0.615 0.252c0.154 0.147 0.251 0.354 0.251 0.584 0 0.001 0 0.003 0 0.004 0 0.006 0 0.014 0 0.022 0 0.224-0.097 0.425-0.25 0.565-0.157 0.156-0.373 0.251-0.61 0.251-0.001 0-0.003 0-0.004 0-0.007 0-0.014 0-0.022 0-0.232 0-0.442-0.096-0.591-0.251z"></path>
<path class="path12" fill="#fff" d="M52.093 11.654c-0.004-0-0.009-0-0.014-0-0.471 0-0.853 0.382-0.853 0.853 0 0.005 0 0.010 0 0.015v4.611c0 0.479 0.388 0.867 0.867 0.867s0.867-0.388 0.867-0.867v-4.611c-0.003-0.478-0.389-0.864-0.867-0.867z"></path>
<path class="path13" fill="#fff" d="M32.196 21.017h0.587l1.648 3.821h-0.783l-0.351-0.86h-1.672l-0.334 0.867h-0.755zM33.089 23.393l-0.587-1.564-0.614 1.564h1.194z"></path>
<path class="path14" fill="#fff" d="M34.823 22.247h0.623v0.42c0.063-0.137 0.159-0.25 0.277-0.333 0.145-0.090 0.317-0.143 0.502-0.143 0.002 0 0.003 0 0.005 0 0.004-0 0.009-0 0.014-0 0.156 0 0.304 0.031 0.44 0.086 0.111 0.059 0.212 0.134 0.3 0.222 0.085 0.089 0.145 0.203 0.167 0.331 0.033 0.121 0.053 0.255 0.055 0.394l0 1.649h-0.642v-1.564c-0.005-0.092-0.025-0.177-0.057-0.256-0.030-0.073-0.078-0.138-0.138-0.19-0.070-0.053-0.158-0.085-0.253-0.085-0.010 0-0.019 0-0.029 0.001-0.1 0.002-0.195 0.022-0.284 0.057-0.072 0.030-0.138 0.078-0.19 0.138-0.053 0.063-0.091 0.139-0.112 0.221-0.020 0.067-0.030 0.14-0.030 0.216 0 0.014 0 0.027 0.001 0.041l-0 1.431h-0.642v-2.627z"></path>
<path class="path15" fill="#fff" d="M37.813 23.561c-0-0.012-0.001-0.026-0.001-0.039 0-0.188 0.042-0.367 0.116-0.527 0.070-0.159 0.174-0.299 0.303-0.411 0.128-0.116 0.276-0.21 0.438-0.277 0.175-0.067 0.366-0.108 0.565-0.116 0.015-0 0.029-0.001 0.043-0.001 0.188 0 0.367 0.042 0.527 0.116 0.167 0.060 0.316 0.155 0.439 0.276 0.131 0.113 0.235 0.254 0.305 0.413 0.074 0.173 0.115 0.365 0.115 0.566s-0.041 0.394-0.115 0.568c-0.069 0.157-0.174 0.297-0.303 0.41-0.128 0.116-0.276 0.21-0.438 0.277-0.175 0.067-0.366 0.108-0.565 0.116-0.015 0-0.029 0.001-0.043 0.001-0.188 0-0.367-0.042-0.527-0.116-0.167-0.060-0.316-0.155-0.439-0.276-0.131-0.113-0.235-0.254-0.305-0.413-0.074-0.16-0.116-0.339-0.116-0.527 0-0.014 0-0.028 0.001-0.041zM38.455 23.561c0.002 0.101 0.022 0.197 0.057 0.285 0.037 0.090 0.085 0.173 0.141 0.248 0.056 0.081 0.144 0.142 0.246 0.164 0.075 0.037 0.16 0.059 0.25 0.059 0.022 0 0.043-0.001 0.064-0.004 0.108-0.002 0.214-0.022 0.313-0.057l0.244-0.165c0.054-0.072 0.102-0.155 0.138-0.243 0.033-0.090 0.052-0.185 0.058-0.285-0.002-0.103-0.022-0.199-0.057-0.287-0.037-0.090-0.085-0.173-0.141-0.248-0.056-0.081-0.144-0.142-0.246-0.164-0.075-0.037-0.16-0.059-0.25-0.059-0.022 0-0.043 0.001-0.064 0.004-0.108 0.002-0.214 0.022-0.313 0.057l-0.244 0.165c-0.054 0.072-0.102 0.155-0.138 0.243-0.036 0.086-0.055 0.178-0.055 0.274 0 0.004 0 0.009 0 0.013z"></path>
<path class="path16" fill="#fff" d="M40.938 22.806v-0.559h0.53v-0.752h0.642v0.755h0.716v0.559h-0.716v1.146c-0.001 0.009-0.001 0.019-0.001 0.030 0 0.104 0.032 0.2 0.086 0.28 0.053 0.069 0.138 0.114 0.233 0.114 0.016 0 0.032-0.001 0.047-0.004 0.004 0 0.012 0.001 0.019 0.001 0.063 0 0.123-0.011 0.179-0.030 0.059-0.005 0.115-0.024 0.165-0.055l-0.002 0.548c-0.071 0.035-0.154 0.055-0.242 0.055-0.003 0-0.006-0-0.009-0-0.112 0-0.195 0.029-0.25 0.029-0.15-0.001-0.294-0.021-0.432-0.058-0.093-0.020-0.18-0.080-0.238-0.163-0.062-0.081-0.11-0.174-0.14-0.275-0.021-0.103-0.032-0.213-0.032-0.327 0-0.025 0.001-0.050 0.002-0.075l-0-1.191-0.559-0.029z"></path>
<path class="path17" fill="#fff" d="M44.017 22.61v0c0.070-0.124 0.164-0.227 0.276-0.306 0.139-0.090 0.306-0.143 0.485-0.143 0.008 0 0.015 0 0.023 0 0.003-0 0.008-0 0.013-0 0.156 0 0.304 0.031 0.44 0.086 0.111 0.059 0.212 0.134 0.3 0.222 0.085 0.089 0.145 0.203 0.167 0.331 0.033 0.121 0.053 0.255 0.055 0.394l0 1.645h-0.642v-1.564c-0.005-0.092-0.025-0.177-0.057-0.256-0.030-0.073-0.078-0.138-0.138-0.19-0.064-0.054-0.147-0.087-0.238-0.087-0.015 0-0.030 0.001-0.044 0.003-0.099 0.002-0.195 0.022-0.283 0.057-0.072 0.030-0.138 0.078-0.19 0.138-0.053 0.063-0.091 0.139-0.112 0.221-0.020 0.067-0.030 0.14-0.030 0.216 0 0.014 0 0.027 0.001 0.041l-0 1.431h-0.642v-4.11h0.642l-0.029 1.872z"></path>
<path class="path18" fill="#fff" d="M46.98 23.783c0.011 0.18 0.095 0.338 0.224 0.446 0.124 0.105 0.285 0.168 0.461 0.168 0.006 0 0.012-0 0.018-0 0.013 0.001 0.029 0.002 0.045 0.002 0.14 0 0.269-0.043 0.377-0.115 0.111-0.060 0.205-0.145 0.275-0.247l0.479 0.36c-0.124 0.176-0.296 0.312-0.496 0.389-0.173 0.074-0.366 0.115-0.569 0.115-0.009 0-0.018-0-0.027-0-0.010 0-0.024 0.001-0.038 0.001-0.188 0-0.367-0.042-0.527-0.116-0.167-0.060-0.316-0.155-0.439-0.276-0.131-0.113-0.235-0.254-0.305-0.413-0.074-0.173-0.115-0.365-0.115-0.566s0.041-0.394 0.115-0.568c0.069-0.157 0.174-0.297 0.303-0.41 0.128-0.116 0.276-0.21 0.438-0.277 0.175-0.067 0.366-0.108 0.565-0.116 0.184 0 0.357 0.031 0.519 0.087 0.141 0.067 0.271 0.161 0.38 0.276 0.112 0.124 0.199 0.274 0.249 0.439 0.056 0.176 0.086 0.369 0.086 0.57 0 0.018-0 0.037-0.001 0.055l0 0.164-2.013 0.029zM48.322 23.279c0.001-0.010 0.001-0.022 0.001-0.034 0-0.161-0.064-0.306-0.168-0.413-0.129-0.106-0.296-0.17-0.477-0.17s-0.348 0.064-0.479 0.171c-0.119 0.11-0.194 0.269-0.194 0.445l1.313 0z"></path>
<path class="path19" fill="#fff" d="M49.578 22.247h0.642v0.42c0.073-0.147 0.178-0.269 0.305-0.361 0.122-0.073 0.265-0.115 0.418-0.115 0.011 0 0.022 0 0.033 0.001l0.111-0c0.029 0 0.084 0.029 0.112 0.029v0.642c-0.055 0-0.112-0.029-0.167-0.029h-0.167c-0.008-0-0.016-0-0.025-0-0.129 0-0.249 0.035-0.353 0.095-0.085 0.049-0.16 0.115-0.22 0.192-0.047 0.066-0.085 0.141-0.112 0.22-0.020 0.055-0.030 0.112-0.030 0.171 0 0.001 0 0.001 0 0.002v1.397h-0.642l0.084-2.656z"></path>
<path class="path20" fill="#fff" d="M56.427 23.448c0.001 0.017 0.001 0.036 0.001 0.055 0 0.202-0.042 0.394-0.117 0.568-0.079 0.177-0.191 0.336-0.33 0.468-0.137 0.125-0.295 0.228-0.467 0.304-0.194 0.075-0.405 0.116-0.626 0.116s-0.432-0.041-0.627-0.116c-0.183-0.069-0.351-0.174-0.493-0.305-0.138-0.131-0.251-0.29-0.33-0.467-0.075-0.178-0.117-0.375-0.117-0.581 0-0.015 0-0.030 0.001-0.044l-0-2.429h0.671v2.402c0.008 0.113 0.027 0.218 0.058 0.318 0.029 0.097 0.078 0.19 0.14 0.271 0.072 0.093 0.166 0.169 0.273 0.22 0.128 0.055 0.272 0.086 0.424 0.086s0.295-0.031 0.426-0.086c0.101-0.059 0.193-0.133 0.271-0.221 0.055-0.081 0.103-0.174 0.139-0.271 0.033-0.1 0.053-0.205 0.058-0.314l0-2.405h0.678l-0.029 2.431z"></path>
<path class="path21" fill="#fff" d="M57.208 20.738h0.642v2.572l0.998-1.099h0.838l-1.118 1.175 1.194 1.433h-0.867l-1.034-1.342v1.342h-0.642l-0.029-4.081z"></path>
<path class="path22" fill="#fff" d="M60.115 22.247h0.645v0.42c0.073-0.147 0.178-0.269 0.305-0.361 0.122-0.073 0.265-0.115 0.418-0.115 0.011 0 0.022 0 0.033 0.001l0.111-0c0.029 0 0.084 0.029 0.112 0.029v0.642c-0.055 0-0.112-0.029-0.167-0.029h-0.167c-0.009-0-0.020-0.001-0.030-0.001-0.122 0-0.237 0.031-0.336 0.086-0.085 0.049-0.16 0.115-0.22 0.192-0.051 0.063-0.082 0.141-0.085 0.226-0.018 0.050-0.029 0.107-0.029 0.166 0 0.001 0 0.001 0 0.002v1.397h-0.642c0.053-0.064 0.053-2.656 0.053-2.656z"></path>
<path class="path23" fill="#fff" d="M63.864 24.482v0c-0.1 0.132-0.221 0.244-0.358 0.331-0.146 0.067-0.309 0.108-0.48 0.115-0.135-0.007-0.259-0.027-0.379-0.058-0.104-0.029-0.206-0.078-0.298-0.14-0.183-0.129-0.304-0.343-0.304-0.585-0-0.004-0-0.008-0-0.013 0-0.128 0.031-0.248 0.086-0.354 0.042-0.097 0.108-0.182 0.192-0.245 0.086-0.055 0.187-0.11 0.291-0.16 0.124-0.049 0.248-0.079 0.376-0.091 0.098-0.019 0.203-0.030 0.312-0.030 0.020 0 0.040 0 0.060 0.001l0.503-0v-0.086c0.001-0.009 0.001-0.019 0.001-0.029 0-0.136-0.066-0.257-0.167-0.333-0.106-0.072-0.236-0.115-0.376-0.115-0.016 0-0.032 0.001-0.048 0.002-0.002-0-0.007-0-0.012-0-0.137 0-0.267 0.031-0.383 0.086-0.113 0.049-0.215 0.115-0.304 0.195l-0.333-0.335c0.135-0.14 0.305-0.247 0.496-0.306 0.182-0.063 0.382-0.103 0.59-0.114 0.175 0.001 0.34 0.021 0.498 0.058 0.108 0.019 0.213 0.079 0.293 0.164 0.079 0.061 0.145 0.136 0.194 0.221 0.052 0.073 0.083 0.16 0.085 0.254 0.019 0.064 0.030 0.137 0.030 0.213 0 0.014-0 0.027-0.001 0.041l0 1.732h-0.587l0.029-0.42zM63.835 23.673h-0.449c-0.111 0.002-0.217 0.022-0.315 0.057-0.089 0.014-0.175 0.053-0.245 0.111-0.066 0.052-0.11 0.133-0.111 0.223-0.001 0.008-0.001 0.017-0.001 0.026 0 0.051 0.011 0.1 0.030 0.144 0.030 0.042 0.067 0.080 0.11 0.109 0.041 0.030 0.089 0.050 0.141 0.056 0.056 0 0.114 0.029 0.169 0.029 0.016 0.001 0.035 0.002 0.054 0.002 0.173 0 0.331-0.064 0.451-0.17 0.103-0.106 0.167-0.251 0.167-0.412 0-0.012-0-0.024-0.001-0.036-0.002 0.028-0.002-0.142-0.002-0.142z"></path>
<path class="path24" fill="#fff" d="M65.058 21.352c-0-0.006-0-0.012-0-0.019 0-0.103 0.043-0.195 0.113-0.261 0.070-0.070 0.166-0.114 0.272-0.114 0.013 0 0.025 0.001 0.037 0.002 0.005-0 0.012-0.001 0.020-0.001 0.111 0 0.212 0.043 0.287 0.113 0.069 0.072 0.111 0.171 0.111 0.279s-0.042 0.207-0.112 0.28c-0.082 0.069-0.19 0.111-0.307 0.111s-0.225-0.042-0.308-0.112c-0.070-0.065-0.114-0.159-0.114-0.262 0-0.006 0-0.012 0-0.017zM65.141 22.245h0.642v2.593h-0.642v-2.591z"></path>
<path class="path25" fill="#fff" d="M66.543 22.247h0.614v0.42c0.063-0.137 0.159-0.25 0.277-0.333 0.145-0.090 0.317-0.143 0.502-0.143 0.002 0 0.003 0 0.005 0 0.004-0 0.009-0 0.014-0 0.156 0 0.304 0.031 0.44 0.086 0.111 0.059 0.212 0.134 0.3 0.222 0.085 0.089 0.145 0.203 0.167 0.331 0.033 0.121 0.053 0.255 0.055 0.394l0 1.649h-0.642v-1.564c-0.005-0.092-0.025-0.177-0.057-0.256-0.030-0.073-0.078-0.138-0.138-0.19-0.064-0.054-0.147-0.087-0.238-0.087-0.015 0-0.030 0.001-0.044 0.003-0.099 0.002-0.195 0.022-0.283 0.057-0.072 0.030-0.138 0.078-0.19 0.138-0.052 0.063-0.091 0.139-0.112 0.221-0.020 0.067-0.030 0.14-0.030 0.216 0 0.014 0 0.027 0.001 0.041l-0 1.431h-0.642v-2.627z"></path>
<path class="path26" fill="#fff" d="M70.176 23.783c0.011 0.18 0.095 0.338 0.224 0.446 0.124 0.105 0.285 0.168 0.461 0.168 0.006 0 0.012-0 0.018-0 0.013 0.001 0.029 0.002 0.045 0.002 0.14 0 0.269-0.043 0.377-0.115 0.111-0.060 0.205-0.145 0.275-0.247l0.479 0.36c-0.124 0.176-0.296 0.312-0.496 0.389-0.173 0.074-0.366 0.115-0.569 0.115-0.009 0-0.018-0-0.027-0-0.010 0-0.024 0.001-0.038 0.001-0.188 0-0.367-0.042-0.527-0.116-0.167-0.060-0.316-0.155-0.439-0.276-0.131-0.113-0.235-0.254-0.305-0.413-0.074-0.173-0.115-0.365-0.115-0.566s0.041-0.394 0.115-0.568c0.069-0.157 0.174-0.297 0.303-0.41 0.128-0.116 0.276-0.21 0.438-0.277 0.175-0.067 0.366-0.108 0.565-0.116 0.184 0 0.357 0.031 0.519 0.087 0.141 0.067 0.271 0.161 0.38 0.276 0.112 0.124 0.199 0.274 0.249 0.439 0.056 0.176 0.086 0.369 0.086 0.57 0 0.018-0 0.037-0.001 0.055l0 0.164-2.013 0.029zM71.518 23.279c0.001-0.010 0.001-0.022 0.001-0.034 0-0.161-0.064-0.306-0.168-0.413-0.129-0.106-0.296-0.17-0.478-0.17s-0.348 0.064-0.479 0.171c-0.119 0.11-0.194 0.269-0.194 0.445l1.313 0z"></path>
</symbol>
</defs>
</svg>
