<svg id="Layer_1" data-name="Layer 1" xmlns="http://www.w3.org/2000/svg" viewBox="0 0 163.07 24"><defs><style>.cls-1{fill:#fd0;}.cls-2{fill:#fff;}</style></defs><title>Untitled-3</title><g id="befiesta-copy-5-_-venture-copy-_-adventure" data-name="befiesta-copy-5- -venture-copy- -adventure"><path class="cls-1" d="M23.81,12.36a7.6,7.6,0,0,0-6.34,3.37A7.6,7.6,0,0,0,7,13.48l-0.49.35V6.23a1.5,1.5,0,0,0-3,0h0V20a7.69,7.69,0,0,0,7.63,7.7,7.6,7.6,0,0,0,6.34-3.37,7.61,7.61,0,0,0,6.37,3.48,7.38,7.38,0,0,0,4.7-1.38,1.6,1.6,0,0,0,.73-2,1.45,1.45,0,0,0-1.9-.76l-0.11.05a5.93,5.93,0,0,1-3.37,1,4.63,4.63,0,0,1-4.38-3.15H30a1.5,1.5,0,0,0,1.51-1.49h0a7.52,7.52,0,0,0-7.34-7.7H23.81ZM11.09,24.7a4.63,4.63,0,0,1-4.62-4.65h0a4.62,4.62,0,1,1,4.63,4.61h0v0Zm8.34-6.13a4.65,4.65,0,0,1,4.38-3.13,4.49,4.49,0,0,1,4.4,3.13H19.43Z" transform="translate(-3.46 -4)"/><path id="adventure" class="cls-2" d="M41.28,12a8,8,0,0,0-8,7.9s0,0.08,0,.11A7.78,7.78,0,0,0,41,27.77h0.25A6.9,6.9,0,0,0,46,26.18a1.67,1.67,0,0,0,1.51,1.58,1.53,1.53,0,0,0,1.58-1.47s0-.08,0-0.11V20a7.78,7.78,0,0,0-7.54-8H41.28Zm0,12.7A4.79,4.79,0,0,1,36.37,20v0a5,5,0,0,1,4.92-4.9A4.78,4.78,0,0,1,46,19.94v0a4.6,4.6,0,0,1-4.51,4.69H41.28ZM58.94,11.84a7.94,7.94,0,1,0,7.94,7.94h0V5.57a1.57,1.57,0,0,0-3.14,0v7.86a8,8,0,0,0-4.8-1.58h0Zm0,12.76a4.81,4.81,0,1,1,4.81-4.85h0a4.81,4.81,0,0,1-4.81,4.81h0v0ZM79.58,12.07a1.56,1.56,0,0,0-2,.89v0l-3.29,8.83L70.89,13A1.57,1.57,0,1,0,68,14.11L72.7,26.78a1.62,1.62,0,0,0,1.49,1h0a1.64,1.64,0,0,0,1.49-1L80.5,14.09a1.54,1.54,0,0,0-.85-2l-0.07,0h0Zm9.53-.17a8,8,0,0,0,0,15.9A7.75,7.75,0,0,0,94,26.43a1.65,1.65,0,0,0,.75-2.09,1.51,1.51,0,0,0-2-.77l-0.09,0a6.22,6.22,0,0,1-3.55,1,4.83,4.83,0,0,1-4.56-3.27H95.46A1.56,1.56,0,0,0,97,19.86h0a7.86,7.86,0,0,0-7.76-7.94H89.11Zm0,3.13a4.63,4.63,0,0,1,4.59,3.23H84.53A4.85,4.85,0,0,1,89.11,15h0Zm17.8-3.13A8,8,0,0,0,99,19.84v6.36a1.57,1.57,0,1,0,3.14,0V19.86a4.81,4.81,0,0,1,9.63,0v6.36a1.57,1.57,0,1,0,3.13,0V19.86a8,8,0,0,0-7.94-7.94h0Zm17,0h-2.24V5.6a1.57,1.57,0,0,0-3.13,0v6.34h-2.24a1.55,1.55,0,0,0-1.55,1.55,1.58,1.58,0,0,0,1.55,1.58h2.24V26.3a1.57,1.57,0,1,0,3.13,0V15.07h2.24a1.59,1.59,0,0,0,1.58-1.58A1.56,1.56,0,0,0,124,11.93h-0.07Zm13.89,0a1.56,1.56,0,0,0-1.59,1.53s0,0,0,.06V21.4a3.28,3.28,0,0,1-6.55,0h0V13.48a1.57,1.57,0,0,0-3.13,0v8a6.41,6.41,0,1,0,12.83,0v-8a1.55,1.55,0,0,0-1.55-1.55h0v0Zm11.31,0a8,8,0,0,0-7.94,7.94v6.36a1.57,1.57,0,1,0,3.13,0V19.89a4.81,4.81,0,0,1,4.81-4.81,1.59,1.59,0,0,0,1.58-1.58,1.56,1.56,0,0,0-1.57-1.55h0v0Zm9.44,0a8,8,0,1,0,0,15.9,7.75,7.75,0,0,0,4.86-1.37,1.65,1.65,0,0,0,.76-2.09,1.51,1.51,0,0,0-2-.77l-0.09,0a6.22,6.22,0,0,1-3.55,1A4.83,4.83,0,0,1,154,21.39h10.93a1.56,1.56,0,0,0,1.59-1.53h0a7.86,7.86,0,0,0-7.76-7.95h-0.19Zm0,3.13a4.63,4.63,0,0,1,4.59,3.24H154A4.84,4.84,0,0,1,158.57,15h0Z" transform="translate(-3.46 -4)"/></g></svg>