<svg id="Capa_1" data-name="Capa 1" xmlns="http://www.w3.org/2000/svg" viewBox="0 0 113.55 26.38"><defs><style>.cls-1{fill:#fff;}.cls-2{fill:#ff8b00;}</style></defs><title>Vector Smart Object51</title><g id="inspired-_-befiesta-copy-_-befiesta-copy-2-_-Fill-16-Copy-3-_-befiesta-copy-3-_-enriched-copy-_-Fill-18-Copy-2-_-Fill-19-Copy-2-Copy-Copy-Copy" data-name="inspired-+-befiesta-copy-+-befiesta-copy-2-+-Fill-16-Copy-3-+-befiesta-copy-3-+-enriched-copy-+-Fill-18-Copy-2-+-Fill-19-Copy-2-Copy-Copy-Copy"><g id="inspired-_-befiesta-copy-_-befiesta-copy-2-_-Fill-16-Copy-3" data-name="inspired-+-befiesta-copy-+-befiesta-copy-2-+-Fill-16-Copy-3"><path id="inspired" class="cls-1" d="M39.62,18.23v5.29a1.3,1.3,0,1,0,2.6,0V18.23a4,4,0,1,1,8,0v5.29a1.3,1.3,0,1,0,2.61,0V18.23A6.61,6.61,0,1,0,39.62,18.23ZM73,24.94a6.61,6.61,0,1,0-6.61-6.61V30.15a1.3,1.3,0,0,0,2.61,0V23.6a6.59,6.59,0,0,0,4,1.34h0Zm0-10.61a4,4,0,1,1-4,4v0a4,4,0,0,1,4-4h0Zm13,3.92v5.29a1.3,1.3,0,1,0,2.61,0V18.26a4,4,0,0,1,4-4,1.32,1.32,0,0,0,1.32-1.32,1.3,1.3,0,0,0-1.32-1.29A6.61,6.61,0,0,0,86,18.26Zm14.45-6.64a6.61,6.61,0,0,0,0,13.21,6.44,6.44,0,0,0,4.05-1.13A1.37,1.37,0,0,0,105.1,22a1.26,1.26,0,0,0-1.74-.61,5.16,5.16,0,0,1-2.95.87,4,4,0,0,1-3.79-2.71h9.08A1.3,1.3,0,0,0,107,18.23a6.48,6.48,0,0,0-6.61-6.61h0Zm0,2.6a3.85,3.85,0,0,1,3.82,2.69H96.63a4,4,0,0,1,3.79-2.69h0Zm14.82-2.66a6.61,6.61,0,1,0,6.61,6.61V6.36a1.3,1.3,0,0,0-2.61,0v6.56a6.58,6.58,0,0,0-4-1.34h0Zm0,10.61a4,4,0,1,1,4-4v0a4,4,0,0,1-4,4h0Z" transform="translate(-8.29 -5.07)"/><g id="befiesta-copy"><g id="Fill-18-Copy-2-_-Fill-19-Copy-2-Copy-Copy" data-name="Fill-18-Copy-2-+-Fill-19-Copy-2-Copy-Copy"><path id="Fill-18-Copy-2" class="cls-1" d="M35.54,11.17a1.36,1.36,0,0,1,0-2,1.42,1.42,0,0,1,2,0,1.43,1.43,0,0,1,0,2,1.49,1.49,0,0,1-2,0" transform="translate(-8.29 -5.07)"/><path id="Fill-19-Copy-2" class="cls-1" d="M36.52,14.12a1.42,1.42,0,0,0-1.43,1.43v7.71a1.44,1.44,0,0,0,2.88,0V15.55a1.43,1.43,0,0,0-1.45-1.43" transform="translate(-8.29 -5.07)"/></g></g><g id="befiesta-copy-2"><g id="Fill-18-Copy-2-_-Fill-19-Copy-2-Copy-Copy-2" data-name="Fill-18-Copy-2-+-Fill-19-Copy-2-Copy-Copy"><path id="Fill-18-Copy-2-2" data-name="Fill-18-Copy-2" class="cls-1" d="M81.59,11.17a1.36,1.36,0,0,1,0-2,1.42,1.42,0,0,1,2,0,1.43,1.43,0,0,1,0,2,1.5,1.5,0,0,1-2,0" transform="translate(-8.29 -5.07)"/><path id="Fill-19-Copy-2-2" data-name="Fill-19-Copy-2" class="cls-1" d="M82.58,14.12a1.42,1.42,0,0,0-1.43,1.43v7.71a1.44,1.44,0,0,0,2.88,0V15.55a1.43,1.43,0,0,0-1.45-1.43" transform="translate(-8.29 -5.07)"/></g></g><path id="Fill-16-Copy-3" class="cls-1" d="M64.79,20.75c0-2.59-2.72-3.33-4.31-3.76h0c-1.42-.39-2.75-0.76-2.77-1.52V15.4a1,1,0,0,1,.44-0.86,2.39,2.39,0,0,1,1.41-.42h0.07a6.27,6.27,0,0,1,2.88.81h0a1.44,1.44,0,0,0,.61.13h0a1.29,1.29,0,0,0,.9-0.38,1.18,1.18,0,0,0,.35-0.86,1.32,1.32,0,0,0-.72-1.13,9.24,9.24,0,0,0-4-1H59.52c-2.72,0-4.58,1.66-4.54,3.93v0c0,2.58,2.69,3.26,4.44,3.71s2.7,0.83,2.71,1.58V21a1.18,1.18,0,0,1-.5,1,2.59,2.59,0,0,1-1.51.44H60a6.51,6.51,0,0,1-3.5-1.11,1.25,1.25,0,0,0-.73-0.21h0a1.23,1.23,0,0,0-.71,2.25,9.06,9.06,0,0,0,4.85,1.49h0.13c2.83,0,4.77-1.73,4.73-4.1v0" transform="translate(-8.29 -5.07)"/></g><path class="cls-2" d="M26.28,12a6.76,6.76,0,0,0-5.54,2.89A6.78,6.78,0,0,0,11,13.21V6.41a1.34,1.34,0,0,0-2.68,0V18.67a6.85,6.85,0,0,0,6.8,6.86,6.76,6.76,0,0,0,5.54-2.9,6.78,6.78,0,0,0,5.65,3,6.59,6.59,0,0,0,4.17-1.18,1.43,1.43,0,0,0,.65-1.8,1.29,1.29,0,0,0-1.79-.63,5.28,5.28,0,0,1-3,.9,4.13,4.13,0,0,1-3.9-2.81h9.34a1.34,1.34,0,0,0,1.35-1.34A6.7,6.7,0,0,0,26.28,12ZM15.09,22.82A4.13,4.13,0,0,1,11,18.67v0A4.12,4.12,0,1,1,15.09,22.82Zm7.29-5.38a4.14,4.14,0,0,1,3.9-2.79,4,4,0,0,1,3.93,2.79H22.38Z" transform="translate(-8.29 -5.07)"/></g></svg>