<svg id="Capa_1" data-name="Capa 1" xmlns="http://www.w3.org/2000/svg" viewBox="0 0 97.42 26.41"><defs><style>.cls-1{fill:#fff;}.cls-2{fill:#19ad44;}</style></defs><title>Vector Smart Object31</title><g id="power-_-befiesta-copy-3-_-enriched-copy-_-Fill-18-Copy-2-_-Fill-19-Copy-2-Copy-Copy-Copy" data-name="power-+-befiesta-copy-3-+-enriched-copy-+-Fill-18-Copy-2-+-Fill-19-Copy-2-Copy-Copy-Copy"><path id="power" class="cls-1" d="M35.92,22a6.67,6.67,0,1,0-6.67-6.67V27.24a1.32,1.32,0,0,0,2.63,0V20.62a6.66,6.66,0,0,0,4,1.36h0Zm0-10.71a4,4,0,1,1-4,4.07v0a4,4,0,0,1,4-4h0Zm15,10.61A6.67,6.67,0,1,0,44.2,15.2a6.68,6.68,0,0,0,6.67,6.67h0Zm0-10.71a4,4,0,1,1-4,4,4,4,0,0,1,4-4h0Zm25-2.5a1.31,1.31,0,0,0-1.7.77L71.4,16.85,68.64,9.48a1.25,1.25,0,0,0-.77-0.82,0.05,0.05,0,0,1-.05,0H67.76a0.06,0.06,0,0,0-.06,0H67.65a0,0,0,0,1,0,0H67.34a1.06,1.06,0,0,0-.4.08,1.29,1.29,0,0,0-.8.82l-2.77,7.36L60.58,9.43a1.28,1.28,0,0,0-1.67-.77,1.3,1.3,0,0,0-.77,1.7l4,10.63a1.32,1.32,0,0,0,1.25.88A1.42,1.42,0,0,0,64.65,21l2.74-7.36L70.15,21a1.32,1.32,0,0,0,1.25.88A1.42,1.42,0,0,0,72.68,21l4-10.63a1.34,1.34,0,0,0-.77-1.7h0Zm8-.13a6.67,6.67,0,0,0,0,13.35A6.51,6.51,0,0,0,88,20.73,1.39,1.39,0,0,0,88.67,19a1.27,1.27,0,0,0-1.76-.61,5.21,5.21,0,0,1-3,.88,4,4,0,0,1-3.83-2.74h9.17a1.31,1.31,0,0,0,1.33-1.3,6.55,6.55,0,0,0-6.67-6.67h0Zm0,2.63a3.89,3.89,0,0,1,3.85,2.71H80.11a4.06,4.06,0,0,1,3.83-2.71h0Zm15-2.6a6.68,6.68,0,0,0-6.67,6.67v5.34a1.32,1.32,0,1,0,2.63,0V15.22a4,4,0,0,1,4-4,1.33,1.33,0,0,0,1.33-1.33,1.31,1.31,0,0,0-1.33-1.3h0Z" transform="translate(-2.85 -2.13)"/><path class="cls-2" d="M20.84,9a6.76,6.76,0,0,0-5.54,2.89,6.78,6.78,0,0,0-9.76-1.63V3.47a1.34,1.34,0,0,0-2.68,0V15.73a6.85,6.85,0,0,0,6.8,6.86,6.77,6.77,0,0,0,5.55-2.9,6.78,6.78,0,0,0,5.65,3A6.59,6.59,0,0,0,25,21.55a1.43,1.43,0,0,0,.65-1.8,1.29,1.29,0,0,0-1.79-.63,5.27,5.27,0,0,1-3,.9,4.13,4.13,0,0,1-3.9-2.81h9.34a1.34,1.34,0,0,0,1.35-1.34A6.7,6.7,0,0,0,20.84,9ZM9.65,19.88a4.13,4.13,0,0,1-4.12-4.15v0A4.12,4.12,0,1,1,9.65,19.88Zm7.29-5.38a4.14,4.14,0,0,1,3.9-2.79,4,4,0,0,1,3.93,2.79H16.94Z" transform="translate(-2.85 -2.13)"/></g></svg>