<svg id="Capa_1" data-name="Capa 1" xmlns="http://www.w3.org/2000/svg" viewBox="0 0 119.9 27.04"><defs><style>.cls-1{fill:#e74c3c;}.cls-2{fill:#fff;}</style></defs><title>be_splendid</title><g id="Group-3"><path class="cls-1" d="M25.09,11.67a6.76,6.76,0,0,0-5.54,2.89,6.77,6.77,0,0,0-9.76-1.63V6.13a1.34,1.34,0,0,0-2.68,0V18.39a6.85,6.85,0,0,0,6.8,6.86,6.77,6.77,0,0,0,5.55-2.9,6.77,6.77,0,0,0,5.64,3,6.6,6.6,0,0,0,4.17-1.17,1.43,1.43,0,0,0,.65-1.8,1.29,1.29,0,0,0-1.78-.63,5.28,5.28,0,0,1-3,.9,4.13,4.13,0,0,1-3.9-2.81h9.34a1.34,1.34,0,0,0,1.35-1.34A6.7,6.7,0,0,0,25.09,11.67ZM13.9,22.55a4.13,4.13,0,0,1-4.11-4.15v0A4.12,4.12,0,1,1,13.9,22.55Zm7.29-5.38a4.14,4.14,0,0,1,3.9-2.79A4,4,0,0,1,29,17.17H21.19Z" transform="translate(-7.11 -4.79)"/><g id="splendid-_-befiesta-copy-2-_-Fill-16-Copy-3" data-name="splendid-+-befiesta-copy-2-+-Fill-16-Copy-3"><g id="splendid-_-befiesta-copy-2" data-name="splendid-+-befiesta-copy-2"><path id="splendid" class="cls-2" d="M51.74,25.36a6.57,6.57,0,1,0-6.58-6.57V30.55a1.3,1.3,0,0,0,2.59,0V24a6.57,6.57,0,0,0,4,1.34h0Zm0-10.56a4,4,0,1,1-4,4v0a4,4,0,0,1,4-4h0Zm9.35,10.48A1.29,1.29,0,0,0,62.37,24v-17a1.3,1.3,0,0,0-2.59,0V24a1.3,1.3,0,0,0,1.31,1.31h0Zm2.85-6.6a6.79,6.79,0,0,0,7,6.57,7.12,7.12,0,0,0,4.28-1.13,1.33,1.33,0,0,0,.67-1.73A1.37,1.37,0,0,0,74,21.8a5.7,5.7,0,0,1-3.11.86,4.23,4.23,0,0,1-4-2.7H76.5a1.33,1.33,0,0,0,1.39-1.28c0-4.27-3.61-6.57-7-6.57A6.77,6.77,0,0,0,63.94,18.68Zm7-4a4.24,4.24,0,0,1,4.2,2.67H66.74a4.42,4.42,0,0,1,4.17-2.67h0ZM86,12.11a6.58,6.58,0,0,0-6.57,6.57v5.26a1.3,1.3,0,1,0,2.59,0V18.68a4,4,0,0,1,8,0v5.26a1.3,1.3,0,1,0,2.59,0V18.68A6.58,6.58,0,0,0,86,12.11h0Zm14.72-.05a6.57,6.57,0,1,0,6.57,6.57V6.87a1.3,1.3,0,0,0-2.59,0v6.52a6.57,6.57,0,0,0-4-1.34h0Zm0,10.56a4,4,0,1,1,4-4v0a4,4,0,0,1-4,4h0Zm13.11-4a6.57,6.57,0,0,0,13.15,0V6.87a1.3,1.3,0,0,0-2.59,0v6.52A6.58,6.58,0,0,0,113.86,18.63Zm6.58,4a4,4,0,1,1,4-4v0a4,4,0,0,1-4,4h0Z" transform="translate(-7.11 -4.79)"/><g id="befiesta-copy-2"><g id="Fill-18-Copy-2-_-Fill-19-Copy-2-Copy-Copy" data-name="Fill-18-Copy-2-+-Fill-19-Copy-2-Copy-Copy"><path id="Fill-18-Copy-2" class="cls-2" d="M109.53,11.84a1.33,1.33,0,0,1,0-1.95,1.39,1.39,0,0,1,2,0,1.4,1.4,0,0,1,0,1.95,1.46,1.46,0,0,1-2,0" transform="translate(-7.11 -4.79)"/><path id="Fill-19-Copy-2" class="cls-2" d="M110.5,14.71a1.39,1.39,0,0,0-1.39,1.39v7.51a1.4,1.4,0,0,0,2.81,0V16.11a1.39,1.39,0,0,0-1.42-1.39" transform="translate(-7.11 -4.79)"/></g></g></g><path id="Fill-16-Copy-3" class="cls-2" d="M43.91,21.11c0-2.67-2.8-3.43-4.44-3.87h0c-1.46-.4-2.84-0.79-2.85-1.57v0A1.08,1.08,0,0,1,37,14.71a2.45,2.45,0,0,1,1.46-.43h0.07a6.48,6.48,0,0,1,3,.83h0a1.46,1.46,0,0,0,.63.14h0a1.34,1.34,0,0,0,.93-0.39A1.22,1.22,0,0,0,43.47,14a1.36,1.36,0,0,0-.74-1.16,9.52,9.52,0,0,0-4.13-1H38.48c-2.8,0-4.72,1.71-4.68,4.05v0c0,2.66,2.77,3.36,4.57,3.83s2.78,0.85,2.79,1.63V21.4a1.21,1.21,0,0,1-.52,1,2.68,2.68,0,0,1-1.55.46H39a6.7,6.7,0,0,1-3.6-1.14,1.29,1.29,0,0,0-.75-0.22h0a1.27,1.27,0,0,0-.73,2.32,9.35,9.35,0,0,0,5,1.53H39c2.91-.05,4.92-1.78,4.88-4.22v0" transform="translate(-7.11 -4.79)"/></g></g></svg>