<svg id="Layer_1" data-name="Layer 1" xmlns="http://www.w3.org/2000/svg" viewBox="0 0 304.6 134.6"><defs><style>.cls-1{fill:#1cbcff;}.cls-2{fill:#fd0;}</style></defs><title>logo_color</title><path id="Fill-7" class="cls-1" d="M62.1,55.5A10.42,10.42,0,0,0,51.5,65.8v0.1A10.6,10.6,0,1,0,62.1,55.5" transform="translate(-17.7 -8)"/><path id="Fill-8" class="cls-1" d="M75.1,8C43.5,7.9,17.8,32.9,17.7,63.8c-0.1,30.6,25,55.6,56.2,56.1v8.2l43-28.2c8.8-10.9,15.2-22.6,15.3-35.8,0.1-30.9-25.5-56-57.1-56.1h0Zm30.2,61.3H81.2a10.63,10.63,0,0,0,10,7A13.28,13.28,0,0,0,99,74a3.34,3.34,0,0,1,4.6,1.6c0.8,1.7-.1,3.5-1.7,4.5A17.3,17.3,0,0,1,91.2,83a17.63,17.63,0,0,1-14.6-7.7,17.55,17.55,0,0,1-32-9.5V35.2a3.45,3.45,0,0,1,6.9,0v17a17.73,17.73,0,0,1,25.2,4.2,17.49,17.49,0,0,1,14.5-7.6c8.4,0,17.5,6,17.5,17.1a3.25,3.25,0,0,1-3.4,3.4h0Z" transform="translate(-17.7 -8)"/><path id="Fill-9" class="cls-1" d="M91.3,55.6a10.44,10.44,0,0,0-10,7h20.2c-1.5-4.8-6-7-10.2-7" transform="translate(-17.7 -8)"/><path class="cls-2" d="M73.9,131.8" transform="translate(-17.7 -8)"/><polygon class="cls-2" points="56.2 134.6 56.2 123.8 99.2 91.8 56.2 134.6"/><g id="Group"><path id="Fill-12-Copy" class="cls-1" d="M148,49.7a3.39,3.39,0,0,1,0-5,4.09,4.09,0,0,1,2.6-1.1,3.63,3.63,0,0,1,2.6,1.1,3.32,3.32,0,0,1,1,2.5,3.74,3.74,0,0,1-1,2.5,4,4,0,0,1-2.6,1,3.8,3.8,0,0,1-2.6-1" transform="translate(-17.7 -8)"/><path id="Fill-13-Copy" class="cls-1" d="M195.49,65.6V80a3.65,3.65,0,0,1-7.3,0V65.6a11.1,11.1,0,0,0-22.2,0V80a3.65,3.65,0,0,1-7.3,0V65.6a18.4,18.4,0,0,1,36.8,0" transform="translate(-17.7 -8)"/><path id="Fill-14-Copy" class="cls-1" d="M274.59,51.8V33.9a3.56,3.56,0,0,1,3.6-3.5,3.65,3.65,0,0,1,3.7,3.5V66.1a18.4,18.4,0,1,1-18.4-18,19.43,19.43,0,0,1,11.1,3.7h0Zm0,14.4h0a11.1,11.1,0,1,0-11.1,10.9,11,11,0,0,0,11.1-10.9h0Z" transform="translate(-17.7 -8)"/><path id="Fill-15-Copy" class="cls-1" d="M321.89,65.5a3.59,3.59,0,0,1-3.7,3.5H293a11.07,11.07,0,0,0,10.5,7.4,14,14,0,0,0,8.2-2.4,3.42,3.42,0,0,1,4.8,1.7c0.9,1.8-.1,3.7-1.8,4.7a18,18,0,0,1-11.3,3.1,18,18,0,1,1,0-36c8.9,0,18.5,6.3,18.5,18h0ZM293,61.9h21.1c-1.5-5-6.2-7.3-10.6-7.3A11.12,11.12,0,0,0,293,61.9h0Z" transform="translate(-17.7 -8)"/><path id="Fill-16-Copy" class="cls-1" d="M228.09,72.5c-0.1-7.4-7.6-9.4-12.1-10.7h-0.1c-4-1.1-7.8-2.2-7.8-4.3V57.4a3.17,3.17,0,0,1,1.2-2.5,6.79,6.79,0,0,1,4-1.2h0.2a17.55,17.55,0,0,1,8.1,2.3h0.1a3.53,3.53,0,0,0,1.7.4h0a3.59,3.59,0,0,0,3.5-3.5,3.8,3.8,0,0,0-2-3.2,25.5,25.5,0,0,0-11.3-2.8h-0.3c-7.6.1-12.9,4.7-12.8,11.1v0.1c0.1,7.3,7.6,9.2,12.5,10.5s7.6,2.3,7.6,4.5v0.1a3.37,3.37,0,0,1-1.4,2.8,7.48,7.48,0,0,1-4.2,1.3h-0.3a18.52,18.52,0,0,1-9.8-3.1,3.48,3.48,0,0,0-2.1-.6h0a3.42,3.42,0,0,0-3.5,3.5,3.59,3.59,0,0,0,1.5,2.9,25.67,25.67,0,0,0,13.7,4.2h0.4c8-.1,13.4-4.9,13.3-11.6l-0.1-.1" transform="translate(-17.7 -8)"/><path id="Fill-17-Copy" class="cls-1" d="M150.49,57.1a3.59,3.59,0,0,0-3.6,3.6V80.1a3.65,3.65,0,0,0,7.3,0V60.7a3.67,3.67,0,0,0-3.7-3.6" transform="translate(-17.7 -8)"/><path id="Fill-18-Copy" class="cls-1" d="M234.19,49.7a3.39,3.39,0,0,1,0-5,4.09,4.09,0,0,1,2.6-1.1,3.81,3.81,0,0,1,2.6,1.1,3.32,3.32,0,0,1,1,2.5,3.74,3.74,0,0,1-1,2.5,3.88,3.88,0,0,1-5.2,0" transform="translate(-17.7 -8)"/><path id="Fill-19-Copy" class="cls-1" d="M236.69,57.1a3.59,3.59,0,0,0-3.6,3.6V80.1a3.65,3.65,0,0,0,7.3,0V60.7a3.55,3.55,0,0,0-3.7-3.6" transform="translate(-17.7 -8)"/></g><path class="cls-1" d="M154.9,93.3h2.5l6.9,16.1H161l-1.5-3.7h-7l-1.5,3.7h-3.2Zm3.6,10L156,96.8l-2.5,6.5h5Z" transform="translate(-17.7 -8)"/><path class="cls-1" d="M165.8,98.5h2.6v1.7h0a5.26,5.26,0,0,1,1.2-1.4,3.4,3.4,0,0,1,2.2-.6,4.06,4.06,0,0,1,1.9.4,2.94,2.94,0,0,1,1.2,1,4.58,4.58,0,0,1,.7,1.4,8.76,8.76,0,0,1,.2,1.6v6.9h-2.7V103a3,3,0,0,0-.2-1,1.55,1.55,0,0,0-.6-0.8,1.8,1.8,0,0,0-1.1-.3,3.09,3.09,0,0,0-1.1.2,5.55,5.55,0,0,0-.8.6,1.8,1.8,0,0,0-.4.9c0,0.3-.1.7-0.1,1v5.9h-2.7v-11h-0.3Z" transform="translate(-17.7 -8)"/><path class="cls-1" d="M178.3,104a6.44,6.44,0,0,1,.5-2.4,4,4,0,0,1,1.3-1.8,6.15,6.15,0,0,1,1.9-1.2,6.81,6.81,0,0,1,4.6,0,6.15,6.15,0,0,1,1.9,1.2,5.94,5.94,0,0,1,1.3,1.8,6,6,0,0,1,.5,2.4,6.44,6.44,0,0,1-.5,2.4,4.63,4.63,0,0,1-1.3,1.8,6.15,6.15,0,0,1-1.9,1.2,6.81,6.81,0,0,1-4.6,0,6.15,6.15,0,0,1-1.9-1.2,5.94,5.94,0,0,1-1.3-1.8A6.87,6.87,0,0,1,178.3,104Zm2.7,0a5,5,0,0,0,.2,1.2,3.33,3.33,0,0,0,.6,1,3.59,3.59,0,0,0,1,.7,3,3,0,0,0,2.6,0,3.59,3.59,0,0,0,1-.7,2.66,2.66,0,0,0,.6-1,3.7,3.7,0,0,0,0-2.4,3.33,3.33,0,0,0-.6-1,3.59,3.59,0,0,0-1-.7,3,3,0,0,0-2.6,0,3.59,3.59,0,0,0-1,.7,2.66,2.66,0,0,0-.6,1A3.73,3.73,0,0,0,181,104Z" transform="translate(-17.7 -8)"/><path class="cls-1" d="M191.4,100.8V98.5h2.2V95.3h2.7v3.2h3v2.3h-3v4.8a2.5,2.5,0,0,0,.3,1.3,1.36,1.36,0,0,0,1.2.5,2.49,2.49,0,0,0,.8-0.1,1.49,1.49,0,0,0,.7-0.3v2.3a8.11,8.11,0,0,1-1.1.3,4.48,4.48,0,0,1-1.1.1,9,9,0,0,1-1.8-.2,3,3,0,0,1-1.1-.7,2.19,2.19,0,0,1-.5-1.2,8.62,8.62,0,0,1-.1-1.7v-5l-2.2-.1h0Z" transform="translate(-17.7 -8)"/><path class="cls-1" d="M204.3,100h0a2.78,2.78,0,0,1,1.2-1.2,3.28,3.28,0,0,1,2.1-.6,4.06,4.06,0,0,1,1.9.4,2.94,2.94,0,0,1,1.2,1,4.58,4.58,0,0,1,.7,1.4,8.75,8.75,0,0,1,.2,1.6v6.9h-2.7V103a3,3,0,0,0-.2-1,1.55,1.55,0,0,0-.6-0.8,1.8,1.8,0,0,0-1.1-.3,3.09,3.09,0,0,0-1.1.2,5.55,5.55,0,0,0-.8.6,1.8,1.8,0,0,0-.4.9c0,0.3-.1.7-0.1,1v5.9h-2.7V92.3h2.7l-0.3,7.7h0Z" transform="translate(-17.7 -8)"/><path class="cls-1" d="M216.8,104.9a2.56,2.56,0,0,0,1,1.9,2.72,2.72,0,0,0,2,.7,2.86,2.86,0,0,0,1.7-.4,3.18,3.18,0,0,0,1.2-1.1l2,1.5a5.65,5.65,0,0,1-2.1,1.7,7,7,0,0,1-2.5.5,5.87,5.87,0,0,1-2.3-.4,6.15,6.15,0,0,1-1.9-1.2,5.93,5.93,0,0,1-1.3-1.8,6,6,0,0,1-.5-2.4,6.44,6.44,0,0,1,.5-2.4,4,4,0,0,1,1.3-1.8,6.15,6.15,0,0,1,1.9-1.2,5.87,5.87,0,0,1,2.3-.4,4.92,4.92,0,0,1,2.1.4,4.57,4.57,0,0,1,1.6,1.1,4.89,4.89,0,0,1,1,1.9,6.57,6.57,0,0,1,.4,2.5v0.8h-8.4v0.1Zm5.5-2a2.94,2.94,0,0,0-.7-1.9,2.72,2.72,0,0,0-2-.7,2.35,2.35,0,0,0-1.9.7,3.75,3.75,0,0,0-.9,1.9h5.5Z" transform="translate(-17.7 -8)"/><path class="cls-1" d="M227.6,98.5h2.7v1.7h0a3.74,3.74,0,0,1,1.3-1.5,3.2,3.2,0,0,1,1.9-.5H234c0.2,0,.3.1,0.5,0.1v2.6a1.7,1.7,0,0,0-.7-0.1c-0.2,0-.4-0.1-0.6-0.1a2.41,2.41,0,0,0-1.5.4,2.36,2.36,0,0,0-.9.8,3.56,3.56,0,0,0-.4.9,2,2,0,0,0-.1.7v5.8h-2.7V98.5h0Z" transform="translate(-17.7 -8)"/><path class="cls-1" d="M256.3,103.5a7.08,7.08,0,0,1-.5,2.6,5.58,5.58,0,0,1-1.4,2,8.58,8.58,0,0,1-2,1.3,7.1,7.1,0,0,1-2.6.4,7.46,7.46,0,0,1-2.6-.4,5.71,5.71,0,0,1-2.1-1.3,6,6,0,0,1-1.4-2,7.51,7.51,0,0,1-.5-2.6V93.3h2.9v10.1a5,5,0,0,0,.2,1.2,3.38,3.38,0,0,0,.6,1.2,2.44,2.44,0,0,0,1.1.9,4.26,4.26,0,0,0,1.7.4,2.86,2.86,0,0,0,1.7-.4,2.44,2.44,0,0,0,1.1-.9,3.38,3.38,0,0,0,.6-1.2,5,5,0,0,0,.2-1.2V93.3h2.9C256.3,93.3,256.3,103.5,256.3,103.5Z" transform="translate(-17.7 -8)"/><path class="cls-1" d="M259.6,92.3h2.7V103l4.2-4.5H270l-4.7,4.9,5,5.9h-3.6l-4.3-5.6h0v5.6h-2.7l-0.1-17h0Z" transform="translate(-17.7 -8)"/><path class="cls-1" d="M271.8,98.5h2.7v1.7h0a3.74,3.74,0,0,1,1.3-1.5,3.2,3.2,0,0,1,1.9-.5h0.5c0.2,0,.3.1,0.5,0.1v2.6a1.7,1.7,0,0,0-.7-0.1c-0.2,0-.4-0.1-0.6-0.1a2.41,2.41,0,0,0-1.5.4,2.36,2.36,0,0,0-.9.8,3.55,3.55,0,0,0-.4.9,2,2,0,0,0-.1.7v5.8h-2.8l0.1-10.8h0Z" transform="translate(-17.7 -8)"/><path class="cls-1" d="M287.4,107.9h0a5.21,5.21,0,0,1-1.6,1.4,4.48,4.48,0,0,1-2,.4,7.72,7.72,0,0,1-1.5-.2,3.1,3.1,0,0,1-1.3-.6,2.84,2.84,0,0,1-.9-1,3.19,3.19,0,0,1-.3-1.4,3.34,3.34,0,0,1,.3-1.5,2.19,2.19,0,0,1,.9-1,7.46,7.46,0,0,1,1.2-.7,8.33,8.33,0,0,1,1.5-.4c0.5-.1,1-0.1,1.5-0.2h2.2v-0.3a1.58,1.58,0,0,0-.7-1.5,3.45,3.45,0,0,0-1.8-.5,4.15,4.15,0,0,0-1.6.3,5.67,5.67,0,0,0-1.3.8l-1.4-1.4a4.65,4.65,0,0,1,2.1-1.3,6.9,6.9,0,0,1,2.5-.4,6,6,0,0,1,2,.3,4,4,0,0,1,1.3.7,6.47,6.47,0,0,1,.8.9,4.87,4.87,0,0,1,.4,1.1,4.1,4.1,0,0,1,.1,1.1v7.2h-2.5v-1.8h0.1Zm-0.2-3.4h-1.8a5.07,5.07,0,0,0-1.3.2,3.7,3.7,0,0,0-1.1.5,1,1,0,0,0-.4.9,0.84,0.84,0,0,0,.2.6,1.51,1.51,0,0,0,.4.4l0.6,0.3a1.7,1.7,0,0,0,.7.1,2.82,2.82,0,0,0,2.1-.7,2.67,2.67,0,0,0,.7-1.8C287.2,105.2,287.2,104.5,287.2,104.5Z" transform="translate(-17.7 -8)"/><path class="cls-1" d="M292.4,94.8a1.61,1.61,0,0,1,.5-1.1,1.66,1.66,0,0,1,1.2-.5,2.11,2.11,0,0,1,1.3.5,1.69,1.69,0,0,1,0,2.4,1.9,1.9,0,0,1-1.3.5,1.66,1.66,0,0,1-1.2-.5A2.36,2.36,0,0,1,292.4,94.8Zm0.4,3.7h2.7v10.9h-2.7V98.5Z" transform="translate(-17.7 -8)"/><path class="cls-1" d="M298.7,98.5h2.6v1.7h0a5.26,5.26,0,0,1,1.2-1.4,3.4,3.4,0,0,1,2.2-.6,4.06,4.06,0,0,1,1.9.4,2.94,2.94,0,0,1,1.2,1,4.58,4.58,0,0,1,.7,1.4,8.75,8.75,0,0,1,.2,1.6v6.9H306V103a3,3,0,0,0-.2-1,1.56,1.56,0,0,0-.6-0.8,1.8,1.8,0,0,0-1.1-.3,3.09,3.09,0,0,0-1.1.2,5.55,5.55,0,0,0-.8.6,1.8,1.8,0,0,0-.4.9c0,0.3-.1.7-0.1,1v5.9h-3v-11Z" transform="translate(-17.7 -8)"/><path class="cls-1" d="M313.9,104.9a2.56,2.56,0,0,0,1,1.9,2.72,2.72,0,0,0,2,.7,2.86,2.86,0,0,0,1.7-.4,3.18,3.18,0,0,0,1.2-1.1l2,1.5a5.65,5.65,0,0,1-2.1,1.7,7,7,0,0,1-2.5.5,5.87,5.87,0,0,1-2.3-.4,6.15,6.15,0,0,1-1.9-1.2,5.94,5.94,0,0,1-1.3-1.8,6,6,0,0,1-.5-2.4,6.44,6.44,0,0,1,.5-2.4,4,4,0,0,1,1.3-1.8,6.15,6.15,0,0,1,1.9-1.2,5.87,5.87,0,0,1,2.3-.4,4.92,4.92,0,0,1,2.1.4,4.57,4.57,0,0,1,1.6,1.1,4.89,4.89,0,0,1,1,1.9,6.57,6.57,0,0,1,.4,2.5v0.8h-8.4v0.1Zm5.6-2a2.94,2.94,0,0,0-.7-1.9,2.72,2.72,0,0,0-2-.7,2.35,2.35,0,0,0-1.9.7,3.75,3.75,0,0,0-.9,1.9h5.5Z" transform="translate(-17.7 -8)"/></svg>