<svg id="SvgjsSvg1011" xmlns="http://www.w3.org/2000/svg" version="1.1" xmlns:xlink="http://www.w3.org/1999/xlink" xmlns:svgjs="http://svgjs.com/svgjs" width="42" height="43" viewBox="0 0 42 43"><title>Shape 135</title><desc>Created with Avocode.</desc><defs id="SvgjsDefs1012"></defs><path id="SvgjsPath1013" d="M385.999 119C374.42 119 365 128.453 365 140.073C365 144.621 366.839 148.704 367.63 150.249C367.999 150.968 368.879 151.251 369.59499999999997 150.882C370.31199999999995 150.512 370.594 149.63 370.22599999999994 148.91C369.5319999999999 147.555 367.91799999999995 143.982 367.91799999999995 140.073C367.91799999999995 130.068 376.02899999999994 121.92800000000001 385.99899999999997 121.92800000000001C395.96999999999997 121.92800000000001 404.082 130.068 404.082 140.073C404.082 150.079 395.96999999999997 158.219 385.999 158.219C382.1 158.219 379.00100000000003 156.864 377.85 156.281C377.509 156.108 377.113 156.077 376.749 156.19400000000002L367.559 159.14100000000002C366.79100000000005 159.38700000000003 366.36800000000005 160.211 366.613 160.98100000000002C366.811 161.604 367.385 162.00000000000003 368.002 162.00000000000003C368.15000000000003 162.00000000000003 368.29900000000004 161.97800000000004 368.447 161.93000000000004L377.083 159.16100000000003C378.889 160.00300000000004 382.069 161.14700000000002 385.999 161.14700000000002C397.579 161.14700000000002 407 151.693 407 140.073C407 128.453 397.579 119 385.999 119ZM381.859 136.48C381.21999999999997 136.97199999999998 381.09999999999997 137.891 381.591 138.533C382.082 139.17399999999998 382.997 139.295 383.637 138.802C384.084 138.458 385.272 137.542 385.098 135.904C384.991 134.93099999999998 384.04400000000004 133.595 383.269 132.646C382.135 131.25699999999998 381.174 130.434 380.42 130.20299999999997C379.714 129.98299999999998 378.99 130.01799999999997 378.26800000000003 130.30599999999998C376.78200000000004 130.902 375.73400000000004 131.88899999999998 375.23600000000005 133.16099999999997C374.75100000000003 134.39899999999997 374.83900000000006 135.78499999999997 375.49100000000004 137.16999999999996C377.01400000000007 140.39599999999996 379.04900000000004 143.18099999999995 381.54 145.44999999999996C381.55 145.45899999999995 381.56 145.46799999999996 381.57 145.47699999999995C384.096 147.71899999999994 387.085 149.44499999999994 390.455 150.60999999999996C391.09499999999997 150.83099999999996 391.722 150.94099999999995 392.325 150.94099999999995C393.082 150.94099999999995 393.8 150.76699999999994 394.453 150.42199999999994C395.65799999999996 149.78499999999994 396.51899999999995 148.62999999999994 396.94599999999997 147.08099999999993C397.15099999999995 146.32899999999992 397.10499999999996 145.60399999999993 396.81199999999995 144.92799999999994C396.49699999999996 144.19699999999995 395.57699999999994 143.33099999999993 394.07599999999996 142.35299999999995C393.051 141.68499999999995 391.62499999999994 140.88899999999995 390.64399999999995 140.88899999999995C390.64399999999995 140.88899999999995 390.643 140.88899999999995 390.64199999999994 140.88899999999995C389.00699999999995 140.89499999999995 388.22999999999996 142.18099999999995 387.93799999999993 142.66599999999994C387.52099999999996 143.35699999999994 387.74099999999993 144.25799999999995 388.42999999999995 144.67699999999994C389.11899999999997 145.09599999999995 390.01599999999996 144.87499999999994 390.43399999999997 144.18299999999994C390.549 143.99199999999993 390.623 143.88999999999993 390.669 143.83699999999993C391.493 144.07699999999994 393.697 145.52399999999994 394.149 146.13299999999992C394.156 146.16499999999994 394.157 146.2139999999999 394.133 146.30399999999992C393.989 146.8259999999999 393.692 147.51499999999993 393.092 147.8319999999999C392.532 148.1279999999999 391.864 147.99999999999991 391.404 147.8419999999999C388.406 146.8049999999999 385.752 145.2759999999999 383.517 143.2969999999999C383.516 143.2969999999999 383.516 143.2959999999999 383.515 143.2949999999999C381.30199999999996 141.2829999999999 379.489 138.8009999999999 378.12899999999996 135.9179999999999C377.91999999999996 135.47499999999988 377.71999999999997 134.8229999999999 377.95199999999994 134.23199999999989C378.19899999999996 133.59899999999988 378.84899999999993 133.2269999999999 379.34899999999993 133.02699999999987C379.43499999999995 132.99199999999988 379.48299999999995 132.98699999999988 379.5179999999999 132.99199999999988C380.1719999999999 133.3749999999999 381.8469999999999 135.41299999999987 382.17599999999993 136.20799999999988C382.12799999999993 136.25999999999988 382.03599999999994 136.34399999999988 381.8589999999999 136.47999999999988Z " fill="#5584ff" fill-opacity="1" transform="matrix(1,0,0,1,-365,-119)"></path></svg>