<svg id="SvgjsSvg1008" xmlns="http://www.w3.org/2000/svg" version="1.1" xmlns:xlink="http://www.w3.org/1999/xlink" xmlns:svgjs="http://svgjs.com/svgjs" width="43" height="43" viewBox="0 0 43 43"><title>Shape 137</title><desc>Created with Avocode.</desc><defs id="SvgjsDefs1009"></defs><path id="SvgjsPath1010" d="M637.5 119C625.645 119 616 128.645 616 140.5C616 152.355 625.645 162 637.5 162C638.387 162 639.106 161.281 639.106 160.394C639.106 159.507 638.387 158.788 637.5 158.788C627.416 158.788 619.212 150.584 619.212 140.5C619.212 130.416 627.4159999999999 122.212 637.5 122.212C647.584 122.212 655.788 130.416 655.788 140.5V145.474C655.788 147.331 654.277 148.84099999999998 652.42 148.84099999999998C650.563 148.84099999999998 649.0519999999999 147.331 649.0519999999999 145.474V140.5C649.0519999999999 134.129 643.8699999999999 128.947 637.4999999999999 128.947C631.1289999999999 128.947 625.9469999999999 134.129 625.9469999999999 140.5C625.9469999999999 146.87 631.1289999999999 152.053 637.4999999999999 152.053C641.0349999999999 152.053 644.2029999999999 150.45499999999998 646.3239999999998 147.945C647.3029999999999 150.352 649.6649999999998 152.053 652.4199999999998 152.053C656.0479999999999 152.053 658.9999999999999 149.102 658.9999999999999 145.474V140.5C658.9999999999999 128.645 649.3549999999999 119 637.4999999999999 119ZM637.5 148.841C632.901 148.841 629.159 145.09900000000002 629.159 140.5C629.159 135.9 632.901 132.159 637.5 132.159C642.099 132.159 645.84 135.9 645.84 140.5C645.84 145.099 642.099 148.841 637.5 148.841Z " fill="#5584ff" fill-opacity="1" transform="matrix(1,0,0,1,-616,-119)"></path></svg>