<svg id="SvgjsSvg1014" xmlns="http://www.w3.org/2000/svg" version="1.1" xmlns:xlink="http://www.w3.org/1999/xlink" xmlns:svgjs="http://svgjs.com/svgjs" width="43" height="43" viewBox="0 0 43 43"><title>Shape 136</title><desc>Created with Avocode.</desc><defs id="SvgjsDefs1015"></defs><path id="SvgjsPath1016" d="M989.138 157.789C988.182 157.95299999999997 987.206 158.036 986.2370000000001 158.036C976.7660000000001 158.036 969.061 150.26 969.061 140.702C969.061 139.61599999999999 969.1600000000001 138.533 969.356 137.483C969.421 137.137 969.364 136.78 969.196 136.472C968.4110000000001 135.03900000000002 967.996 133.413 967.996 131.77100000000002C967.996 126.39600000000002 972.329 122.02400000000002 977.655 122.02400000000002C978.483 122.02400000000002 979.153 121.34700000000001 979.153 120.51200000000001C979.153 119.67700000000002 978.4830000000001 119.00000000000001 977.655 119.00000000000001C970.677 119.00000000000001 965 124.72900000000001 965 131.77100000000002C965 133.74 965.455 135.692 966.321 137.449C966.1510000000001 138.51700000000002 966.065 139.608 966.065 140.702C966.065 151.927 975.114 161.06 986.2370000000001 161.06C987.374 161.06 988.5190000000001 160.963 989.6400000000001 160.77C990.4560000000001 160.63000000000002 991.0040000000001 159.84900000000002 990.8660000000001 159.026C990.7270000000001 158.203 989.9540000000001 157.649 989.1380000000001 157.78900000000002ZM1006.09 144.297C1006.3000000000001 143.109 1006.4100000000001 141.902 1006.4100000000001 140.702C1006.4100000000001 129.475 997.3600000000001 120.342 986.2370000000001 120.342C985.19 120.342 984.1360000000001 120.42399999999999 983.104 120.586C982.287 120.715 981.7270000000001 121.488 981.855 122.313C981.982 123.139 982.748 123.703 983.566 123.575C984.445 123.436 985.344 123.366 986.2370000000001 123.366C995.7080000000001 123.366 1003.4100000000001 131.143 1003.4100000000001 140.702C1003.4100000000001 141.864 1003.3000000000001 143.034 1003.07 144.178C1003 144.495 1003.0400000000001 144.82399999999998 1003.1800000000001 145.117C1003.7800000000001 146.41 1004.08 147.79399999999998 1004.08 149.22899999999998C1004.08 154.60399999999998 999.7460000000001 158.976 994.4200000000001 158.976C993.5930000000001 158.976 992.922 159.653 992.922 160.488C992.922 161.323 993.5930000000001 162 994.4200000000001 162C1001.4000000000001 162 1007.07 156.271 1007.07 149.22899999999998C1007.07 147.517 1006.75 145.85999999999999 1006.09 144.297ZM993.88 144.138C993.88 143.235 993.704 142.463 993.358 141.84300000000002C993.012 141.222 992.524 140.70100000000002 991.906 140.294C991.2869999999999 139.89000000000001 990.5269999999999 139.53900000000002 989.6469999999999 139.256C988.776 138.973 987.7769999999999 138.71 986.6809999999999 138.471C985.8119999999999 138.269 985.1779999999999 138.112 984.799 138.005C984.418 137.899 984.04 137.752 983.674 137.566C983.304 137.379 983.01 137.153 982.798 136.892C982.584 136.628 982.48 136.322 982.48 135.96C982.48 135.375 982.785 134.887 983.415 134.471C984.034 134.061 984.861 133.853 985.8729999999999 133.853C986.9789999999999 133.853 987.7599999999999 134.03900000000002 988.2599999999999 134.422C988.7529999999999 134.801 989.1809999999999 135.334 989.5319999999999 136.008C989.81 136.49200000000002 990.0569999999999 136.822 990.2889999999999 137.029C990.5779999999999 137.286 991.0039999999999 137.341 991.3099999999998 137.341C991.7999999999998 137.341 992.2149999999998 137.167 992.5419999999998 136.823C992.8699999999998 136.478 993.0359999999998 136.086 993.0359999999998 135.65800000000002C993.0359999999998 135.18800000000002 992.9019999999998 134.699 992.6389999999998 134.205C992.3769999999998 133.71300000000002 991.9539999999998 133.234 991.3829999999998 132.78400000000002C990.8119999999998 132.33400000000003 990.0849999999998 131.96900000000002 989.2219999999999 131.69600000000003C988.3559999999999 131.42700000000002 987.3169999999999 131.28900000000002 986.1329999999998 131.28900000000002C984.6479999999998 131.28900000000002 983.3399999999998 131.496 982.2439999999998 131.906C981.1479999999998 132.314 980.2979999999998 132.90800000000002 979.7189999999998 133.671C979.1389999999998 134.434 978.8449999999998 135.31799999999998 978.8449999999998 136.298C978.8449999999998 137.327 979.1239999999998 138.2 979.6719999999998 138.894C980.2209999999998 139.58700000000002 980.9739999999998 140.14100000000002 981.9099999999999 140.543C982.8489999999998 140.946 984.0269999999998 141.302 985.4109999999998 141.601C986.4399999999998 141.818 987.2789999999999 142.028 987.9079999999998 142.225C988.5259999999998 142.418 989.0389999999998 142.70499999999998 989.4319999999998 143.075C989.8239999999998 143.446 990.0229999999998 143.935 990.0229999999998 144.527C990.0229999999998 145.28699999999998 989.6639999999998 145.902 988.9279999999998 146.41C988.2029999999997 146.909 987.2459999999998 147.162 986.0859999999998 147.162C985.2419999999997 147.162 984.5509999999998 147.036 984.0319999999998 146.788C983.5139999999998 146.541 983.1059999999998 146.221 982.8189999999998 145.839C982.5339999999999 145.458 982.2649999999999 144.977 982.0169999999998 144.406C981.8159999999998 143.928 981.5689999999998 143.561 981.2839999999999 143.318C980.9989999999999 143.07500000000002 980.6459999999998 142.95100000000002 980.2329999999998 142.95100000000002C979.7169999999999 142.95100000000002 979.3039999999999 143.10500000000002 978.9719999999999 143.42100000000002C978.6429999999999 143.73200000000003 978.4759999999999 144.11200000000002 978.4759999999999 144.55C978.4759999999999 145.305 978.7539999999999 146.091 979.3009999999999 146.889C979.8509999999999 147.68800000000002 980.574 148.336 981.4519999999999 148.81400000000002C982.6899999999999 149.47600000000003 984.2809999999998 149.812 986.1849999999998 149.812C987.7709999999998 149.812 989.1639999999999 149.566 990.3239999999998 149.08C991.4819999999999 148.59400000000002 992.3739999999998 147.912 992.9739999999998 147.054C993.5749999999998 146.196 993.8799999999998 145.215 993.8799999999998 144.138Z " fill="#5584ff" fill-opacity="1" transform="matrix(1,0,0,1,-965,-119)"></path></svg>