<svg id="Capa_1" data-name="Capa 1" xmlns="http://www.w3.org/2000/svg" viewBox="0 0 66.85 20.79"><defs><style>.cls-1{fill:#af7ac4;}.cls-2{fill:#fff;}</style></defs><title>Vector Smart Object6</title><g id="Group-2"><path class="cls-1" d="M20,8.74a6.76,6.76,0,0,0-5.54,2.89A6.78,6.78,0,0,0,4.72,10V3.19A1.34,1.34,0,0,0,2,3.19V15.46a6.85,6.85,0,0,0,6.8,6.86,6.76,6.76,0,0,0,5.55-2.9,6.78,6.78,0,0,0,5.65,3,6.6,6.6,0,0,0,4.17-1.18,1.43,1.43,0,0,0,.65-1.8,1.29,1.29,0,0,0-1.79-.63,5.27,5.27,0,0,1-3,.9,4.13,4.13,0,0,1-3.9-2.81h9.34a1.34,1.34,0,0,0,1.35-1.34A6.7,6.7,0,0,0,20,8.74ZM8.83,19.61a4.13,4.13,0,0,1-4.11-4.15v0A4.12,4.12,0,1,1,8.83,19.61Zm7.29-5.38A4.14,4.14,0,0,1,20,11.44,4,4,0,0,1,24,14.23H16.12Z" transform="translate(-2.04 -1.85)"/><path id="_2be" data-name="2be" class="cls-2" d="M37.37,20.06H31.54L38,11.89a4.65,4.65,0,0,0,.32-4.52,5.38,5.38,0,0,0-2.85-2.93,5.5,5.5,0,0,0-6.1,1.15v0a5.21,5.21,0,0,0-1.55,3.67,1.33,1.33,0,0,0,1.33,1.31,1.31,1.31,0,0,0,1.33-1.31A2.73,2.73,0,0,1,31.78,7a2.81,2.81,0,0,1,4,3.62L28,20.46a1.48,1.48,0,0,0-.35.91,1.26,1.26,0,0,0,1.28,1.28h8.47a1.26,1.26,0,0,0,1.28-1.28,1.28,1.28,0,0,0-1.28-1.3h0ZM47.47,9.23a6.66,6.66,0,0,0-4,1.36V4a1.32,1.32,0,0,0-2.64,0v12a6.68,6.68,0,1,0,6.68-6.68h0Zm0,10.73a4,4,0,0,1-4-4v0a4,4,0,1,1,4,4.07h0ZM62.2,9.28a6.68,6.68,0,1,0,0,13.37,6.52,6.52,0,0,0,4.1-1.14,1.39,1.39,0,0,0,.64-1.76,1.27,1.27,0,0,0-1.76-.61,5.23,5.23,0,0,1-3,.88,4.06,4.06,0,0,1-3.83-2.74h9.18A1.31,1.31,0,0,0,68.89,16,6.56,6.56,0,0,0,62.2,9.28h0Zm0,2.64a3.89,3.89,0,0,1,3.86,2.72H58.37a4.07,4.07,0,0,1,3.83-2.72h0Z" transform="translate(-2.04 -1.85)"/></g></svg>