<svg id="Capa_1" data-name="Capa 1" xmlns="http://www.w3.org/2000/svg" viewBox="0 0 128.25 20.76"><defs><style>.cls-1{fill:#1cbcff;}.cls-2{fill:#fff;}</style></defs><title>Vector Smart Object4</title><g id="befiesta-copy-3-_-enriched-copy-_-Fill-18-Copy-2-_-Fill-19-Copy-2-Copy-Copy" data-name="befiesta-copy-3-+-enriched-copy-+-Fill-18-Copy-2-+-Fill-19-Copy-2-Copy-Copy"><g id="befiesta-copy-3-_-enriched-copy" data-name="befiesta-copy-3-+-enriched-copy"><path class="cls-1" d="M22.26,10.18a6.76,6.76,0,0,0-5.54,2.89A6.78,6.78,0,0,0,7,11.43V4.63a1.34,1.34,0,0,0-2.68,0V16.9a6.85,6.85,0,0,0,6.8,6.86,6.76,6.76,0,0,0,5.54-2.9,6.77,6.77,0,0,0,5.65,3,6.59,6.59,0,0,0,4.17-1.17,1.43,1.43,0,0,0,.65-1.8,1.29,1.29,0,0,0-1.79-.63,5.28,5.28,0,0,1-3,.9,4.13,4.13,0,0,1-3.9-2.81H27.7A1.34,1.34,0,0,0,29.05,17,6.69,6.69,0,0,0,22.26,10.18ZM11.07,21A4.13,4.13,0,0,1,7,16.89v0A4.12,4.12,0,1,1,11.07,21Zm7.29-5.38a4.14,4.14,0,0,1,3.9-2.79,4,4,0,0,1,3.93,2.79H18.36Z" transform="translate(-4.27 -3.29)"/><path id="enriched-copy" class="cls-2" d="M37.88,10.16a6.93,6.93,0,0,0,0,13.86,6.76,6.76,0,0,0,4.25-1.19A1.44,1.44,0,0,0,42.8,21,1.32,1.32,0,0,0,41,20.38a5.42,5.42,0,0,1-3.09.91,4.21,4.21,0,0,1-4-2.84h9.52a1.36,1.36,0,0,0,1.38-1.35,6.8,6.8,0,0,0-6.93-6.93h0Zm0,2.73a4,4,0,0,1,4,2.82h-8a4.22,4.22,0,0,1,4-2.82h0Zm14.66-2.73a6.93,6.93,0,0,0-6.93,6.93v5.55a1.37,1.37,0,1,0,2.73,0V17.09a4.2,4.2,0,0,1,8.39,0v5.55a1.37,1.37,0,1,0,2.73,0V17.09a6.94,6.94,0,0,0-6.93-6.93h0Zm15.49,0a6.93,6.93,0,0,0-6.93,6.93v5.55a1.37,1.37,0,1,0,2.73,0V17.12a4.19,4.19,0,0,1,4.2-4.2,1.39,1.39,0,0,0,1.38-1.38A1.36,1.36,0,0,0,68,10.19h0ZM81.41,24.05a6.88,6.88,0,0,0,5.83-3.17A1.38,1.38,0,0,0,86.85,19a1.41,1.41,0,0,0-1.9.41,4.16,4.16,0,0,1-3.53,1.93,4.2,4.2,0,0,1,0-8.39A4.19,4.19,0,0,1,85.06,15a1.41,1.41,0,0,0,1.88.5,1.39,1.39,0,0,0,.5-1.88,6.93,6.93,0,1,0-6,10.41h0Zm14-13.89a6,6,0,0,0-3.34,1V4.67a1.37,1.37,0,0,0-2.73,0v18a1.37,1.37,0,1,0,2.73,0V16.24a3.35,3.35,0,0,1,6.71,0v6.41A1.36,1.36,0,0,0,100.1,24a1.39,1.39,0,0,0,1.38-1.38V16.24a6.1,6.1,0,0,0-6.1-6.07h0Zm14.66,0A6.93,6.93,0,0,0,110,24a6.76,6.76,0,0,0,4.25-1.19A1.44,1.44,0,0,0,115,21a1.32,1.32,0,0,0-1.82-.63,5.42,5.42,0,0,1-3.09.91,4.21,4.21,0,0,1-4-2.84h9.52A1.36,1.36,0,0,0,117,17.09,6.8,6.8,0,0,0,110,10.16h0Zm0,2.73a4,4,0,0,1,4,2.82h-8a4.22,4.22,0,0,1,4-2.82h0Zm15.54-2.79A6.93,6.93,0,1,0,132.52,17V4.64a1.37,1.37,0,0,0-2.73,0v6.87a6.91,6.91,0,0,0-4.2-1.41h0Zm0,11.13a4.2,4.2,0,1,1,4.2-4.22v0a4.2,4.2,0,0,1-4.2,4.2h0Z" transform="translate(-4.27 -3.29)"/></g><g id="Fill-18-Copy-2-_-Fill-19-Copy-2-Copy-Copy" data-name="Fill-18-Copy-2-+-Fill-19-Copy-2-Copy-Copy"><path id="Fill-18-Copy-2" class="cls-2" d="M70.51,10.35a1.33,1.33,0,0,1,0-2,1.39,1.39,0,0,1,2,0,1.4,1.4,0,0,1,0,2,1.46,1.46,0,0,1-2,0" transform="translate(-4.27 -3.29)"/><path id="Fill-19-Copy-2" class="cls-2" d="M71.48,13.23a1.39,1.39,0,0,0-1.39,1.4v7.54a1.41,1.41,0,0,0,2.81,0V14.62a1.39,1.39,0,0,0-1.42-1.4" transform="translate(-4.27 -3.29)"/></g></g></svg>