<svg id="Capa_1" data-name="Capa 1" xmlns="http://www.w3.org/2000/svg" viewBox="0 0 101.08 20.7"><defs><style>.cls-1{fill:#d40066;}.cls-2{fill:#fff;}</style></defs><title>Vector Smart Object12</title><g id="Group-Copy-9-_-foodie" data-name="Group-Copy-9-+-foodie"><g id="Group-Copy-9"><path id="Fill-10" class="cls-1" d="M17.05,16.33a6.85,6.85,0,0,1-6.8,6.88,6.86,6.86,0,0,1-6.8-6.88V4A1.34,1.34,0,1,1,6.14,4v6.83a6.73,6.73,0,0,1,4.12-1.4,6.83,6.83,0,0,1,6.8,6.88h0Zm-2.68,0a4.12,4.12,0,1,0-8.23,0v0a4.12,4.12,0,1,0,8.23,0h0Z" transform="translate(-3.46 -2.68)"/><path id="Fill-11" class="cls-1" d="M28.39,16.39A1.34,1.34,0,0,1,27,17.73H17.69a4.13,4.13,0,0,0,3.9,2.82,5.28,5.28,0,0,0,3-.9,1.29,1.29,0,0,1,1.79.63,1.44,1.44,0,0,1-.65,1.81,6.57,6.57,0,0,1-4.17,1.18,6.88,6.88,0,0,1,0-13.77,6.71,6.71,0,0,1,6.8,6.88h0ZM17.69,15h7.83a4,4,0,0,0-3.93-2.8,4.14,4.14,0,0,0-3.9,2.8h0Z" transform="translate(-3.46 -2.68)"/></g><g id="foodie"><path class="cls-2" d="M36.94,9.57H34.52a4.27,4.27,0,0,1,1.21-3.14,4,4,0,0,1,1.57-1,1.36,1.36,0,0,0,.83-1.73,1.34,1.34,0,0,0-1.73-.82,6.54,6.54,0,0,0-2.58,1.62,6.92,6.92,0,0,0-2,5.06H30.29a1.36,1.36,0,0,0,0,2.72H31.8V22a1.36,1.36,0,1,0,2.72,0V12.29h2.42a1.36,1.36,0,1,0,0-2.73h0Zm8.2,13.81a6.9,6.9,0,1,0-6.9-6.9,6.91,6.91,0,0,0,6.9,6.9h0Zm0-11.09A4.18,4.18,0,1,1,41,16.47a4.18,4.18,0,0,1,4.18-4.18h0ZM60.57,23.38a6.9,6.9,0,1,0-6.9-6.9,6.91,6.91,0,0,0,6.9,6.9h0Zm0-11.09a4.18,4.18,0,1,1-4.18,4.18,4.18,4.18,0,0,1,4.18-4.18h0ZM76,9.51a6.9,6.9,0,1,0,6.9,6.9V4.07a1.36,1.36,0,0,0-2.72,0v6.85A6.88,6.88,0,0,0,76,9.51h0ZM76,20.6a4.18,4.18,0,1,1,4.18-4.21v0A4.18,4.18,0,0,1,76,20.6h0Zm21.61-11a6.9,6.9,0,0,0,0,13.81,6.73,6.73,0,0,0,4.23-1.18,1.43,1.43,0,0,0,.66-1.82,1.32,1.32,0,0,0-1.82-.63,5.39,5.39,0,0,1-3.08.91,4.19,4.19,0,0,1-4-2.83h9.49a1.36,1.36,0,0,0,1.38-1.35,6.77,6.77,0,0,0-6.9-6.9h0Zm0,2.72a4,4,0,0,1,4,2.81H93.68a4.21,4.21,0,0,1,4-2.81h0Z" transform="translate(-3.46 -2.68)"/><g id="Fill-18-Copy-2-_-Fill-19-Copy-2-Copy" data-name="Fill-18-Copy-2-+-Fill-19-Copy-2-Copy"><path id="Fill-18-Copy-2" class="cls-2" d="M86,9.36a1.33,1.33,0,0,1,0-2,1.39,1.39,0,0,1,2,0,1.4,1.4,0,0,1,0,2,1.46,1.46,0,0,1-2,0" transform="translate(-3.46 -2.68)"/><path id="Fill-19-Copy-2" class="cls-2" d="M87,12.24a1.39,1.39,0,0,0-1.39,1.4v7.54a1.41,1.41,0,0,0,2.82,0V13.64A1.4,1.4,0,0,0,87,12.24" transform="translate(-3.46 -2.68)"/></g></g></g></svg>