<svg id="Layer_1" data-name="Layer 1" xmlns="http://www.w3.org/2000/svg" viewBox="0 0 105.99 24"><defs><style>.cls-1{fill:#fff;}.cls-2{fill:#21e1b0;}.cls-3{fill:snow;}</style></defs><title>Untitled-3</title><g id="befiesta"><g id="Fill-18-Copy-2-_-Fill-19-Copy-2-Copy-Copy" data-name="Fill-18-Copy-2- -Fill-19-Copy-2-Copy-Copy"><path id="Fill-18-Copy-2" class="cls-1" d="M59.64,12.37a1.54,1.54,0,0,1-.08-2.18l0.08-.08a1.61,1.61,0,0,1,2.28,0l0,0a1.61,1.61,0,0,1,0,2.26,1.7,1.7,0,0,1-2.32,0" transform="translate(-17 -4)"/><path id="Fill-19-Copy-2" class="cls-1" d="M60.75,15.7a1.6,1.6,0,0,0-1.61,1.59s0,0,0,0V26a1.63,1.63,0,0,0,3.25,0V17.32a1.61,1.61,0,0,0-1.61-1.61h0" transform="translate(-17 -4)"/></g><g id="Fill-10-_-Fill-11-_-Fill-16-Copy-2-_-fiesta" data-name="Fill-10- -Fill-11- -Fill-16-Copy-2- -fiesta"><path class="cls-2" d="M38,11.9a7.83,7.83,0,0,0-6.53,3.48,7.83,7.83,0,0,0-10.83-2.3q-0.26.17-.51,0.36V5.55a1.55,1.55,0,0,0-3.1,0V19.77a7.92,7.92,0,0,0,7.86,7.93,7.83,7.83,0,0,0,6.53-3.48A7.83,7.83,0,0,0,38,27.8a7.62,7.62,0,0,0,4.82-1.35,1.65,1.65,0,0,0,.74-2.14,1.49,1.49,0,0,0-1.95-.79l-0.12.06a6.11,6.11,0,0,1-3.48,1,4.77,4.77,0,0,1-4.51-3.25h10.8a1.56,1.56,0,0,0,1.58-1.53v0a7.75,7.75,0,0,0-7.57-7.92H38ZM24.87,24.56a4.77,4.77,0,0,1-4.76-4.78h0A4.76,4.76,0,1,1,24.87,24.56Zm8.59-6.32A4.78,4.78,0,0,1,38,15a4.65,4.65,0,0,1,4.54,3.22h-9Z" transform="translate(-17 -4)"/><g id="Fill-16-Copy-2-_-fiesta" data-name="Fill-16-Copy-2- -fiesta"><path id="Fill-16-Copy-2" class="cls-3" d="M94.88,23c0-3.16-3.31-4.05-5.25-4.58h0c-1.73-.48-3.36-0.93-3.37-1.86V16.44a1.27,1.27,0,0,1,.53-1.06,2.93,2.93,0,0,1,1.65-.55h0.09a7.67,7.67,0,0,1,3.48,1h0a1.74,1.74,0,0,0,.74.16h0a1.58,1.58,0,0,0,1.1-.46,1.44,1.44,0,0,0,.43-1,1.61,1.61,0,0,0-.82-1.32A11.24,11.24,0,0,0,88.59,12H88.44c-3.31,0-5.59,2-5.54,4.8h0c0,3.15,3.28,4,5.4,4.53s3.29,1,3.31,1.93V23.3A1.43,1.43,0,0,1,91,24.52a3.17,3.17,0,0,1-1.83.53h-0.1a7.94,7.94,0,0,1-4.26-1.35,1.52,1.52,0,0,0-.89-0.26h0A1.5,1.5,0,0,0,83,26.19,11,11,0,0,0,88.93,28h0.15c3.48-.06,5.81-2.11,5.81-5h0" transform="translate(-17 -4)"/><path id="fiesta" class="cls-1" d="M56,12H53.17a4.88,4.88,0,0,1,1.39-3.59,4.65,4.65,0,0,1,1.8-1.16,1.56,1.56,0,1,0-1-2.87,7.55,7.55,0,0,0-3,1.86A7.9,7.9,0,0,0,50,12.05H48.29a1.56,1.56,0,0,0,0,3.11H50V26.28a1.57,1.57,0,1,0,3.14,0V15.12H56A1.56,1.56,0,0,0,56,12h0Zm17.42,0a7.9,7.9,0,1,0,0,15.79h0a7.78,7.78,0,0,0,4.85-1.35A1.64,1.64,0,0,0,79,24.38a1.52,1.52,0,0,0-2-.76l-0.08,0a6.25,6.25,0,0,1-3.54,1,4.82,4.82,0,0,1-4.56-3.24H79.73a1.56,1.56,0,0,0,1.58-1.53h0A7.77,7.77,0,0,0,73.67,12H73.38Zm0,3.11A4.65,4.65,0,0,1,78,18.33H68.79a4.83,4.83,0,0,1,4.56-3.21h0ZM105.08,12h-2.23V5.75a1.57,1.57,0,0,0-3.14,0V12H97.4a1.54,1.54,0,0,0-1.56,1.53h0a1.58,1.58,0,0,0,1.56,1.57h2.32v11.1a1.57,1.57,0,1,0,3.14,0h0V15.16h2.23a1.58,1.58,0,0,0,1.58-1.57A1.56,1.56,0,0,0,105.1,12h0Zm10.16,0a7.93,7.93,0,0,0-8,7.85s0,0.07,0,.1A7.75,7.75,0,0,0,115,27.74h0.26a7,7,0,0,0,4.65-1.57,1.66,1.66,0,0,0,1.52,1.57A1.52,1.52,0,0,0,123,26.27s0-.07,0-0.11V20a7.75,7.75,0,0,0-7.53-8H115.2Zm0,12.62a4.77,4.77,0,0,1-4.9-4.64h0a5,5,0,0,1,4.9-4.88A4.77,4.77,0,0,1,119.89,20a4.65,4.65,0,0,1-4.65,4.65h0Z" transform="translate(-17 -4)"/></g></g></g></svg>