<svg id="Layer_1" data-name="Layer 1" xmlns="http://www.w3.org/2000/svg" viewBox="0 0 302.98 134"><defs><style>.cls-1{fill:#fff;}</style></defs><title>logo_white</title><path id="Fill-7" class="cls-1" d="M61.81,55.27a10.37,10.37,0,0,0-10.53,10.3v0.12A10.53,10.53,0,1,0,61.81,55.27" transform="translate(-17.57 -7.99)"/><path id="Fill-8" class="cls-1" d="M74.8,8C43.32,7.87,17.69,32.8,17.57,63.46s24.93,55.36,56.06,55.82v8.19l42.83-28.09c8.78-10.77,15.21-22.47,15.21-35.58C131.68,33,106.28,8.11,74.8,8h0Zm30.08,61.09h-24a10.53,10.53,0,0,0,9.95,7,13.47,13.47,0,0,0,7.72-2.22,3.27,3.27,0,0,1,4.56,1.52,3.53,3.53,0,0,1-1.64,4.45,16.8,16.8,0,0,1-10.65,2.93A17.6,17.6,0,0,1,76.2,75a17.57,17.57,0,0,1-14.51,7.61A17.33,17.33,0,0,1,44.25,65.57V35.14a3.33,3.33,0,0,1,3.51-3.28,3.37,3.37,0,0,1,3.39,3.28V52a17.27,17.27,0,0,1,10.53-3.51,17.6,17.6,0,0,1,14.63,7.72,17.47,17.47,0,0,1,14.51-7.49c8.43,0,17.44,6,17.44,17.09a3.23,3.23,0,0,1-3.39,3.28h0Z" transform="translate(-17.57 -7.99)"/><path id="Fill-9" class="cls-1" d="M90.95,55.39A10.47,10.47,0,0,0,81,62.29h20a10.33,10.33,0,0,0-10.06-6.9" transform="translate(-17.57 -7.99)"/><polygon class="cls-1" points="56.06 134 56.06 123.35 98.77 91.52 56.06 134"/><g id="Group"><path id="Fill-12-Copy" class="cls-1" d="M147.35,49.42A3.19,3.19,0,0,1,146.3,47a3.65,3.65,0,0,1,1.05-2.46,3.67,3.67,0,0,1,5.15,0A3.37,3.37,0,0,1,153.55,47a3.19,3.19,0,0,1-1.05,2.46,3.63,3.63,0,0,1-2.57,1.05,3.44,3.44,0,0,1-2.57-1.05" transform="translate(-17.57 -7.99)"/><path id="Fill-13-Copy" class="cls-1" d="M194.63,65.34V79.73A3.55,3.55,0,0,1,191,83.24a3.45,3.45,0,0,1-3.51-3.51V65.34a11.12,11.12,0,0,0-22.24,0V79.73a3.63,3.63,0,0,1-7.26,0V65.34a18.32,18.32,0,0,1,36.63,0" transform="translate(-17.57 -7.99)"/><path id="Fill-14-Copy" class="cls-1" d="M273.39,51.64V33.85a3.6,3.6,0,0,1,3.51-3.51,3.55,3.55,0,0,1,3.63,3.51V65.92a18,18,0,1,1-7.14-14.28h0Zm0,14.28h0A11.12,11.12,0,1,0,262.27,76.8a11,11,0,0,0,11.12-10.88h0Z" transform="translate(-17.57 -7.99)"/><path id="Fill-15-Copy" class="cls-1" d="M320.56,65.22a3.62,3.62,0,0,1-3.63,3.51H291.77A11.06,11.06,0,0,0,302.3,76.1a14.56,14.56,0,0,0,8.19-2.34,3.48,3.48,0,0,1,4.8,1.64c0.82,1.76-.12,3.63-1.76,4.68A18.3,18.3,0,1,1,302.3,47.31c8.78,0,18.26,6.32,18.26,17.91h0Zm-28.79-3.51h21.07c-1.52-5-6.2-7.26-10.53-7.26a11.11,11.11,0,0,0-10.53,7.26h0Z" transform="translate(-17.57 -7.99)"/><path id="Fill-16-Copy" class="cls-1" d="M227.17,72.24c-0.12-7.37-7.61-9.36-12.05-10.65H215c-4-1.05-7.72-2.11-7.72-4.33V57.14a3.09,3.09,0,0,1,1.17-2.46,6.7,6.7,0,0,1,4-1.17h0.23a18.71,18.71,0,0,1,8.08,2.22h0.12a5,5,0,0,0,1.76.35h0A3.63,3.63,0,0,0,225.18,55a2.87,2.87,0,0,0,.94-2.46,3.58,3.58,0,0,0-2-3.16,26.13,26.13,0,0,0-11.23-2.81h-0.35c-7.61.12-12.87,4.68-12.76,11.12v0.12c0.12,7.26,7.49,9.25,12.41,10.53s7.61,2.34,7.61,4.45v0.12a3.34,3.34,0,0,1-1.4,2.81A7.5,7.5,0,0,1,214.18,77h-0.23a18.06,18.06,0,0,1-9.83-3.16,4,4,0,0,0-2.11-.59h0a3.52,3.52,0,0,0-3.51,3.51A3.36,3.36,0,0,0,200,79.61a24.76,24.76,0,0,0,13.58,4.21h0.35c8-.12,13.34-4.92,13.22-11.59h0" transform="translate(-17.57 -7.99)"/><path id="Fill-17-Copy" class="cls-1" d="M149.81,56.79a3.57,3.57,0,0,0-3.63,3.63V79.73a3.63,3.63,0,0,0,7.26,0V60.42a3.65,3.65,0,0,0-3.63-3.63" transform="translate(-17.57 -7.99)"/><path id="Fill-18-Copy" class="cls-1" d="M233.25,49.42A3.19,3.19,0,0,1,232.2,47a3.65,3.65,0,0,1,1.05-2.46,3.67,3.67,0,0,1,5.15,0A3.37,3.37,0,0,1,239.45,47a3.19,3.19,0,0,1-1.05,2.46,3.63,3.63,0,0,1-2.57,1.05,3.44,3.44,0,0,1-2.57-1.05" transform="translate(-17.57 -7.99)"/><path id="Fill-19-Copy" class="cls-1" d="M235.71,56.79a3.57,3.57,0,0,0-3.63,3.63V79.73a3.63,3.63,0,0,0,7.26,0V60.42a3.65,3.65,0,0,0-3.63-3.63" transform="translate(-17.57 -7.99)"/></g><path class="cls-1" d="M152.39,96h2.46l6.9,16h-3.28L157,108.4h-7l-1.4,3.63h-3.16Zm3.74,9.95-2.46-6.55-2.57,6.55h5Z" transform="translate(-17.57 -7.99)"/><path class="cls-1" d="M163.39,101.15H166v1.76h0a3.44,3.44,0,0,1,1.17-1.4,4,4,0,0,1,2.11-.59,4.85,4.85,0,0,1,1.87.35,5.2,5.2,0,0,1,1.29.94,2.67,2.67,0,0,1,.7,1.4,6.91,6.91,0,0,1,.23,1.64v6.9h-2.69v-6.55a3.42,3.42,0,0,0-.23-1.05,2.1,2.1,0,0,0-.59-0.82,1.75,1.75,0,0,0-1.17-.35,3.46,3.46,0,0,0-1.17.23,2.1,2.1,0,0,0-.82.59,2.35,2.35,0,0,0-.47.94,3.24,3.24,0,0,0-.12,1.05v6h-2.69v-11h0Z" transform="translate(-17.57 -7.99)"/><path class="cls-1" d="M175.91,106.65a5.24,5.24,0,0,1,.47-2.34,4.89,4.89,0,0,1,1.29-1.76,6.29,6.29,0,0,1,1.87-1.17,7.56,7.56,0,0,1,2.34-.47,5.24,5.24,0,0,1,2.34.47,5.1,5.1,0,0,1,1.87,1.17,4.89,4.89,0,0,1,1.29,1.76,6.08,6.08,0,0,1,0,4.68,4.89,4.89,0,0,1-1.29,1.76,6.29,6.29,0,0,1-1.87,1.17,7.57,7.57,0,0,1-2.34.47,5.24,5.24,0,0,1-2.34-.47,5.1,5.1,0,0,1-1.87-1.17,4.89,4.89,0,0,1-1.29-1.76A5.24,5.24,0,0,1,175.91,106.65Zm2.69,0a3.46,3.46,0,0,0,.23,1.17,4.75,4.75,0,0,0,.59,1.05,1.7,1.7,0,0,0,1.05.7,2.31,2.31,0,0,0,1.29.23,4.21,4.21,0,0,0,1.29-.23l1.05-.7a4.74,4.74,0,0,0,.59-1.05,4.16,4.16,0,0,0,.23-1.17,3.46,3.46,0,0,0-.23-1.17,4.74,4.74,0,0,0-.59-1.05,1.7,1.7,0,0,0-1.05-.7,2.31,2.31,0,0,0-1.29-.23,4.2,4.2,0,0,0-1.29.23l-1.05.7a4.74,4.74,0,0,0-.59,1.05A2.94,2.94,0,0,0,178.61,106.65Z" transform="translate(-17.57 -7.99)"/><path class="cls-1" d="M189,103.49v-2.34h2.22V98h2.69v3.16h3v2.34h-3v4.8a2.1,2.1,0,0,0,.35,1.29,1.23,1.23,0,0,0,1.17.47,2.28,2.28,0,0,0,.82-0.12,1.66,1.66,0,0,0,.7-0.23V112a2.34,2.34,0,0,1-1.05.23c-0.47,0-.82.12-1.05,0.12a7.08,7.08,0,0,1-1.76-.23,1.7,1.7,0,0,1-1.05-.7,3.66,3.66,0,0,1-.59-1.17,7.2,7.2,0,0,1-.12-1.64v-5l-2.34-.12h0Z" transform="translate(-17.57 -7.99)"/><path class="cls-1" d="M201.89,102.67h0a3.89,3.89,0,0,1,1.17-1.29,3.74,3.74,0,0,1,2.11-.59,4.85,4.85,0,0,1,1.87.35,5.2,5.2,0,0,1,1.29.94,2.67,2.67,0,0,1,.7,1.4,6.91,6.91,0,0,1,.23,1.64V112h-2.69v-6.55a3.42,3.42,0,0,0-.23-1.05,2.1,2.1,0,0,0-.59-0.82,1.55,1.55,0,0,0-1.17-.35,3.46,3.46,0,0,0-1.17.23,2.1,2.1,0,0,0-.82.59,2.35,2.35,0,0,0-.47.94,3.24,3.24,0,0,0-.12,1.05v6h-2.69V94.83H202l-0.12,7.84h0Z" transform="translate(-17.57 -7.99)"/><path class="cls-1" d="M214.3,107.58a2.64,2.64,0,0,0,.94,1.87,3,3,0,0,0,2,.7,2.82,2.82,0,0,0,1.76-.47,3.32,3.32,0,0,0,1.17-1.05l2,1.52a4.52,4.52,0,0,1-2.11,1.64,6.11,6.11,0,0,1-2.46.47,5.24,5.24,0,0,1-2.34-.47,5.1,5.1,0,0,1-1.87-1.17,4.89,4.89,0,0,1-1.29-1.76,6.08,6.08,0,0,1,0-4.68,4.89,4.89,0,0,1,1.29-1.76,6.28,6.28,0,0,1,1.87-1.17,7.57,7.57,0,0,1,2.34-.47,6.63,6.63,0,0,1,2.11.35,5.27,5.27,0,0,1,1.64,1.17,4.88,4.88,0,0,1,1.05,1.87,8,8,0,0,1,.35,2.57v0.7l-8.43.12h0Zm5.62-2.11a2.47,2.47,0,0,0-.7-1.87,3.17,3.17,0,0,0-4,0,2.55,2.55,0,0,0-.82,1.87h5.5Z" transform="translate(-17.57 -7.99)"/><path class="cls-1" d="M225.18,101.15h2.69v1.76h0a4.08,4.08,0,0,1,1.29-1.52,3.43,3.43,0,0,1,1.87-.47h0.47c0.12,0,.35.12,0.47,0.12v2.69c-0.23,0-.47-0.12-0.7-0.12h-0.7A2.93,2.93,0,0,0,229,104a3.16,3.16,0,0,0-.94.82,3.51,3.51,0,0,0-.47.94,2.06,2.06,0,0,0-.12.7v5.85h-2.69l0.35-11.12h0Z" transform="translate(-17.57 -7.99)"/><path class="cls-1" d="M253.86,106.18a6,6,0,0,1-.47,2.57,6.12,6.12,0,0,1-1.4,2,7.24,7.24,0,0,1-2,1.29,7.31,7.31,0,0,1-5.15,0,6.37,6.37,0,0,1-2.11-1.29,6.12,6.12,0,0,1-1.4-2,6.3,6.3,0,0,1-.47-2.57V96h2.81v10.06a6,6,0,0,0,.23,1.29,3.66,3.66,0,0,0,.59,1.17,3.19,3.19,0,0,0,1.17.94,4.57,4.57,0,0,0,3.51,0,4.58,4.58,0,0,0,1.17-.94,5.47,5.47,0,0,0,.59-1.17,5,5,0,0,0,.23-1.29V96H254l-0.12,10.18h0Z" transform="translate(-17.57 -7.99)"/><path class="cls-1" d="M257.13,94.83h2.69v10.77L264,101h3.51l-4.68,4.92,5,6h-3.63l-4.33-5.62h0v5.62h-2.69l-0.12-17.09h0Z" transform="translate(-17.57 -7.99)"/><path class="cls-1" d="M269.3,101.15H272v1.76h0a4.08,4.08,0,0,1,1.29-1.52,3.43,3.43,0,0,1,1.87-.47h0.47c0.12,0,.35.12,0.47,0.12v2.69c-0.23,0-.47-0.12-0.7-0.12h-0.7a2.93,2.93,0,0,0-1.52.35,3.16,3.16,0,0,0-.94.82,1.56,1.56,0,0,0-.35.94,2.06,2.06,0,0,0-.12.7v5.85h-2.69C269.3,112,269.3,101.15,269.3,101.15Z" transform="translate(-17.57 -7.99)"/><path class="cls-1" d="M285,110.51h0a5.73,5.73,0,0,1-1.52,1.4,5.51,5.51,0,0,1-2,.47,8,8,0,0,1-1.52-.23,4.32,4.32,0,0,1-1.29-.59,3,3,0,0,1-1.29-2.46,3.24,3.24,0,0,1,.35-1.52,2.55,2.55,0,0,1,.82-1.05,12.76,12.76,0,0,1,1.29-.7,5.81,5.81,0,0,1,1.52-.35,6.68,6.68,0,0,1,1.52-.12H285V105a1.74,1.74,0,0,0-.7-1.52,2.82,2.82,0,0,0-1.76-.47,3.74,3.74,0,0,0-1.64.35,4.83,4.83,0,0,0-1.29.82l-1.4-1.4a4.9,4.9,0,0,1,2.11-1.29,9.11,9.11,0,0,1,2.46-.47,9.28,9.28,0,0,1,2,.23,2.31,2.31,0,0,1,1.29.7,3.16,3.16,0,0,1,.82.94,1.89,1.89,0,0,1,.35,1.05,3.24,3.24,0,0,1,.12,1.05v7.26h-2.46l0.12-1.76h0Zm-0.12-3.39H283a4.2,4.2,0,0,0-1.29.23,2.21,2.21,0,0,0-1.05.47,1.22,1.22,0,0,0-.47.94,1.48,1.48,0,0,0,.12.7,1.77,1.77,0,0,0,.47.47,1.24,1.24,0,0,0,.59.23c0.23,0,.47.12,0.7,0.12a2.86,2.86,0,0,0,2.11-.7,2.47,2.47,0,0,0,.7-1.87C284.87,107.82,284.87,107.11,284.87,107.11Z" transform="translate(-17.57 -7.99)"/><path class="cls-1" d="M290,97.4a1.5,1.5,0,0,1,.47-1.17,1.6,1.6,0,0,1,1.29-.47,1.76,1.76,0,0,1,1.29.47,1.7,1.7,0,0,1,0,2.34,2,2,0,0,1-2.57,0A1.5,1.5,0,0,1,290,97.4Zm0.35,3.74h2.69V112h-2.69V101.15Z" transform="translate(-17.57 -7.99)"/><path class="cls-1" d="M296.22,101.15h2.57v1.76h0a3.44,3.44,0,0,1,1.17-1.4,4,4,0,0,1,2.11-.59,4.85,4.85,0,0,1,1.87.35,5.2,5.2,0,0,1,1.29.94,2.67,2.67,0,0,1,.7,1.4,6.91,6.91,0,0,1,.23,1.64v6.9h-2.69v-6.55a3.42,3.42,0,0,0-.23-1.05,2.1,2.1,0,0,0-.59-0.82,1.55,1.55,0,0,0-1.17-.35,3.46,3.46,0,0,0-1.17.23,2.1,2.1,0,0,0-.82.59,2.35,2.35,0,0,0-.47.94,3.24,3.24,0,0,0-.12,1.05v6h-2.69v-11h0Z" transform="translate(-17.57 -7.99)"/><path class="cls-1" d="M311.43,107.58a2.64,2.64,0,0,0,.94,1.87,3,3,0,0,0,2,.7,2.82,2.82,0,0,0,1.76-.47,3.32,3.32,0,0,0,1.17-1.05l2,1.52a4.52,4.52,0,0,1-2.11,1.64,6.11,6.11,0,0,1-2.46.47,5.24,5.24,0,0,1-2.34-.47,5.1,5.1,0,0,1-1.87-1.17,4.89,4.89,0,0,1-1.29-1.76,6.08,6.08,0,0,1,0-4.68,4.89,4.89,0,0,1,1.29-1.76,6.28,6.28,0,0,1,1.87-1.17,7.57,7.57,0,0,1,2.34-.47,6.63,6.63,0,0,1,2.11.35,5.27,5.27,0,0,1,1.64,1.17,4.88,4.88,0,0,1,1.05,1.87,8,8,0,0,1,.35,2.57v0.7l-8.43.12h0Zm5.62-2.11a2.47,2.47,0,0,0-.7-1.87,3.17,3.17,0,0,0-4,0,2.55,2.55,0,0,0-.82,1.87h5.5Z" transform="translate(-17.57 -7.99)"/></svg>